<svg width="30" height="30" viewBox="0 0 30 30" fill="none" xmlns="http://www.w3.org/2000/svg">
<rect x="0.25" y="0.25" width="29.5" height="29.5" rx="14.75" fill="#FDFDFD"/>
<rect x="0.25" y="0.25" width="29.5" height="29.5" rx="14.75" stroke="#E7E7E7" stroke-width="0.5"/>
<path fill-rule="evenodd" clip-rule="evenodd" d="M15.0011 15.995C13.8021 15.995 12.8301 15.023 12.8301 13.824C12.8301 12.6249 13.8021 11.653 15.0011 11.653C16.2001 11.653 17.1721 12.6249 17.1721 13.824C17.1721 15.023 16.2001 15.995 15.0011 15.995Z" stroke="#5C3FFF"/>
<path d="M20.8311 12.5644C21.6313 16.0993 19.4325 19.0913 17.505 20.9423C16.1064 22.2922 13.8936 22.2922 12.488 20.9423C10.5675 19.0913 8.36871 16.0923 9.16892 12.5575C10.5397 6.53153 19.4673 6.53849 20.8311 12.5644Z" stroke="#5C3FFF"/>
</svg>
