<svg width="284" height="23" viewBox="0 0 284 23" fill="none" xmlns="http://www.w3.org/2000/svg">
<rect width="284" height="23" rx="5" fill="#FFF5E7"/>
<path opacity="0.9" d="M12.49 15V12.34L10.21 8H11.16L12.91 11.54L14.66 8H15.6L13.33 12.34V15H12.49ZM17.9114 15.12C17.4247 15.12 16.9947 15.0067 16.6214 14.78C16.2481 14.5533 15.9581 14.2333 15.7514 13.82C15.5447 13.4067 15.4414 12.9233 15.4414 12.37C15.4414 11.81 15.5447 11.3267 15.7514 10.92C15.9647 10.5067 16.2581 10.1867 16.6314 9.96C17.0114 9.73333 17.4447 9.62 17.9314 9.62C18.4247 9.62 18.8547 9.73333 19.2214 9.96C19.5947 10.1867 19.8847 10.5067 20.0914 10.92C20.2981 11.3267 20.4014 11.81 20.4014 12.37C20.4014 12.9233 20.2947 13.4067 20.0814 13.82C19.8747 14.2333 19.5847 14.5533 19.2114 14.78C18.8381 15.0067 18.4047 15.12 17.9114 15.12ZM17.9114 14.4C18.2181 14.4 18.4947 14.3267 18.7414 14.18C18.9881 14.0267 19.1814 13.8 19.3214 13.5C19.4681 13.1933 19.5414 12.8167 19.5414 12.37C19.5414 11.9167 19.4714 11.54 19.3314 11.24C19.1914 10.94 18.9981 10.7167 18.7514 10.57C18.5114 10.4167 18.2381 10.34 17.9314 10.34C17.6314 10.34 17.3581 10.4167 17.1114 10.57C16.8647 10.7167 16.6681 10.94 16.5214 11.24C16.3747 11.54 16.3014 11.9167 16.3014 12.37C16.3014 12.8167 16.3714 13.1933 16.5114 13.5C16.6581 13.8 16.8514 14.0267 17.0914 14.18C17.3381 14.3267 17.6114 14.4 17.9114 14.4ZM23.5082 15.12C23.1215 15.12 22.7849 15.0467 22.4982 14.9C22.2115 14.7533 21.9882 14.53 21.8282 14.23C21.6682 13.9233 21.5882 13.5433 21.5882 13.09V9.74H22.4282V13C22.4282 13.4667 22.5415 13.8167 22.7682 14.05C23.0015 14.2833 23.3115 14.4 23.6982 14.4C23.9649 14.4 24.2049 14.34 24.4182 14.22C24.6315 14.0933 24.8015 13.91 24.9282 13.67C25.0615 13.43 25.1282 13.1367 25.1282 12.79V9.74H25.9682V15H25.2082L25.1582 14.16C25.0182 14.4667 24.8015 14.7033 24.5082 14.87C24.2215 15.0367 23.8882 15.12 23.5082 15.12ZM27.3897 15V9.74H28.1497L28.2097 10.7C28.3297 10.46 28.4864 10.26 28.6797 10.1C28.873 9.94 29.1064 9.82 29.3797 9.74C29.6597 9.66 29.973 9.62 30.3197 9.62V10.5H29.7997C29.5997 10.5 29.4064 10.5267 29.2197 10.58C29.033 10.6333 28.863 10.72 28.7097 10.84C28.563 10.96 28.4464 11.1233 28.3597 11.33C28.273 11.5367 28.2297 11.7967 28.2297 12.11V15H27.3897ZM34.0317 15V8H35.0117L37.3917 12.93L39.7517 8H40.7417V15H39.9017V9.51L37.7017 14.08H37.0717L34.8717 9.55V15H34.0317ZM44.4837 15.12C43.997 15.12 43.567 15.0067 43.1937 14.78C42.8203 14.5533 42.5303 14.2333 42.3237 13.82C42.117 13.4067 42.0137 12.9233 42.0137 12.37C42.0137 11.81 42.117 11.3267 42.3237 10.92C42.537 10.5067 42.8303 10.1867 43.2037 9.96C43.5837 9.73333 44.017 9.62 44.5037 9.62C44.997 9.62 45.427 9.73333 45.7937 9.96C46.167 10.1867 46.457 10.5067 46.6637 10.92C46.8703 11.3267 46.9737 11.81 46.9737 12.37C46.9737 12.9233 46.867 13.4067 46.6537 13.82C46.447 14.2333 46.157 14.5533 45.7837 14.78C45.4103 15.0067 44.977 15.12 44.4837 15.12ZM44.4837 14.4C44.7903 14.4 45.067 14.3267 45.3137 14.18C45.5603 14.0267 45.7537 13.8 45.8937 13.5C46.0403 13.1933 46.1137 12.8167 46.1137 12.37C46.1137 11.9167 46.0437 11.54 45.9037 11.24C45.7637 10.94 45.5703 10.7167 45.3237 10.57C45.0837 10.4167 44.8103 10.34 44.5037 10.34C44.2037 10.34 43.9303 10.4167 43.6837 10.57C43.437 10.7167 43.2403 10.94 43.0937 11.24C42.947 11.54 42.8737 11.9167 42.8737 12.37C42.8737 12.8167 42.9437 13.1933 43.0837 13.5C43.2303 13.8 43.4237 14.0267 43.6637 14.18C43.9103 14.3267 44.1837 14.4 44.4837 14.4ZM50.8105 15.12C50.4905 15.12 50.2138 15.0733 49.9805 14.98C49.7538 14.88 49.5605 14.7567 49.4005 14.61C49.2471 14.4633 49.1205 14.32 49.0205 14.18L48.9505 15H48.1905V7.8H49.0305V10.57C49.1905 10.2567 49.4271 10.02 49.7405 9.86C50.0538 9.7 50.4038 9.62 50.7905 9.62C51.2705 9.62 51.6905 9.73667 52.0505 9.97C52.4105 10.2033 52.6905 10.5267 52.8905 10.94C53.0905 11.3467 53.1905 11.8167 53.1905 12.35C53.1905 12.8767 53.0905 13.35 52.8905 13.77C52.6905 14.19 52.4105 14.52 52.0505 14.76C51.6971 15 51.2838 15.12 50.8105 15.12ZM50.7005 14.39C51.0138 14.39 51.2905 14.31 51.5305 14.15C51.7771 13.9833 51.9705 13.75 52.1105 13.45C52.2571 13.1433 52.3305 12.7833 52.3305 12.37C52.3305 11.9567 52.2571 11.6 52.1105 11.3C51.9705 10.9933 51.7771 10.76 51.5305 10.6C51.2905 10.4333 51.0138 10.35 50.7005 10.35C50.3671 10.35 50.0771 10.4333 49.8305 10.6C49.5838 10.76 49.3938 10.9933 49.2605 11.3C49.1271 11.6 49.0605 11.9567 49.0605 12.37C49.0605 12.7833 49.1271 13.1433 49.2605 13.45C49.3938 13.75 49.5838 13.9833 49.8305 14.15C50.0771 14.31 50.3671 14.39 50.7005 14.39ZM54.4912 15V9.74H55.3312V15H54.4912ZM54.9112 8.74C54.7445 8.74 54.6045 8.68667 54.4912 8.58C54.3845 8.46667 54.3312 8.32667 54.3312 8.16C54.3312 7.99333 54.3845 7.86 54.4912 7.76C54.6045 7.65333 54.7445 7.6 54.9112 7.6C55.0712 7.6 55.2078 7.65333 55.3212 7.76C55.4345 7.86 55.4912 7.99333 55.4912 8.16C55.4912 8.32667 55.4345 8.46667 55.3212 8.58C55.2078 8.68667 55.0712 8.74 54.9112 8.74ZM56.8833 15V8H57.7233V11.17L60.6433 8H61.7033L59.1033 10.79L61.7433 15H60.7233L58.5033 11.44L57.7233 12.27V15H56.8833ZM63.509 15L61.959 9.74H62.799L63.949 13.93L65.169 9.74H66.119L67.349 13.92L68.489 9.74H69.339L67.789 15H66.929L65.649 10.62L64.369 15H63.509ZM70.3798 15V9.74H71.2198V15H70.3798ZM70.7998 8.74C70.6332 8.74 70.4932 8.68667 70.3798 8.58C70.2732 8.46667 70.2198 8.32667 70.2198 8.16C70.2198 7.99333 70.2732 7.86 70.3798 7.76C70.4932 7.65333 70.6332 7.6 70.7998 7.6C70.9598 7.6 71.0965 7.65333 71.2098 7.76C71.3232 7.86 71.3798 7.99333 71.3798 8.16C71.3798 8.32667 71.3232 8.46667 71.2098 8.58C71.0965 8.68667 70.9598 8.74 70.7998 8.74ZM75.802 15L73.412 12.16L75.662 9.74H76.692L74.122 12.46L74.132 11.86L76.872 15H75.802ZM72.712 15V7.8H73.552V15H72.712ZM82.0863 15.12C81.6863 15.12 81.353 15.0467 81.0863 14.9C80.8197 14.7467 80.6197 14.5467 80.4863 14.3C80.353 14.0467 80.2863 13.7767 80.2863 13.49C80.2863 13.1433 80.373 12.85 80.5463 12.61C80.7263 12.3633 80.9763 12.1767 81.2963 12.05C81.6163 11.9233 81.9897 11.86 82.4163 11.86H83.7263C83.7263 11.52 83.6863 11.2367 83.6063 11.01C83.5263 10.7833 83.3963 10.6133 83.2163 10.5C83.0363 10.3867 82.7963 10.33 82.4963 10.33C82.1963 10.33 81.9397 10.4067 81.7263 10.56C81.513 10.7067 81.3797 10.9267 81.3263 11.22H80.4663C80.5063 10.8733 80.623 10.5833 80.8163 10.35C81.0097 10.11 81.253 9.93 81.5463 9.81C81.8463 9.68333 82.163 9.62 82.4963 9.62C82.9697 9.62 83.3597 9.70667 83.6663 9.88C83.973 10.0467 84.1997 10.2833 84.3463 10.59C84.493 10.89 84.5663 11.2467 84.5663 11.66V15H83.8163L83.7663 14.1C83.6997 14.24 83.613 14.3733 83.5063 14.5C83.4063 14.62 83.2863 14.7267 83.1463 14.82C83.0063 14.9133 82.8463 14.9867 82.6663 15.04C82.493 15.0933 82.2997 15.12 82.0863 15.12ZM82.2063 14.41C82.4263 14.41 82.6297 14.36 82.8163 14.26C83.003 14.16 83.163 14.0267 83.2963 13.86C83.4363 13.6867 83.543 13.4933 83.6163 13.28C83.6897 13.0667 83.7263 12.8433 83.7263 12.61V12.51H82.4863C82.173 12.51 81.9163 12.55 81.7163 12.63C81.523 12.71 81.383 12.8233 81.2963 12.97C81.2097 13.11 81.1663 13.27 81.1663 13.45C81.1663 13.6433 81.2063 13.8133 81.2863 13.96C81.3663 14.1 81.483 14.21 81.6363 14.29C81.7963 14.37 81.9863 14.41 82.2063 14.41ZM88.2241 15.12C87.7441 15.12 87.3175 15.0067 86.9441 14.78C86.5708 14.5467 86.2775 14.2233 86.0641 13.81C85.8508 13.3967 85.7441 12.9167 85.7441 12.37C85.7441 11.8167 85.8508 11.3367 86.0641 10.93C86.2775 10.5167 86.5708 10.1967 86.9441 9.97C87.3175 9.73667 87.7441 9.62 88.2241 9.62C88.8241 9.62 89.3241 9.78 89.7241 10.1C90.1308 10.42 90.3908 10.85 90.5041 11.39H89.6441C89.5708 11.0567 89.4008 10.8 89.1341 10.62C88.8741 10.4333 88.5675 10.34 88.2141 10.34C87.9075 10.34 87.6308 10.4167 87.3841 10.57C87.1441 10.7233 86.9541 10.95 86.8141 11.25C86.6741 11.55 86.6041 11.9233 86.6041 12.37C86.6041 12.7033 86.6441 13 86.7241 13.26C86.8041 13.5133 86.9141 13.7267 87.0541 13.9C87.2008 14.0667 87.3708 14.1933 87.5641 14.28C87.7641 14.3667 87.9808 14.41 88.2141 14.41C88.4541 14.41 88.6708 14.37 88.8641 14.29C89.0641 14.2033 89.2308 14.08 89.3641 13.92C89.5041 13.76 89.5975 13.57 89.6441 13.35H90.5041C90.3975 13.8767 90.1375 14.3033 89.7241 14.63C89.3175 14.9567 88.8175 15.12 88.2241 15.12ZM93.9956 15.12C93.5156 15.12 93.089 15.0067 92.7156 14.78C92.3423 14.5467 92.049 14.2233 91.8356 13.81C91.6223 13.3967 91.5156 12.9167 91.5156 12.37C91.5156 11.8167 91.6223 11.3367 91.8356 10.93C92.049 10.5167 92.3423 10.1967 92.7156 9.97C93.089 9.73667 93.5156 9.62 93.9956 9.62C94.5956 9.62 95.0956 9.78 95.4956 10.1C95.9023 10.42 96.1623 10.85 96.2756 11.39H95.4156C95.3423 11.0567 95.1723 10.8 94.9056 10.62C94.6456 10.4333 94.339 10.34 93.9856 10.34C93.679 10.34 93.4023 10.4167 93.1556 10.57C92.9156 10.7233 92.7256 10.95 92.5856 11.25C92.4456 11.55 92.3756 11.9233 92.3756 12.37C92.3756 12.7033 92.4156 13 92.4956 13.26C92.5756 13.5133 92.6856 13.7267 92.8256 13.9C92.9723 14.0667 93.1423 14.1933 93.3356 14.28C93.5356 14.3667 93.7523 14.41 93.9856 14.41C94.2256 14.41 94.4423 14.37 94.6356 14.29C94.8356 14.2033 95.0023 14.08 95.1356 13.92C95.2756 13.76 95.369 13.57 95.4156 13.35H96.2756C96.169 13.8767 95.909 14.3033 95.4956 14.63C95.089 14.9567 94.589 15.12 93.9956 15.12ZM99.7571 15.12C99.2704 15.12 98.8404 15.0067 98.4671 14.78C98.0938 14.5533 97.8038 14.2333 97.5971 13.82C97.3904 13.4067 97.2871 12.9233 97.2871 12.37C97.2871 11.81 97.3904 11.3267 97.5971 10.92C97.8104 10.5067 98.1038 10.1867 98.4771 9.96C98.8571 9.73333 99.2904 9.62 99.7771 9.62C100.27 9.62 100.7 9.73333 101.067 9.96C101.44 10.1867 101.73 10.5067 101.937 10.92C102.144 11.3267 102.247 11.81 102.247 12.37C102.247 12.9233 102.14 13.4067 101.927 13.82C101.72 14.2333 101.43 14.5533 101.057 14.78C100.684 15.0067 100.25 15.12 99.7571 15.12ZM99.7571 14.4C100.064 14.4 100.34 14.3267 100.587 14.18C100.834 14.0267 101.027 13.8 101.167 13.5C101.314 13.1933 101.387 12.8167 101.387 12.37C101.387 11.9167 101.317 11.54 101.177 11.24C101.037 10.94 100.844 10.7167 100.597 10.57C100.357 10.4167 100.084 10.34 99.7771 10.34C99.4771 10.34 99.2038 10.4167 98.9571 10.57C98.7104 10.7167 98.5138 10.94 98.3671 11.24C98.2204 11.54 98.1471 11.9167 98.1471 12.37C98.1471 12.8167 98.2171 13.1933 98.3571 13.5C98.5038 13.8 98.6971 14.0267 98.9371 14.18C99.1838 14.3267 99.4571 14.4 99.7571 14.4ZM105.354 15.12C104.967 15.12 104.631 15.0467 104.344 14.9C104.057 14.7533 103.834 14.53 103.674 14.23C103.514 13.9233 103.434 13.5433 103.434 13.09V9.74H104.274V13C104.274 13.4667 104.387 13.8167 104.614 14.05C104.847 14.2833 105.157 14.4 105.544 14.4C105.811 14.4 106.051 14.34 106.264 14.22C106.477 14.0933 106.647 13.91 106.774 13.67C106.907 13.43 106.974 13.1367 106.974 12.79V9.74H107.814V15H107.054L107.004 14.16C106.864 14.4667 106.647 14.7033 106.354 14.87C106.067 15.0367 105.734 15.12 105.354 15.12ZM109.235 15V9.74H109.995L110.035 10.57C110.189 10.27 110.409 10.0367 110.695 9.87C110.989 9.70333 111.325 9.62 111.705 9.62C112.092 9.62 112.429 9.69333 112.715 9.84C113.002 9.98667 113.225 10.21 113.385 10.51C113.545 10.81 113.625 11.19 113.625 11.65V15H112.785V11.74C112.785 11.2733 112.669 10.9233 112.435 10.69C112.209 10.4567 111.902 10.34 111.515 10.34C111.255 10.34 111.015 10.4033 110.795 10.53C110.575 10.65 110.399 10.83 110.265 11.07C110.139 11.31 110.075 11.6033 110.075 11.95V15H109.235ZM117.057 15C116.757 15 116.497 14.9533 116.277 14.86C116.057 14.7667 115.887 14.61 115.767 14.39C115.653 14.1633 115.597 13.86 115.597 13.48V10.45H114.677V9.74H115.597L115.707 8.43H116.437V9.74H117.927V10.45H116.437V13.48C116.437 13.7933 116.5 14.0067 116.627 14.12C116.753 14.2267 116.977 14.28 117.297 14.28H117.907V15H117.057ZM121.845 15V9.74H122.685V15H121.845ZM122.265 8.74C122.098 8.74 121.958 8.68667 121.845 8.58C121.738 8.46667 121.685 8.32667 121.685 8.16C121.685 7.99333 121.738 7.86 121.845 7.76C121.958 7.65333 122.098 7.6 122.265 7.6C122.425 7.6 122.561 7.65333 122.675 7.76C122.788 7.86 122.845 7.99333 122.845 8.16C122.845 8.32667 122.788 8.46667 122.675 8.58C122.561 8.68667 122.425 8.74 122.265 8.74ZM126.077 15.12C125.603 15.12 125.21 15.05 124.897 14.91C124.59 14.7633 124.357 14.5633 124.197 14.31C124.037 14.05 123.94 13.75 123.907 13.41H124.767C124.793 13.59 124.853 13.7567 124.947 13.91C125.047 14.0567 125.19 14.1767 125.377 14.27C125.563 14.3633 125.8 14.41 126.087 14.41C126.313 14.41 126.507 14.3767 126.667 14.31C126.827 14.2367 126.947 14.1367 127.027 14.01C127.113 13.8833 127.157 13.7367 127.157 13.57C127.157 13.35 127.107 13.18 127.007 13.06C126.913 12.9333 126.773 12.84 126.587 12.78C126.407 12.7133 126.18 12.6633 125.907 12.63C125.613 12.59 125.353 12.5333 125.127 12.46C124.9 12.3867 124.707 12.29 124.547 12.17C124.393 12.05 124.277 11.9 124.197 11.72C124.117 11.54 124.077 11.3267 124.077 11.08C124.077 10.7933 124.153 10.54 124.307 10.32C124.46 10.1 124.677 9.93 124.957 9.81C125.243 9.68333 125.58 9.62 125.967 9.62C126.533 9.62 126.98 9.75 127.307 10.01C127.64 10.27 127.837 10.64 127.897 11.12H127.067C127.033 10.8733 126.92 10.68 126.727 10.54C126.533 10.4 126.277 10.33 125.957 10.33C125.617 10.33 125.36 10.3933 125.187 10.52C125.013 10.6467 124.927 10.8133 124.927 11.02C124.927 11.1733 124.963 11.3133 125.037 11.44C125.117 11.56 125.25 11.6633 125.437 11.75C125.623 11.83 125.873 11.89 126.187 11.93C126.58 11.9767 126.913 12.0533 127.187 12.16C127.46 12.26 127.667 12.4167 127.807 12.63C127.953 12.8433 128.023 13.1333 128.017 13.5C128.017 13.8467 127.933 14.14 127.767 14.38C127.607 14.62 127.38 14.8033 127.087 14.93C126.8 15.0567 126.463 15.12 126.077 15.12ZM133.99 15C133.69 15 133.43 14.9533 133.21 14.86C132.99 14.7667 132.82 14.61 132.7 14.39C132.587 14.1633 132.53 13.86 132.53 13.48V10.45H131.61V9.74H132.53L132.64 8.43H133.37V9.74H134.86V10.45H133.37V13.48C133.37 13.7933 133.434 14.0067 133.56 14.12C133.687 14.2267 133.91 14.28 134.23 14.28H134.84V15H133.99ZM138.056 15.12C137.589 15.12 137.176 15.0067 136.816 14.78C136.456 14.5533 136.173 14.2333 135.966 13.82C135.766 13.4067 135.666 12.9233 135.666 12.37C135.666 11.8167 135.766 11.3333 135.966 10.92C136.173 10.5067 136.456 10.1867 136.816 9.96C137.183 9.73333 137.603 9.62 138.076 9.62C138.583 9.62 139.006 9.73333 139.346 9.96C139.686 10.1867 139.943 10.49 140.116 10.87C140.289 11.25 140.376 11.6667 140.376 12.12C140.376 12.1867 140.376 12.2533 140.376 12.32C140.376 12.3867 140.373 12.4667 140.366 12.56H136.296V11.91H139.556C139.543 11.3967 139.393 11.0067 139.106 10.74C138.826 10.4667 138.476 10.33 138.056 10.33C137.776 10.33 137.516 10.4 137.276 10.54C137.043 10.6733 136.853 10.8733 136.706 11.14C136.559 11.4067 136.486 11.74 136.486 12.14V12.42C136.486 12.86 136.559 13.23 136.706 13.53C136.853 13.8233 137.043 14.0433 137.276 14.19C137.516 14.3367 137.776 14.41 138.056 14.41C138.429 14.41 138.723 14.34 138.936 14.2C139.149 14.0533 139.306 13.8467 139.406 13.58H140.236C140.156 13.8733 140.016 14.1367 139.816 14.37C139.623 14.6033 139.376 14.7867 139.076 14.92C138.783 15.0533 138.443 15.12 138.056 15.12ZM141.54 15V9.74H142.3L142.34 10.46C142.5 10.2 142.717 9.99667 142.99 9.85C143.263 9.69667 143.55 9.62 143.85 9.62C144.103 9.62 144.33 9.65667 144.53 9.73C144.737 9.79667 144.917 9.90333 145.07 10.05C145.223 10.19 145.347 10.3667 145.44 10.58C145.613 10.2667 145.847 10.03 146.14 9.87C146.44 9.70333 146.753 9.62 147.08 9.62C147.467 9.62 147.797 9.69667 148.07 9.85C148.35 9.99667 148.563 10.2233 148.71 10.53C148.863 10.83 148.94 11.2067 148.94 11.66V15H148.11V11.75C148.11 11.2767 148.007 10.9233 147.8 10.69C147.593 10.4567 147.313 10.34 146.96 10.34C146.72 10.34 146.5 10.4033 146.3 10.53C146.107 10.6567 145.95 10.8433 145.83 11.09C145.717 11.3367 145.66 11.6367 145.66 11.99V15H144.82V11.75C144.82 11.2767 144.717 10.9233 144.51 10.69C144.303 10.4567 144.027 10.34 143.68 10.34C143.447 10.34 143.23 10.4033 143.03 10.53C142.837 10.6567 142.68 10.8433 142.56 11.09C142.44 11.3367 142.38 11.6367 142.38 11.99V15H141.54ZM150.329 17.2V9.74H151.089L151.159 10.56C151.266 10.3867 151.399 10.23 151.559 10.09C151.726 9.95 151.922 9.83667 152.149 9.75C152.382 9.66333 152.649 9.62 152.949 9.62C153.422 9.62 153.836 9.74 154.189 9.98C154.549 10.22 154.829 10.5467 155.029 10.96C155.229 11.3733 155.329 11.8467 155.329 12.38C155.329 12.9067 155.229 13.3767 155.029 13.79C154.829 14.2033 154.549 14.53 154.189 14.77C153.829 15.0033 153.412 15.12 152.939 15.12C152.532 15.12 152.176 15.0367 151.869 14.87C151.562 14.7033 151.329 14.47 151.169 14.17V17.2H150.329ZM152.839 14.39C153.152 14.39 153.429 14.31 153.669 14.15C153.916 13.9833 154.109 13.75 154.249 13.45C154.396 13.1433 154.469 12.7833 154.469 12.37C154.469 11.9567 154.396 11.6 154.249 11.3C154.109 10.9933 153.916 10.76 153.669 10.6C153.429 10.4333 153.152 10.35 152.839 10.35C152.506 10.35 152.216 10.4333 151.969 10.6C151.722 10.76 151.532 10.9933 151.399 11.3C151.266 11.6 151.199 11.9567 151.199 12.37C151.199 12.7833 151.266 13.1433 151.399 13.45C151.532 13.75 151.722 13.9833 151.969 14.15C152.216 14.31 152.506 14.39 152.839 14.39ZM158.81 15.12C158.323 15.12 157.893 15.0067 157.52 14.78C157.147 14.5533 156.857 14.2333 156.65 13.82C156.443 13.4067 156.34 12.9233 156.34 12.37C156.34 11.81 156.443 11.3267 156.65 10.92C156.863 10.5067 157.157 10.1867 157.53 9.96C157.91 9.73333 158.343 9.62 158.83 9.62C159.323 9.62 159.753 9.73333 160.12 9.96C160.493 10.1867 160.783 10.5067 160.99 10.92C161.197 11.3267 161.3 11.81 161.3 12.37C161.3 12.9233 161.193 13.4067 160.98 13.82C160.773 14.2333 160.483 14.5533 160.11 14.78C159.737 15.0067 159.303 15.12 158.81 15.12ZM158.81 14.4C159.117 14.4 159.393 14.3267 159.64 14.18C159.887 14.0267 160.08 13.8 160.22 13.5C160.367 13.1933 160.44 12.8167 160.44 12.37C160.44 11.9167 160.37 11.54 160.23 11.24C160.09 10.94 159.897 10.7167 159.65 10.57C159.41 10.4167 159.137 10.34 158.83 10.34C158.53 10.34 158.257 10.4167 158.01 10.57C157.763 10.7167 157.567 10.94 157.42 11.24C157.273 11.54 157.2 11.9167 157.2 12.37C157.2 12.8167 157.27 13.1933 157.41 13.5C157.557 13.8 157.75 14.0267 157.99 14.18C158.237 14.3267 158.51 14.4 158.81 14.4ZM162.517 15V9.74H163.277L163.337 10.7C163.457 10.46 163.613 10.26 163.807 10.1C164 9.94 164.233 9.82 164.507 9.74C164.787 9.66 165.1 9.62 165.447 9.62V10.5H164.927C164.727 10.5 164.533 10.5267 164.347 10.58C164.16 10.6333 163.99 10.72 163.837 10.84C163.69 10.96 163.573 11.1233 163.487 11.33C163.4 11.5367 163.357 11.7967 163.357 12.11V15H162.517ZM168.053 15.12C167.653 15.12 167.32 15.0467 167.053 14.9C166.786 14.7467 166.586 14.5467 166.453 14.3C166.32 14.0467 166.253 13.7767 166.253 13.49C166.253 13.1433 166.34 12.85 166.513 12.61C166.693 12.3633 166.943 12.1767 167.263 12.05C167.583 11.9233 167.956 11.86 168.383 11.86H169.693C169.693 11.52 169.653 11.2367 169.573 11.01C169.493 10.7833 169.363 10.6133 169.183 10.5C169.003 10.3867 168.763 10.33 168.463 10.33C168.163 10.33 167.906 10.4067 167.693 10.56C167.48 10.7067 167.346 10.9267 167.293 11.22H166.433C166.473 10.8733 166.59 10.5833 166.783 10.35C166.976 10.11 167.22 9.93 167.513 9.81C167.813 9.68333 168.13 9.62 168.463 9.62C168.936 9.62 169.326 9.70667 169.633 9.88C169.94 10.0467 170.166 10.2833 170.313 10.59C170.46 10.89 170.533 11.2467 170.533 11.66V15H169.783L169.733 14.1C169.666 14.24 169.58 14.3733 169.473 14.5C169.373 14.62 169.253 14.7267 169.113 14.82C168.973 14.9133 168.813 14.9867 168.633 15.04C168.46 15.0933 168.266 15.12 168.053 15.12ZM168.173 14.41C168.393 14.41 168.596 14.36 168.783 14.26C168.97 14.16 169.13 14.0267 169.263 13.86C169.403 13.6867 169.51 13.4933 169.583 13.28C169.656 13.0667 169.693 12.8433 169.693 12.61V12.51H168.453C168.14 12.51 167.883 12.55 167.683 12.63C167.49 12.71 167.35 12.8233 167.263 12.97C167.176 13.11 167.133 13.27 167.133 13.45C167.133 13.6433 167.173 13.8133 167.253 13.96C167.333 14.1 167.45 14.21 167.603 14.29C167.763 14.37 167.953 14.41 168.173 14.41ZM171.921 15V9.74H172.681L172.741 10.7C172.861 10.46 173.018 10.26 173.211 10.1C173.404 9.94 173.638 9.82 173.911 9.74C174.191 9.66 174.504 9.62 174.851 9.62V10.5H174.331C174.131 10.5 173.938 10.5267 173.751 10.58C173.564 10.6333 173.394 10.72 173.241 10.84C173.094 10.96 172.978 11.1233 172.891 11.33C172.804 11.5367 172.761 11.7967 172.761 12.11V15H171.921ZM175.897 15V9.74H176.737V15H175.897ZM176.317 8.74C176.151 8.74 176.011 8.68667 175.897 8.58C175.791 8.46667 175.737 8.32667 175.737 8.16C175.737 7.99333 175.791 7.86 175.897 7.76C176.011 7.65333 176.151 7.6 176.317 7.6C176.477 7.6 176.614 7.65333 176.727 7.76C176.841 7.86 176.897 7.99333 176.897 8.16C176.897 8.32667 176.841 8.46667 176.727 8.58C176.614 8.68667 176.477 8.74 176.317 8.74ZM178.23 15V7.8H179.07V15H178.23ZM181.075 17.2L182.265 14.44H181.975L180.005 9.74H180.915L182.545 13.79L184.245 9.74H185.115L181.945 17.2H181.075ZM188.737 15V9.74H189.497L189.557 10.7C189.677 10.46 189.834 10.26 190.027 10.1C190.221 9.94 190.454 9.82 190.727 9.74C191.007 9.66 191.321 9.62 191.667 9.62V10.5H191.147C190.947 10.5 190.754 10.5267 190.567 10.58C190.381 10.6333 190.211 10.72 190.057 10.84C189.911 10.96 189.794 11.1233 189.707 11.33C189.621 11.5367 189.577 11.7967 189.577 12.11V15H188.737ZM194.628 15.12C194.162 15.12 193.748 15.0067 193.388 14.78C193.028 14.5533 192.745 14.2333 192.538 13.82C192.338 13.4067 192.238 12.9233 192.238 12.37C192.238 11.8167 192.338 11.3333 192.538 10.92C192.745 10.5067 193.028 10.1867 193.388 9.96C193.755 9.73333 194.175 9.62 194.648 9.62C195.155 9.62 195.578 9.73333 195.918 9.96C196.258 10.1867 196.515 10.49 196.688 10.87C196.862 11.25 196.948 11.6667 196.948 12.12C196.948 12.1867 196.948 12.2533 196.948 12.32C196.948 12.3867 196.945 12.4667 196.938 12.56H192.868V11.91H196.128C196.115 11.3967 195.965 11.0067 195.678 10.74C195.398 10.4667 195.048 10.33 194.628 10.33C194.348 10.33 194.088 10.4 193.848 10.54C193.615 10.6733 193.425 10.8733 193.278 11.14C193.132 11.4067 193.058 11.74 193.058 12.14V12.42C193.058 12.86 193.132 13.23 193.278 13.53C193.425 13.8233 193.615 14.0433 193.848 14.19C194.088 14.3367 194.348 14.41 194.628 14.41C195.002 14.41 195.295 14.34 195.508 14.2C195.722 14.0533 195.878 13.8467 195.978 13.58H196.808C196.728 13.8733 196.588 14.1367 196.388 14.37C196.195 14.6033 195.948 14.7867 195.648 14.92C195.355 15.0533 195.015 15.12 194.628 15.12ZM200.012 15.12C199.539 15.12 199.146 15.05 198.832 14.91C198.526 14.7633 198.292 14.5633 198.132 14.31C197.972 14.05 197.876 13.75 197.842 13.41H198.702C198.729 13.59 198.789 13.7567 198.882 13.91C198.982 14.0567 199.126 14.1767 199.312 14.27C199.499 14.3633 199.736 14.41 200.022 14.41C200.249 14.41 200.442 14.3767 200.602 14.31C200.762 14.2367 200.882 14.1367 200.962 14.01C201.049 13.8833 201.092 13.7367 201.092 13.57C201.092 13.35 201.042 13.18 200.942 13.06C200.849 12.9333 200.709 12.84 200.522 12.78C200.342 12.7133 200.116 12.6633 199.842 12.63C199.549 12.59 199.289 12.5333 199.062 12.46C198.836 12.3867 198.642 12.29 198.482 12.17C198.329 12.05 198.212 11.9 198.132 11.72C198.052 11.54 198.012 11.3267 198.012 11.08C198.012 10.7933 198.089 10.54 198.242 10.32C198.396 10.1 198.612 9.93 198.892 9.81C199.179 9.68333 199.516 9.62 199.902 9.62C200.469 9.62 200.916 9.75 201.242 10.01C201.576 10.27 201.772 10.64 201.832 11.12H201.002C200.969 10.8733 200.856 10.68 200.662 10.54C200.469 10.4 200.212 10.33 199.892 10.33C199.552 10.33 199.296 10.3933 199.122 10.52C198.949 10.6467 198.862 10.8133 198.862 11.02C198.862 11.1733 198.899 11.3133 198.972 11.44C199.052 11.56 199.186 11.6633 199.372 11.75C199.559 11.83 199.809 11.89 200.122 11.93C200.516 11.9767 200.849 12.0533 201.122 12.16C201.396 12.26 201.602 12.4167 201.742 12.63C201.889 12.8433 201.959 13.1333 201.952 13.5C201.952 13.8467 201.869 14.14 201.702 14.38C201.542 14.62 201.316 14.8033 201.022 14.93C200.736 15.0567 200.399 15.12 200.012 15.12ZM205.016 15C204.716 15 204.456 14.9533 204.236 14.86C204.016 14.7667 203.846 14.61 203.726 14.39C203.612 14.1633 203.556 13.86 203.556 13.48V10.45H202.636V9.74H203.556L203.666 8.43H204.396V9.74H205.886V10.45H204.396V13.48C204.396 13.7933 204.459 14.0067 204.586 14.12C204.712 14.2267 204.936 14.28 205.256 14.28H205.866V15H205.016ZM207.038 15V9.74H207.798L207.858 10.7C207.978 10.46 208.135 10.26 208.328 10.1C208.521 9.94 208.755 9.82 209.028 9.74C209.308 9.66 209.621 9.62 209.968 9.62V10.5H209.448C209.248 10.5 209.055 10.5267 208.868 10.58C208.681 10.6333 208.511 10.72 208.358 10.84C208.211 10.96 208.095 11.1233 208.008 11.33C207.921 11.5367 207.878 11.7967 207.878 12.11V15H207.038ZM211.015 15V9.74H211.855V15H211.015ZM211.435 8.74C211.268 8.74 211.128 8.68667 211.015 8.58C210.908 8.46667 210.855 8.32667 210.855 8.16C210.855 7.99333 210.908 7.86 211.015 7.76C211.128 7.65333 211.268 7.6 211.435 7.6C211.595 7.6 211.731 7.65333 211.845 7.76C211.958 7.86 212.015 7.99333 212.015 8.16C212.015 8.32667 211.958 8.46667 211.845 8.58C211.731 8.68667 211.595 8.74 211.435 8.74ZM215.617 15.12C215.137 15.12 214.71 15.0067 214.337 14.78C213.963 14.5467 213.67 14.2233 213.457 13.81C213.243 13.3967 213.137 12.9167 213.137 12.37C213.137 11.8167 213.243 11.3367 213.457 10.93C213.67 10.5167 213.963 10.1967 214.337 9.97C214.71 9.73667 215.137 9.62 215.617 9.62C216.217 9.62 216.717 9.78 217.117 10.1C217.523 10.42 217.783 10.85 217.897 11.39H217.037C216.963 11.0567 216.793 10.8 216.527 10.62C216.267 10.4333 215.96 10.34 215.607 10.34C215.3 10.34 215.023 10.4167 214.777 10.57C214.537 10.7233 214.347 10.95 214.207 11.25C214.067 11.55 213.997 11.9233 213.997 12.37C213.997 12.7033 214.037 13 214.117 13.26C214.197 13.5133 214.307 13.7267 214.447 13.9C214.593 14.0667 214.763 14.1933 214.957 14.28C215.157 14.3667 215.373 14.41 215.607 14.41C215.847 14.41 216.063 14.37 216.257 14.29C216.457 14.2033 216.623 14.08 216.757 13.92C216.897 13.76 216.99 13.57 217.037 13.35H217.897C217.79 13.8767 217.53 14.3033 217.117 14.63C216.71 14.9567 216.21 15.12 215.617 15.12ZM221.021 15C220.721 15 220.461 14.9533 220.241 14.86C220.021 14.7667 219.851 14.61 219.731 14.39C219.618 14.1633 219.561 13.86 219.561 13.48V10.45H218.641V9.74H219.561L219.671 8.43H220.401V9.74H221.891V10.45H220.401V13.48C220.401 13.7933 220.465 14.0067 220.591 14.12C220.718 14.2267 220.941 14.28 221.261 14.28H221.871V15H221.021ZM225.087 15.12C224.621 15.12 224.207 15.0067 223.847 14.78C223.487 14.5533 223.204 14.2333 222.997 13.82C222.797 13.4067 222.697 12.9233 222.697 12.37C222.697 11.8167 222.797 11.3333 222.997 10.92C223.204 10.5067 223.487 10.1867 223.847 9.96C224.214 9.73333 224.634 9.62 225.107 9.62C225.614 9.62 226.037 9.73333 226.377 9.96C226.717 10.1867 226.974 10.49 227.147 10.87C227.321 11.25 227.407 11.6667 227.407 12.12C227.407 12.1867 227.407 12.2533 227.407 12.32C227.407 12.3867 227.404 12.4667 227.397 12.56H223.327V11.91H226.587C226.574 11.3967 226.424 11.0067 226.137 10.74C225.857 10.4667 225.507 10.33 225.087 10.33C224.807 10.33 224.547 10.4 224.307 10.54C224.074 10.6733 223.884 10.8733 223.737 11.14C223.591 11.4067 223.517 11.74 223.517 12.14V12.42C223.517 12.86 223.591 13.23 223.737 13.53C223.884 13.8233 224.074 14.0433 224.307 14.19C224.547 14.3367 224.807 14.41 225.087 14.41C225.461 14.41 225.754 14.34 225.967 14.2C226.181 14.0533 226.337 13.8467 226.437 13.58H227.267C227.187 13.8733 227.047 14.1367 226.847 14.37C226.654 14.6033 226.407 14.7867 226.107 14.92C225.814 15.0533 225.474 15.12 225.087 15.12ZM230.741 15.12C230.275 15.12 229.861 15 229.501 14.76C229.141 14.52 228.861 14.1933 228.661 13.78C228.461 13.36 228.361 12.8867 228.361 12.36C228.361 11.8267 228.461 11.3567 228.661 10.95C228.861 10.5367 229.141 10.2133 229.501 9.98C229.861 9.74 230.278 9.62 230.751 9.62C231.165 9.62 231.518 9.70333 231.811 9.87C232.111 10.0367 232.348 10.27 232.521 10.57V7.8H233.361V15H232.601L232.531 14.16C232.431 14.3267 232.298 14.4833 232.131 14.63C231.971 14.7767 231.775 14.8967 231.541 14.99C231.315 15.0767 231.048 15.12 230.741 15.12ZM230.851 14.39C231.185 14.39 231.475 14.31 231.721 14.15C231.968 13.9833 232.158 13.75 232.291 13.45C232.425 13.1433 232.491 12.7833 232.491 12.37C232.491 11.9567 232.425 11.6 232.291 11.3C232.158 10.9933 231.968 10.76 231.721 10.6C231.475 10.4333 231.185 10.35 230.851 10.35C230.538 10.35 230.258 10.4333 230.011 10.6C229.765 10.76 229.571 10.9933 229.431 11.3C229.291 11.6 229.221 11.9567 229.221 12.37C229.221 12.7833 229.291 13.1433 229.431 13.45C229.571 13.75 229.765 13.9833 230.011 14.15C230.258 14.31 230.538 14.39 230.851 14.39ZM235.112 15.05C234.952 15.05 234.816 14.9967 234.702 14.89C234.596 14.7767 234.542 14.64 234.542 14.48C234.542 14.32 234.596 14.1867 234.702 14.08C234.816 13.9667 234.952 13.91 235.112 13.91C235.286 13.91 235.422 13.9667 235.522 14.08C235.629 14.1867 235.682 14.32 235.682 14.48C235.682 14.64 235.629 14.7767 235.522 14.89C235.422 14.9967 235.286 15.05 235.112 15.05Z" fill="#EC0606"/>
</svg>
