<svg width="165" height="20" viewBox="0 0 165 20" fill="none" xmlns="http://www.w3.org/2000/svg">
<path d="M29.2638 8.15462C29.0032 7.40938 28.2929 6.87424 27.4586 6.87424H27.4412C26.8988 6.87424 26.4101 7.09997 26.0622 7.46235C25.7136 7.09997 25.2249 6.87424 24.6831 6.87424H24.6657C24.1889 6.87424 23.7531 7.0488 23.4185 7.33775V7.19087C23.407 7.04458 23.2866 6.92962 23.138 6.92962H21.8583C21.7018 6.92962 21.5754 7.05603 21.5754 7.21314V14.1628C21.5754 14.3199 21.7018 14.4464 21.8583 14.4464H23.138C23.2806 14.4464 23.398 14.3398 23.4167 14.202L23.4161 9.21287C23.4159 9.19619 23.4167 9.17951 23.4184 9.16291C23.4389 8.94018 23.602 8.75719 23.8597 8.73431H24.0956C24.2034 8.74393 24.2943 8.78186 24.3659 8.83904C24.4772 8.92753 24.5392 9.06358 24.5392 9.21287L24.5441 14.1773C24.5441 14.3344 24.6711 14.4614 24.827 14.4614H26.1067C26.2578 14.4614 26.3805 14.341 26.3878 14.1911L26.3872 9.20625C26.3866 9.04251 26.4624 8.89443 26.5955 8.80654C26.6611 8.76439 26.7399 8.73611 26.8308 8.72769H27.0668C27.3436 8.75176 27.511 8.96185 27.5104 9.20625L27.5152 14.1641C27.5152 14.3212 27.6422 14.4476 27.7981 14.4476H29.0778C29.2337 14.4476 29.3607 14.3212 29.3607 14.1641V8.83182C29.3607 8.46823 29.3198 8.31353 29.2638 8.15462ZM20.6004 6.94773H19.8685V5.75824C19.8685 5.61557 19.7529 5.5 19.6103 5.5C19.5934 5.5 19.5772 5.50239 19.5615 5.50541C18.7501 5.72814 18.9126 6.85202 17.4313 6.94773H17.2874C17.2657 6.94773 17.2453 6.95073 17.2254 6.95495C17.099 6.98325 17.0039 7.09581 17.0039 7.23066V8.51043C17.0039 8.66634 17.1309 8.79335 17.2874 8.79335H18.0597L18.0585 14.2201C18.0585 14.3748 18.1837 14.5 18.3384 14.5H19.6036C19.7577 14.5 19.883 14.3748 19.883 14.2201L19.8835 8.79335H20.6004C20.7563 8.79335 20.8833 8.66634 20.8833 8.51043V7.23066C20.8833 7.07475 20.7563 6.94773 20.6004 6.94773Z" fill="#00BAF2"/>
<path d="M15.9933 6.94953H14.7136C14.5577 6.94953 14.4313 7.07655 14.4313 7.23244V9.8787C14.4283 10.0424 14.2959 10.1737 14.1316 10.1737H13.5959C13.4297 10.1737 13.2955 10.04 13.2955 9.87387L13.2907 7.23246C13.2907 7.07655 13.1637 6.94954 13.0078 6.94954H11.7281C11.5716 6.94954 11.4452 7.07655 11.4452 7.23246V10.1327C11.4452 11.2343 12.2307 12.0199 13.3328 12.0199C13.3328 12.0199 14.1599 12.0199 14.1851 12.0247C14.3344 12.0416 14.4506 12.1668 14.4506 12.3209C14.4506 12.4732 14.3368 12.5978 14.1894 12.6164C14.1821 12.6176 14.1755 12.6194 14.1677 12.6207L12.2963 12.6273C12.1398 12.6273 12.0134 12.7543 12.0134 12.9102V14.1894C12.0134 14.3459 12.1398 14.4723 12.2963 14.4723H14.3886C15.4913 14.4723 16.2762 13.6873 16.2762 12.5851V7.23246C16.2762 7.07655 16.1498 6.94953 15.9933 6.94953ZM3.60665 9.29449V10.0843C3.60665 10.2498 3.47241 10.3847 3.30689 10.3847L2.49488 10.3853V8.80269H3.30689C3.47241 8.80269 3.60665 8.93631 3.60665 9.10246V9.29449ZM3.71921 6.94922H0.922022C0.768526 6.94922 0.644531 7.07383 0.644531 7.22672V8.48063C0.644531 8.48303 0.645128 8.48544 0.645128 8.48785C0.645128 8.49387 0.644531 8.49989 0.644531 8.5053V14.1806C0.644531 14.3347 0.760097 14.4606 0.903372 14.4642H2.20713C2.36303 14.4642 2.49003 14.3378 2.49003 14.1813L2.49486 12.2363H3.71919C4.74367 12.2363 5.45757 11.5254 5.45757 10.4966V8.69133C5.45757 7.66256 4.74369 6.94922 3.71921 6.94922ZM8.91635 12.299V12.4989C8.91635 12.5151 8.91396 12.5308 8.91155 12.5458C8.90854 12.5599 8.90452 12.5738 8.8995 12.5874C8.85977 12.6993 8.74782 12.7806 8.61478 12.7806H8.08208C7.91594 12.7806 7.78052 12.6542 7.78052 12.4989V12.2575C7.78052 12.2545 7.7799 12.2515 7.7799 12.2485L7.78052 11.6062V11.4051L7.78112 11.4033C7.78171 11.2486 7.91594 11.1234 8.08208 11.1234H8.61478C8.78152 11.1234 8.91636 11.2492 8.91636 11.4051L8.91635 12.299ZM8.71292 6.95657H6.93721C6.78012 6.95657 6.65312 7.07576 6.65312 7.22203V7.71986C6.65312 7.72287 6.65372 7.72648 6.65372 7.72949C6.65372 7.7331 6.6531 7.7367 6.6531 7.74032V8.42236C6.6531 8.57707 6.78795 8.70348 6.95409 8.70348H8.6449C8.77853 8.72455 8.88447 8.82207 8.89952 8.97436V9.1393C8.88447 9.28438 8.77974 9.39031 8.65211 9.40235H7.81485C6.70127 9.40235 5.90792 10.1422 5.90792 11.1812V12.6692C5.90792 13.7022 6.58992 14.4372 7.69565 14.4372H10.0161C10.4326 14.4372 10.7703 14.1218 10.7703 13.7335V8.87744C10.7703 7.7 10.1636 6.95657 8.71292 6.95657Z" fill="#1F336B"/>
<path opacity="0.6" d="M43.2884 14V5.6H46.1444C46.8164 5.6 47.3684 5.712 47.8004 5.936C48.2404 6.16 48.5644 6.464 48.7724 6.848C48.9804 7.224 49.0844 7.656 49.0844 8.144C49.0844 8.608 48.9804 9.032 48.7724 9.416C48.5644 9.8 48.2444 10.108 47.8124 10.34C47.3804 10.564 46.8244 10.676 46.1444 10.676H44.4884V14H43.2884ZM44.4884 9.68H46.0964C46.7364 9.68 47.1884 9.54 47.4524 9.26C47.7244 8.98 47.8604 8.608 47.8604 8.144C47.8604 7.656 47.7244 7.276 47.4524 7.004C47.1884 6.732 46.7364 6.596 46.0964 6.596H44.4884V9.68ZM52.0173 14.144C51.5213 14.144 51.1093 14.06 50.7813 13.892C50.4533 13.724 50.2093 13.5 50.0493 13.22C49.8893 12.932 49.8093 12.624 49.8093 12.296C49.8093 11.896 49.9133 11.556 50.1213 11.276C50.3293 10.988 50.6253 10.768 51.0093 10.616C51.3933 10.464 51.8533 10.388 52.3893 10.388H53.9613C53.9613 10.036 53.9093 9.744 53.8053 9.512C53.7013 9.28 53.5453 9.108 53.3373 8.996C53.1373 8.876 52.8813 8.816 52.5693 8.816C52.2093 8.816 51.9013 8.904 51.6453 9.08C51.3893 9.248 51.2293 9.5 51.1653 9.836H49.9653C50.0133 9.412 50.1573 9.052 50.3973 8.756C50.6453 8.452 50.9613 8.22 51.3453 8.06C51.7293 7.892 52.1373 7.808 52.5693 7.808C53.1373 7.808 53.6133 7.908 53.9973 8.108C54.3813 8.308 54.6693 8.592 54.8613 8.96C55.0613 9.32 55.1613 9.752 55.1613 10.256V14H54.1173L54.0213 12.98C53.9333 13.14 53.8293 13.292 53.7093 13.436C53.5893 13.58 53.4453 13.704 53.2773 13.808C53.1173 13.912 52.9293 13.992 52.7133 14.048C52.5053 14.112 52.2733 14.144 52.0173 14.144ZM52.2453 13.172C52.5013 13.172 52.7333 13.12 52.9413 13.016C53.1493 12.912 53.3253 12.772 53.4693 12.596C53.6213 12.412 53.7333 12.208 53.8053 11.984C53.8853 11.752 53.9293 11.516 53.9373 11.276V11.24H52.5093C52.1653 11.24 51.8853 11.284 51.6693 11.372C51.4613 11.452 51.3093 11.564 51.2133 11.708C51.1173 11.852 51.0693 12.02 51.0693 12.212C51.0693 12.412 51.1133 12.584 51.2013 12.728C51.2973 12.864 51.4333 12.972 51.6093 13.052C51.7853 13.132 51.9973 13.172 52.2453 13.172ZM57.2726 16.64L58.7126 13.328H58.3646L55.9886 7.844H57.2846L59.1686 12.332L61.0766 7.844H62.3246L58.5206 16.64H57.2726ZM65.9398 14C65.5558 14 65.2238 13.94 64.9438 13.82C64.6638 13.7 64.4478 13.5 64.2958 13.22C64.1438 12.94 64.0678 12.56 64.0678 12.08V8.864H63.0118V7.844H64.0678L64.2238 6.284H65.2678V7.844H66.9958V8.864H65.2678V12.092C65.2678 12.436 65.3398 12.672 65.4838 12.8C65.6278 12.92 65.8758 12.98 66.2278 12.98H66.9598V14H65.9398ZM68.3414 14V7.952H69.4214L69.5054 8.804C69.6974 8.492 69.9534 8.248 70.2734 8.072C70.5934 7.896 70.9534 7.808 71.3534 7.808C71.6574 7.808 71.9334 7.852 72.1814 7.94C72.4294 8.02 72.6494 8.144 72.8414 8.312C73.0334 8.48 73.1894 8.688 73.3094 8.936C73.5254 8.584 73.8134 8.308 74.1734 8.108C74.5414 7.908 74.9294 7.808 75.3374 7.808C75.8254 7.808 76.2454 7.908 76.5974 8.108C76.9494 8.3 77.2174 8.592 77.4014 8.984C77.5854 9.368 77.6774 9.848 77.6774 10.424V14H76.4894V10.544C76.4894 9.984 76.3734 9.56 76.1414 9.272C75.9174 8.984 75.5854 8.84 75.1454 8.84C74.8494 8.84 74.5854 8.916 74.3534 9.068C74.1214 9.22 73.9374 9.44 73.8014 9.728C73.6734 10.016 73.6094 10.368 73.6094 10.784V14H72.4094V10.544C72.4094 9.984 72.2934 9.56 72.0614 9.272C71.8374 8.984 71.5054 8.84 71.0654 8.84C70.7854 8.84 70.5294 8.916 70.2974 9.068C70.0654 9.22 69.8814 9.44 69.7454 9.728C69.6094 10.016 69.5414 10.368 69.5414 10.784V14H68.3414Z" fill="black"/>
</svg>
