<svg width="173" height="30" viewBox="0 0 173 30" fill="none" xmlns="http://www.w3.org/2000/svg">
<g clip-path="url(#clip0_6_3908)">
<path d="M10.2098 13.5405H13.1588V18.2325C12.7568 18.4335 12.2208 18.5005 11.8188 18.5005C10.7468 18.5005 10.2098 17.9645 10.2098 16.7575V13.5405ZM23.6798 18.3565C22.1568 24.8055 15.6948 28.7985 9.24684 27.2755C2.79784 25.7535 -1.19516 19.2905 0.327841 12.8425C1.85084 6.39354 8.31284 2.40054 14.7608 3.92354C21.2098 5.44654 25.2028 11.9085 23.6798 18.3565ZM17.4488 12.4685C17.4447 12.2388 17.3516 12.0197 17.1892 11.8572C17.0267 11.6947 16.8076 11.6017 16.5778 11.5975H14.9688L11.2828 7.37554C10.9478 6.97354 10.4118 6.83954 9.87584 6.97354L8.60184 7.37454C8.40084 7.44154 8.33384 7.70954 8.46784 7.84354L12.4888 11.6635H6.38984C6.18884 11.6635 6.05484 11.7975 6.05484 11.9985V12.6685C6.05484 13.1375 6.45684 13.5395 6.92584 13.5395H7.86384V16.7565C7.86384 19.1695 9.13684 20.5765 11.2818 20.5765C11.9518 20.5765 12.4878 20.5095 13.1588 20.2415V22.3865C13.1588 22.9895 13.6278 23.4585 14.2308 23.4585H15.1688C15.2731 23.4515 15.3714 23.4069 15.4453 23.333C15.5192 23.2591 15.5638 23.1609 15.5708 23.0565V13.4735H17.1128C17.3138 13.4735 17.4478 13.3395 17.4478 13.1385L17.4488 12.4685Z" fill="#643BB8"/>
</g>
<path opacity="0.6" d="M45.2884 19V10.6H48.1444C48.8164 10.6 49.3684 10.712 49.8004 10.936C50.2404 11.16 50.5644 11.464 50.7724 11.848C50.9804 12.224 51.0844 12.656 51.0844 13.144C51.0844 13.608 50.9804 14.032 50.7724 14.416C50.5644 14.8 50.2444 15.108 49.8124 15.34C49.3804 15.564 48.8244 15.676 48.1444 15.676H46.4884V19H45.2884ZM46.4884 14.68H48.0964C48.7364 14.68 49.1884 14.54 49.4524 14.26C49.7244 13.98 49.8604 13.608 49.8604 13.144C49.8604 12.656 49.7244 12.276 49.4524 12.004C49.1884 11.732 48.7364 11.596 48.0964 11.596H46.4884V14.68ZM52.3417 19V10.36H53.5417V13.828C53.7497 13.484 54.0297 13.212 54.3817 13.012C54.7337 12.804 55.1217 12.7 55.5457 12.7C56.0337 12.7 56.4497 12.796 56.7937 12.988C57.1377 13.18 57.3977 13.468 57.5737 13.852C57.7577 14.236 57.8497 14.716 57.8497 15.292V19H56.6617V15.412C56.6617 14.86 56.5377 14.444 56.2897 14.164C56.0417 13.876 55.6897 13.732 55.2337 13.732C54.9217 13.732 54.6377 13.808 54.3817 13.96C54.1257 14.104 53.9217 14.32 53.7697 14.608C53.6177 14.888 53.5417 15.236 53.5417 15.652V19H52.3417ZM62.1912 19.144C61.6232 19.144 61.1112 19.012 60.6552 18.748C60.2072 18.484 59.8512 18.116 59.5872 17.644C59.3312 17.164 59.2032 16.612 59.2032 15.988C59.2032 15.348 59.3352 14.792 59.5992 14.32C59.8632 13.84 60.2232 13.468 60.6792 13.204C61.1352 12.94 61.6472 12.808 62.2152 12.808C62.7912 12.808 63.3032 12.94 63.7512 13.204C64.1992 13.468 64.5512 13.836 64.8072 14.308C65.0712 14.78 65.2032 15.336 65.2032 15.976C65.2032 16.616 65.0712 17.172 64.8072 17.644C64.5512 18.116 64.1952 18.484 63.7392 18.748C63.2832 19.012 62.7672 19.144 62.1912 19.144ZM62.1912 18.112C62.5192 18.112 62.8152 18.032 63.0792 17.872C63.3512 17.712 63.5672 17.476 63.7272 17.164C63.8952 16.844 63.9792 16.448 63.9792 15.976C63.9792 15.504 63.8992 15.112 63.7392 14.8C63.5792 14.48 63.3632 14.24 63.0912 14.08C62.8272 13.92 62.5352 13.84 62.2152 13.84C61.8952 13.84 61.5992 13.92 61.3272 14.08C61.0552 14.24 60.8352 14.48 60.6672 14.8C60.5072 15.112 60.4272 15.504 60.4272 15.976C60.4272 16.448 60.5072 16.844 60.6672 17.164C60.8352 17.476 61.0512 17.712 61.3152 17.872C61.5872 18.032 61.8792 18.112 62.1912 18.112ZM66.6385 19V12.844H67.7185L67.7905 13.852C67.9745 13.5 68.2385 13.22 68.5825 13.012C68.9345 12.804 69.3425 12.7 69.8065 12.7C70.2785 12.7 70.6865 12.796 71.0305 12.988C71.3745 13.172 71.6425 13.456 71.8345 13.84C72.0265 14.216 72.1225 14.688 72.1225 15.256V19H70.9225V15.376C70.9225 14.832 70.7945 14.424 70.5385 14.152C70.2905 13.872 69.9385 13.732 69.4825 13.732C69.1785 13.732 68.8985 13.804 68.6425 13.948C68.3945 14.092 68.1985 14.304 68.0545 14.584C67.9105 14.856 67.8385 15.192 67.8385 15.592V19H66.6385ZM76.429 19.144C75.853 19.144 75.341 19.012 74.893 18.748C74.445 18.484 74.093 18.116 73.837 17.644C73.589 17.172 73.465 16.624 73.465 16C73.465 15.36 73.589 14.804 73.837 14.332C74.093 13.852 74.445 13.48 74.893 13.216C75.341 12.944 75.861 12.808 76.453 12.808C77.045 12.808 77.553 12.94 77.977 13.204C78.401 13.468 78.729 13.82 78.961 14.26C79.193 14.692 79.309 15.172 79.309 15.7C79.309 15.78 79.305 15.868 79.297 15.964C79.297 16.052 79.293 16.152 79.285 16.264H74.341V15.412H78.109C78.085 14.908 77.917 14.516 77.605 14.236C77.293 13.948 76.905 13.804 76.441 13.804C76.113 13.804 75.813 13.88 75.541 14.032C75.269 14.176 75.049 14.392 74.881 14.68C74.721 14.96 74.641 15.316 74.641 15.748V16.084C74.641 16.532 74.721 16.912 74.881 17.224C75.049 17.528 75.269 17.76 75.541 17.92C75.813 18.072 76.109 18.148 76.429 18.148C76.813 18.148 77.129 18.064 77.377 17.896C77.625 17.728 77.809 17.5 77.929 17.212H79.129C79.025 17.58 78.849 17.912 78.601 18.208C78.353 18.496 78.045 18.724 77.677 18.892C77.317 19.06 76.901 19.144 76.429 19.144ZM80.7025 19V10.6H83.5585C84.2305 10.6 84.7825 10.712 85.2145 10.936C85.6545 11.16 85.9785 11.464 86.1865 11.848C86.3945 12.224 86.4985 12.656 86.4985 13.144C86.4985 13.608 86.3945 14.032 86.1865 14.416C85.9785 14.8 85.6585 15.108 85.2265 15.34C84.7945 15.564 84.2385 15.676 83.5585 15.676H81.9025V19H80.7025ZM81.9025 14.68H83.5105C84.1505 14.68 84.6025 14.54 84.8665 14.26C85.1385 13.98 85.2745 13.608 85.2745 13.144C85.2745 12.656 85.1385 12.276 84.8665 12.004C84.6025 11.732 84.1505 11.596 83.5105 11.596H81.9025V14.68ZM90.1399 19.144C89.5639 19.144 89.0519 19.012 88.6039 18.748C88.1559 18.484 87.8039 18.116 87.5479 17.644C87.2999 17.172 87.1759 16.624 87.1759 16C87.1759 15.36 87.2999 14.804 87.5479 14.332C87.8039 13.852 88.1559 13.48 88.6039 13.216C89.0519 12.944 89.5719 12.808 90.1639 12.808C90.7559 12.808 91.2639 12.94 91.6879 13.204C92.1119 13.468 92.4399 13.82 92.6719 14.26C92.9039 14.692 93.0199 15.172 93.0199 15.7C93.0199 15.78 93.0159 15.868 93.0079 15.964C93.0079 16.052 93.0039 16.152 92.9959 16.264H88.0519V15.412H91.8199C91.7959 14.908 91.6279 14.516 91.3159 14.236C91.0039 13.948 90.6159 13.804 90.1519 13.804C89.8239 13.804 89.5239 13.88 89.2519 14.032C88.9799 14.176 88.7599 14.392 88.5919 14.68C88.4319 14.96 88.3519 15.316 88.3519 15.748V16.084C88.3519 16.532 88.4319 16.912 88.5919 17.224C88.7599 17.528 88.9799 17.76 89.2519 17.92C89.5239 18.072 89.8199 18.148 90.1399 18.148C90.5239 18.148 90.8399 18.064 91.0879 17.896C91.3359 17.728 91.5199 17.5 91.6399 17.212H92.8399C92.7359 17.58 92.5599 17.912 92.3119 18.208C92.0639 18.496 91.7559 18.724 91.3879 18.892C91.0279 19.06 90.6119 19.144 90.1399 19.144Z" fill="black"/>
<defs>
<clipPath id="clip0_6_3908">
<rect width="24" height="24" fill="white" transform="translate(0.00390625 3.59961)"/>
</clipPath>
</defs>
</svg>
