<svg width="12" height="18" viewBox="0 0 12 18" fill="none" xmlns="http://www.w3.org/2000/svg">
<path d="M6.0013 8.58341C5.44877 8.58341 4.91886 8.36392 4.52816 7.97322C4.13746 7.58252 3.91797 7.05262 3.91797 6.50008C3.91797 5.94755 4.13746 5.41764 4.52816 5.02694C4.91886 4.63624 5.44877 4.41675 6.0013 4.41675C6.55384 4.41675 7.08374 4.63624 7.47444 5.02694C7.86514 5.41764 8.08464 5.94755 8.08464 6.50008C8.08464 6.77367 8.03075 7.04458 7.92605 7.29734C7.82135 7.5501 7.6679 7.77977 7.47444 7.97322C7.28099 8.16668 7.05132 8.32013 6.79856 8.42483C6.5458 8.52953 6.27489 8.58341 6.0013 8.58341ZM6.0013 0.666748C4.45421 0.666748 2.97047 1.28133 1.87651 2.37529C0.78255 3.46925 0.167969 4.95299 0.167969 6.50008C0.167969 10.8751 6.0013 17.3334 6.0013 17.3334C6.0013 17.3334 11.8346 10.8751 11.8346 6.50008C11.8346 4.95299 11.2201 3.46925 10.1261 2.37529C9.03213 1.28133 7.5484 0.666748 6.0013 0.666748Z" fill="#AEACAC"/>
</svg>
