<svg width="140" height="85" viewBox="0 0 140 85" fill="none" xmlns="http://www.w3.org/2000/svg">
<g filter="url(#filter0_d_6_1012)">
<rect x="10" y="9.28284" width="122" height="49" rx="15" transform="rotate(-4.36378 10 9.28284)" fill="#27B10C"/>
<path d="M51.9524 22.3286C53.7551 22.191 55.3368 22.4153 56.6973 23.0015C58.0738 23.5864 59.1697 24.4897 59.985 25.7112C60.8151 26.9155 61.2958 28.3792 61.4273 30.1022C61.5576 31.8092 61.3033 33.3129 60.6644 34.6133C60.0414 35.9125 59.0934 36.9476 57.8204 37.7187C56.5633 38.4886 55.0334 38.9423 53.2307 39.0799L47.2481 39.5364L45.9698 22.7851L51.9524 22.3286ZM53.0499 36.7108C54.9643 36.5647 56.3925 35.9342 57.3344 34.8193C58.291 33.6872 58.6981 32.1879 58.5557 30.3213C58.412 28.4388 57.7803 26.9947 56.6605 25.9889C55.5567 24.982 54.0476 24.5516 52.1332 24.6977L48.9983 24.9369L49.915 36.95L53.0499 36.7108ZM71.7162 37.6692L71.3655 36.2277C71.0215 36.7675 70.5967 37.193 70.0909 37.5044C69.5851 37.8158 68.8935 38.005 68.0161 38.0719C67.1865 38.1353 66.4582 38.0544 65.8313 37.8295C65.2032 37.5886 64.7027 37.2336 64.3299 36.7646C63.9719 36.2785 63.7673 35.7004 63.7162 35.0303C63.6395 34.0252 63.9425 33.1597 64.6252 32.4336C65.3227 31.6904 66.3833 31.1842 67.8069 30.9151L70.9162 30.3409L70.845 29.4076C70.8158 29.0247 70.6221 28.6945 70.264 28.4169C69.9046 28.1234 69.358 28.0047 68.6241 28.0607C67.986 28.1094 67.4398 28.3115 66.9855 28.6671C66.546 29.0055 66.2702 29.4919 66.1581 30.1263L63.7472 29.4437C63.97 28.3677 64.5055 27.5004 65.3539 26.842C66.2182 26.1823 67.2965 25.8031 68.5887 25.7045C70.1522 25.5852 71.3546 25.8866 72.196 26.6087C73.0374 27.3307 73.5043 28.298 73.5968 29.5105L74.2049 37.4793L71.7162 37.6692ZM71.0751 32.4228L68.2309 33.0009C67.6307 33.1269 67.1894 33.3371 66.907 33.6315C66.6234 33.9098 66.4968 34.2485 66.5272 34.6473C66.5552 35.0142 66.7231 35.3224 67.031 35.5717C67.3536 35.8038 67.7701 35.9004 68.2807 35.8614C68.9348 35.8115 69.476 35.6498 69.9045 35.3764C70.3489 35.1018 70.6657 34.7327 70.855 34.2689C71.0602 33.804 71.1378 33.2444 71.0879 32.5903L71.0751 32.4228ZM76.6743 25.256L79.3784 25.0496L80.2915 37.0149L77.5874 37.2212L76.6743 25.256ZM77.8995 23.3332C77.405 23.3709 76.9774 23.2351 76.6168 22.9256C76.2562 22.6162 76.0583 22.2301 76.023 21.7674C75.9852 21.2729 76.1211 20.8453 76.4305 20.4847C76.74 20.1241 77.142 19.925 77.6366 19.8872C78.1152 19.8507 78.5348 19.9872 78.8954 20.2966C79.256 20.6061 79.4551 21.0081 79.4929 21.5027C79.5282 21.9653 79.3911 22.3769 79.0816 22.7375C78.7722 23.0981 78.3781 23.2967 77.8995 23.3332ZM82.55 19.5123L85.2541 19.3059L86.5689 36.5358L83.8648 36.7422L82.55 19.5123ZM97.0017 23.7048L99.8494 23.4875L94.0922 40.7757L91.412 40.9802L93.1749 35.6948L87.621 24.4207L90.6123 24.1924L94.4175 32.4227L97.0017 23.7048Z" fill="white"/>
</g>
<defs>
<filter id="filter0_d_6_1012" x="-1" y="0" width="141.375" height="85.1408" filterUnits="userSpaceOnUse" color-interpolation-filters="sRGB">
<feFlood flood-opacity="0" result="BackgroundImageFix"/>
<feColorMatrix in="SourceAlpha" type="matrix" values="0 0 0 0 0 0 0 0 0 0 0 0 0 0 0 0 0 0 127 0" result="hardAlpha"/>
<feMorphology radius="13" operator="erode" in="SourceAlpha" result="effect1_dropShadow_6_1012"/>
<feOffset dx="-3" dy="19"/>
<feGaussianBlur stdDeviation="10.5"/>
<feComposite in2="hardAlpha" operator="out"/>
<feColorMatrix type="matrix" values="0 0 0 0 0.152941 0 0 0 0 0.694118 0 0 0 0 0.0470588 0 0 0 1 0"/>
<feBlend mode="normal" in2="BackgroundImageFix" result="effect1_dropShadow_6_1012"/>
<feBlend mode="normal" in="SourceGraphic" in2="effect1_dropShadow_6_1012" result="shape"/>
</filter>
</defs>
</svg>
