<svg width="149" height="89" viewBox="0 0 149 89" fill="none" xmlns="http://www.w3.org/2000/svg">
<g filter="url(#filter0_d_6_1010)">
<rect x="10.1514" width="132" height="56" rx="15" transform="rotate(5.27753 10.1514 0)" fill="#28ADFF"/>
<path d="M38.0492 20.6536L52.3284 21.9726L52.0552 24.93L41.3309 23.9394L40.7873 29.8243L48.8231 30.5666L48.5499 33.524L40.5141 32.7817L39.6725 41.8929L36.1176 41.5646L38.0492 20.6536ZM54.8508 28.2311L57.8979 28.5126L57.9956 30.3895C58.4399 29.9285 58.9457 29.5634 59.5128 29.2945C60.0818 29.0056 60.6805 28.8299 61.3089 28.7674C61.9572 28.7068 62.5927 28.7856 63.2152 29.0038L62.9283 32.1105C62.427 31.8835 61.8731 31.7921 61.2664 31.8365C60.6815 31.8628 60.1236 32.0322 59.5926 32.3447C59.0634 32.6373 58.6101 33.0875 58.2326 33.6954C57.8569 34.2833 57.6268 35.0353 57.5421 35.9514L56.8468 43.4794L53.4711 43.1676L54.8508 28.2311ZM71.1706 45.0134C69.677 44.8754 68.3929 44.4254 67.3185 43.6633C66.2639 42.9031 65.4723 41.9061 64.9435 40.6722C64.4347 39.4402 64.2511 38.0574 64.3927 36.524C64.527 35.0701 64.9553 33.8042 65.6775 32.726C66.3998 31.6479 67.3389 30.8308 68.4949 30.2748C69.651 29.7188 70.926 29.5051 72.3201 29.6339C73.7341 29.7645 74.9503 30.1882 75.9687 30.9049C76.9871 31.6216 77.7435 32.5652 78.2379 33.7356C78.7541 34.888 78.9451 36.1911 78.8108 37.6449C78.7887 37.8839 78.7548 38.1418 78.7091 38.4188C78.6653 38.6759 78.6097 38.9519 78.5423 39.247L67.9075 38.2646C67.9427 38.9709 68.1057 39.5985 68.3964 40.1476C68.7089 40.6786 69.1211 41.1083 69.6331 41.4368C70.145 41.7653 70.7495 41.9617 71.4466 42.0261C72.283 42.1034 73.0455 42.0031 73.7339 41.7252C74.4423 41.4492 74.9517 41.0443 75.2621 40.5106L78.1285 41.7696C77.4206 42.9093 76.447 43.7734 75.2077 44.3619C73.9701 44.9305 72.6244 45.1477 71.1706 45.0134ZM75.2413 36.1703C75.2784 35.5511 75.1606 34.9778 74.8879 34.4505C74.6153 33.9232 74.2329 33.4962 73.7409 33.1696C73.2507 32.823 72.687 32.6203 72.0497 32.5614C71.492 32.5099 70.9514 32.6006 70.4278 32.8334C69.9041 33.0662 69.4401 33.415 69.0356 33.8798C68.6529 34.3265 68.3814 34.8738 68.2211 35.5218L75.2413 36.1703ZM83.8678 41.1248C83.9557 41.6953 84.1551 42.1455 84.4661 42.4755C84.797 42.8074 85.166 43.0524 85.5732 43.2105C85.9822 43.3487 86.3759 43.4353 86.7543 43.4702C87.531 43.542 88.1522 43.4487 88.618 43.1905C89.1054 42.9141 89.3713 42.537 89.4154 42.059C89.4522 41.6607 89.3313 41.3382 89.0529 41.0916C88.7744 40.8449 88.4017 40.6397 87.9347 40.4761C87.4896 40.2944 87.0245 40.1108 86.5395 39.9254C86.0146 39.7364 85.4518 39.5237 84.851 39.2874C84.2701 39.053 83.7255 38.7516 83.2172 38.3833C82.7089 38.015 82.3085 37.5663 82.016 37.0371C81.7234 36.508 81.6111 35.875 81.6792 35.1381C81.7657 34.2021 82.0991 33.4194 82.6794 32.7901C83.2616 32.1409 84.0182 31.6685 84.9494 31.3729C85.8805 31.0773 86.9037 30.981 88.019 31.084C89.3533 31.2073 90.4826 31.5928 91.407 32.2406C92.3313 32.8883 92.9629 33.7702 93.3017 34.8861L90.2559 35.5688C90.1423 35.2771 89.9553 35.0188 89.6948 34.7939C89.4543 34.5708 89.1486 34.402 88.7775 34.2874C88.4283 34.1547 88.0644 34.0709 87.686 34.0359C87.0488 33.9771 86.4991 34.0568 86.037 34.2753C85.575 34.4937 85.3219 34.8419 85.2777 35.3199C85.2557 35.5588 85.306 35.7744 85.4289 35.9665C85.5717 36.1605 85.767 36.3291 86.0148 36.4725C86.2645 36.596 86.564 36.7241 86.9133 36.8568C87.2644 36.9696 87.6336 37.1041 88.0209 37.2604C88.6416 37.4985 89.2505 37.7556 89.8477 38.0317C90.4666 38.2897 91.0202 38.602 91.5086 38.9684C92.0168 39.3367 92.3964 39.7936 92.6473 40.339C92.9181 40.8862 93.0367 41.56 93.0029 42.3603C92.9238 43.2166 92.6022 43.9803 92.0381 44.6512C91.4758 45.3023 90.7074 45.7937 89.7327 46.1254C88.7798 46.4391 87.6661 46.5371 86.3915 46.4194C84.9178 46.2832 83.6826 45.8478 82.686 45.113C81.6893 44.3782 81.0671 43.2863 80.8194 41.8374L83.8678 41.1248ZM97.7583 25.5665L101.134 25.8783L100.4 33.8245C100.922 33.3906 101.545 33.0665 102.267 32.8521C102.992 32.6177 103.782 32.5401 104.639 32.6192C105.754 32.7223 106.707 33.0613 107.497 33.6365C108.31 34.1935 108.9 34.9712 109.27 35.9694C109.662 36.9496 109.792 38.1467 109.662 39.5607L108.856 48.2835L105.361 47.9607L106.125 39.6859C106.241 38.4312 106.069 37.4614 105.611 36.7762C105.172 36.093 104.444 35.7044 103.428 35.6106C102.393 35.5149 101.576 35.7709 100.977 36.3784C100.379 36.9859 100.022 37.917 99.906 39.1717L99.1472 47.3867L95.7715 47.0749L97.7583 25.5665Z" fill="white"/>
</g>
<defs>
<filter id="filter0_d_6_1010" x="-1" y="0" width="150.592" height="89.904" filterUnits="userSpaceOnUse" color-interpolation-filters="sRGB">
<feFlood flood-opacity="0" result="BackgroundImageFix"/>
<feColorMatrix in="SourceAlpha" type="matrix" values="0 0 0 0 0 0 0 0 0 0 0 0 0 0 0 0 0 0 127 0" result="hardAlpha"/>
<feMorphology radius="11" operator="erode" in="SourceAlpha" result="effect1_dropShadow_6_1010"/>
<feOffset dx="1" dy="15"/>
<feGaussianBlur stdDeviation="9"/>
<feComposite in2="hardAlpha" operator="out"/>
<feColorMatrix type="matrix" values="0 0 0 0 0.156863 0 0 0 0 0.678431 0 0 0 0 1 0 0 0 0.9 0"/>
<feBlend mode="normal" in2="BackgroundImageFix" result="effect1_dropShadow_6_1010"/>
<feBlend mode="normal" in="SourceGraphic" in2="effect1_dropShadow_6_1010" result="shape"/>
</filter>
</defs>
</svg>
