<svg width="153" height="86" viewBox="0 0 153 86" fill="none" xmlns="http://www.w3.org/2000/svg">
<g filter="url(#filter0_d_6_997)">
<rect x="6" y="8.72104" width="136" height="56" rx="15" transform="rotate(-3.67663 6 8.72104)" fill="#2853FF"/>
<path d="M36.1628 39.7607L39.6356 39.5376L40.2166 48.5789L36.7438 48.8021L36.1628 39.7607ZM38.2433 45.94C36.7664 46.035 35.3626 45.8646 34.0319 45.4291C32.7012 44.9935 31.5168 44.3381 30.4785 43.4629C29.4589 42.5664 28.628 41.4875 27.9858 40.2261C27.3623 38.9434 26.9998 37.5137 26.8985 35.9369C26.7985 34.3802 26.9762 32.9358 27.4318 31.6038C27.906 30.2506 28.5913 29.0643 29.4878 28.0447C30.4042 27.0238 31.4944 26.2122 32.7584 25.6099C34.0223 25.0076 35.3928 24.659 36.8698 24.5641C38.3467 24.4692 39.7405 24.6402 41.0513 25.077C42.3819 25.5126 43.5571 26.1786 44.5766 27.0751C45.6162 27.9703 46.4477 29.0592 47.0713 30.3419C47.7135 31.6033 48.0846 33.0124 48.1846 34.5692C48.2859 36.1459 48.0995 37.6109 47.6253 38.9641C47.1698 40.296 46.4838 41.4724 45.5674 42.4933C44.6696 43.4929 43.5888 44.2939 42.3248 44.8962C41.0808 45.4972 39.7203 45.8451 38.2433 45.94ZM38.049 42.9163C39.4062 42.8291 40.5939 42.4421 41.6119 41.7554C42.6287 41.0488 43.3999 40.1074 43.9256 38.9312C44.45 37.7352 44.6621 36.3587 44.5621 34.8019C44.4608 33.2252 44.0742 31.8872 43.4023 30.788C42.7305 29.6889 41.8457 28.8639 40.7482 28.3131C39.6493 27.7424 38.4213 27.5007 37.0641 27.5879C35.7069 27.6751 34.5199 28.072 33.5031 28.7787C32.485 29.4654 31.7032 30.3974 31.1576 31.5749C30.6319 32.751 30.4197 34.1274 30.5211 35.7042C30.6211 37.261 31.0077 38.5989 31.6808 39.7181C32.3727 40.816 33.268 41.6503 34.3669 42.221C35.4644 42.7717 36.6918 43.0035 38.049 42.9163ZM64.7605 44.0257L61.647 44.2258L61.3412 42.7423C60.8769 43.3133 60.305 43.7709 59.6257 44.1151C58.9464 44.4594 58.2175 44.6566 57.4391 44.7066C56.2616 44.7822 55.2283 44.6081 54.3393 44.1843C53.4689 43.7392 52.7741 43.0623 52.2548 42.1538C51.7341 41.2252 51.429 40.0624 51.3392 38.6653L50.7755 29.8934L54.1585 29.676L54.6933 37.9988C54.7729 39.2363 55.0833 40.1683 55.6246 40.7949C56.1646 41.4015 56.9535 41.6715 57.9914 41.6048C58.9893 41.5407 59.7472 41.1713 60.265 40.4967C60.8015 39.8009 61.0287 38.8143 60.9466 37.5369L60.4156 29.2739L63.7987 29.0566L64.7605 44.0257ZM77.6211 43.1993L77.2044 41.3923C76.7664 42.0618 76.229 42.5873 75.5922 42.9689C74.9553 43.3506 74.088 43.5766 72.9903 43.6472C71.9525 43.7139 71.0434 43.6019 70.2632 43.3114C69.4816 43.0008 68.8614 42.5497 68.4025 41.9579C67.9623 41.3449 67.7153 40.6192 67.6614 39.7809C67.5806 38.5235 67.9723 37.4462 68.8366 36.5489C69.7195 35.6304 71.0527 35.0137 72.8362 34.6986L76.7311 34.0275L76.6561 32.8599C76.6253 32.3809 76.3882 31.9652 75.9447 31.613C75.4999 31.2407 74.8185 31.0841 73.9004 31.1431C73.102 31.1944 72.4163 31.4389 71.8432 31.8765C71.2887 32.2929 70.9367 32.8967 70.7871 33.688L67.7839 32.7987C68.0785 31.4571 68.7609 30.3811 69.8312 29.5708C70.9214 28.7592 72.2748 28.3015 73.8915 28.1976C75.8474 28.0719 77.3458 28.4666 78.3866 29.3818C79.4275 30.2969 79.9966 31.5129 80.0941 33.0298L80.7347 42.9992L77.6211 43.1993ZM76.8985 36.6321L73.3348 37.312C72.5828 37.4606 72.028 37.7167 71.6706 38.0803C71.3119 38.424 71.1486 38.8454 71.1807 39.3444C71.2102 39.8034 71.4154 40.191 71.7965 40.5073C72.1962 40.8022 72.7155 40.9292 73.3541 40.8882C74.1725 40.8356 74.8514 40.6416 75.391 40.3063C75.9506 39.9698 76.3521 39.5131 76.5956 38.9363C76.8591 38.3582 76.9646 37.66 76.912 36.8417L76.8985 36.6321ZM83.1022 21.2025L86.4852 20.9852L87.8703 42.5407L84.4873 42.7581L83.1022 21.2025ZM91.3428 27.2866L94.7258 27.0693L95.6877 42.0384L92.3047 42.2558L91.3428 27.2866ZM92.9031 24.9017C92.2843 24.9414 91.7519 24.7652 91.3059 24.373C90.8598 23.9808 90.6182 23.4953 90.581 22.9165C90.5412 22.2978 90.7174 21.7654 91.1097 21.3193C91.5019 20.8732 92.0073 20.6303 92.626 20.5906C93.2248 20.5521 93.7472 20.729 94.1933 21.1212C94.6394 21.5134 94.8823 22.0188 94.922 22.6376C94.9592 23.2164 94.7817 23.7288 94.3895 24.1749C93.9973 24.6209 93.5018 24.8632 92.9031 24.9017ZM100.154 26.7204L99.8849 22.5291L103.328 22.3079L103.597 26.4992L107.1 26.2741L107.29 29.238L103.788 29.4631L104.215 36.1094C104.272 37.0075 104.482 37.6253 104.845 37.9628C105.206 38.2803 105.657 38.4417 106.199 38.447C106.759 38.431 107.316 38.3652 107.869 38.2494L108.054 41.1235C107.207 41.3583 106.362 41.4627 105.519 41.4367C104.697 41.4294 103.944 41.2573 103.261 40.9204C102.577 40.5636 102.011 40.0188 101.563 39.286C101.115 38.5532 100.851 37.5681 100.772 36.3306L100.345 29.6843L98.249 29.819L98.0585 26.8551L100.154 26.7204ZM120.253 25.429L123.815 25.2L116.36 46.7224L113.007 46.9379L115.29 40.3579L108.517 26.1831L112.259 25.9426L116.892 36.2868L120.253 25.429Z" fill="white"/>
</g>
<defs>
<filter id="filter0_d_6_997" x="0" y="0" width="153.312" height="86.6058" filterUnits="userSpaceOnUse" color-interpolation-filters="sRGB">
<feFlood flood-opacity="0" result="BackgroundImageFix"/>
<feColorMatrix in="SourceAlpha" type="matrix" values="0 0 0 0 0 0 0 0 0 0 0 0 0 0 0 0 0 0 127 0" result="hardAlpha"/>
<feMorphology radius="11" operator="erode" in="SourceAlpha" result="effect1_dropShadow_6_997"/>
<feOffset dx="1" dy="15"/>
<feGaussianBlur stdDeviation="9"/>
<feComposite in2="hardAlpha" operator="out"/>
<feColorMatrix type="matrix" values="0 0 0 0 0.383333 0 0 0 0 0.506667 0 0 0 0 1 0 0 0 0.9 0"/>
<feBlend mode="normal" in2="BackgroundImageFix" result="effect1_dropShadow_6_997"/>
<feBlend mode="normal" in="SourceGraphic" in2="effect1_dropShadow_6_997" result="shape"/>
</filter>
</defs>
</svg>
