<svg width="106" height="87" viewBox="0 0 106 87" fill="none" xmlns="http://www.w3.org/2000/svg">
<g filter="url(#filter0_d_6_999)">
<rect x="16.5146" width="87" height="49" rx="15" transform="rotate(8.82174 16.5146 0)" fill="#FF8215"/>
<path d="M47.3985 21.187L50.5528 21.6766L42.6902 31.337L41.7627 37.3135L38.9642 36.8792L39.8881 30.9264L35.3508 19.3173L38.4813 19.8031L41.6885 28.5586L47.3985 21.187ZM55.4082 39.6012C54.2698 39.4246 53.288 39.0212 52.4629 38.3912C51.6402 37.7454 51.0458 36.9327 50.6797 35.9529C50.3161 34.9574 50.23 33.843 50.4214 32.6098C50.6152 31.3607 51.0442 30.3182 51.7083 29.4821C52.3723 28.6461 53.2009 28.0541 54.194 27.7063C55.1895 27.3427 56.2486 27.248 57.3712 27.4222C58.5095 27.5989 59.4901 28.0101 60.3128 28.6559C61.1537 29.2884 61.7718 30.1048 62.1671 31.1053C62.5648 32.0899 62.6679 33.1989 62.4765 34.4321C62.2827 35.6811 61.8379 36.7212 61.1422 37.5524C60.4623 38.386 59.6167 38.9834 58.6053 39.3445C57.6123 39.6923 56.5465 39.7779 55.4082 39.6012ZM55.7562 37.2022C56.3096 37.2881 56.8522 37.2347 57.384 37.042C57.9317 36.8517 58.4053 36.5123 58.805 36.0239C59.2071 35.5196 59.4744 34.8405 59.6069 33.9867C59.7345 33.1646 59.6898 32.4614 59.4728 31.8772C59.2583 31.2772 58.9268 30.8048 58.4784 30.46C58.03 30.1151 57.5212 29.8985 56.952 29.8102C56.3986 29.7243 55.8639 29.7789 55.3479 29.9741C54.8476 30.1717 54.4123 30.5251 54.0418 31.0344C53.6738 31.5278 53.4235 32.2013 53.291 33.0551C53.1634 33.8773 53.1911 34.5859 53.374 35.181C53.5752 35.7627 53.8841 36.2236 54.3009 36.5635C54.7177 36.9034 55.2028 37.1164 55.7562 37.2022ZM74.215 42.35L71.7486 41.9672L71.7666 40.7556C71.3051 41.1212 70.7792 41.3796 70.189 41.5309C69.5988 41.6822 68.9954 41.7099 68.3788 41.6142C67.446 41.4695 66.6691 41.1546 66.0481 40.6696C65.4454 40.1713 65.0199 39.5224 64.7716 38.7228C64.5257 37.9075 64.4887 36.9464 64.6604 35.8397L65.7389 28.8909L68.4188 29.3068L67.3956 35.8999C67.2434 36.8801 67.3245 37.6618 67.6388 38.2449C67.9555 38.8122 68.525 39.1596 69.3471 39.2872C70.1377 39.4099 70.7936 39.2526 71.3148 38.8154C71.8543 38.3648 72.2025 37.6336 72.3596 36.6217L73.3754 30.076L76.0554 30.492L74.215 42.35Z" fill="white"/>
</g>
<defs>
<filter id="filter0_d_6_999" x="-2" y="0" width="109.485" height="88.7627" filterUnits="userSpaceOnUse" color-interpolation-filters="sRGB">
<feFlood flood-opacity="0" result="BackgroundImageFix"/>
<feColorMatrix in="SourceAlpha" type="matrix" values="0 0 0 0 0 0 0 0 0 0 0 0 0 0 0 0 0 0 127 0" result="hardAlpha"/>
<feMorphology radius="13" operator="erode" in="SourceAlpha" result="effect1_dropShadow_6_999"/>
<feOffset dx="-3" dy="19"/>
<feGaussianBlur stdDeviation="10.5"/>
<feComposite in2="hardAlpha" operator="out"/>
<feColorMatrix type="matrix" values="0 0 0 0 1 0 0 0 0 0.623843 0 0 0 0 0.295833 0 0 0 1 0"/>
<feBlend mode="normal" in2="BackgroundImageFix" result="effect1_dropShadow_6_999"/>
<feBlend mode="normal" in="SourceGraphic" in2="effect1_dropShadow_6_999" result="shape"/>
</filter>
</defs>
</svg>
