<svg width="20" height="20" viewBox="0 0 20 20" fill="none" xmlns="http://www.w3.org/2000/svg">
<rect width="20" height="20" fill="white"/>
<path fill-rule="evenodd" clip-rule="evenodd" d="M9.99935 3.33329C6.31745 3.33329 3.33268 6.31806 3.33268 9.99996C3.33268 13.6819 6.31745 16.6666 9.99935 16.6666C13.6812 16.6666 16.666 13.6819 16.666 9.99996C16.666 6.31806 13.6812 3.33329 9.99935 3.33329ZM1.66602 9.99996C1.66602 5.39759 5.39698 1.66663 9.99935 1.66663C14.6017 1.66663 18.3327 5.39759 18.3327 9.99996C18.3327 14.6023 14.6017 18.3333 9.99935 18.3333C5.39698 18.3333 1.66602 14.6023 1.66602 9.99996ZM10.5886 6.9107C10.914 7.23614 10.914 7.76378 10.5886 8.08921L9.51119 9.16663H12.4993C12.9596 9.16663 13.3327 9.53972 13.3327 9.99996C13.3327 10.4602 12.9596 10.8333 12.4993 10.8333H9.51119L10.5886 11.9107C10.914 12.2361 10.914 12.7638 10.5886 13.0892C10.2632 13.4147 9.73553 13.4147 9.41009 13.0892L6.91009 10.5892C6.58466 10.2638 6.58466 9.73614 6.91009 9.4107L9.41009 6.9107C9.73553 6.58527 10.2632 6.58527 10.5886 6.9107Z" fill="#CCCCCC"/>
</svg>
