<svg width="16" height="17" viewBox="0 0 16 17" fill="none" xmlns="http://www.w3.org/2000/svg">
<path d="M7.99935 15.1667C11.6812 15.1667 14.666 12.1819 14.666 8.50004C14.666 4.81814 11.6812 1.83337 7.99935 1.83337C5.01423 1.83337 2.51552 3.7953 1.66602 6.50004H3.33268" stroke="#1B4C31" stroke-linecap="round" stroke-linejoin="round"/>
<path d="M8 5.83337V8.50004L9.33333 9.83337" stroke="#1B4C31" stroke-linecap="round" stroke-linejoin="round"/>
<path d="M1.33398 8.5C1.33398 8.72487 1.34412 8.94727 1.36394 9.16667M6.00065 15.1667C5.77292 15.0917 5.55046 15.0043 5.33398 14.9052M2.14024 11.8333C2.01168 11.5856 1.897 11.3289 1.7973 11.0641M3.22146 13.371C3.42525 13.5905 3.64269 13.7961 3.87235 13.9861" stroke="#1B4C31" stroke-linecap="round" stroke-linejoin="round"/>
</svg>
