<svg width="24" height="25" viewBox="0 0 24 25" fill="none" xmlns="http://www.w3.org/2000/svg">
<rect y="0.5" width="24" height="24" rx="12" fill="#5C3FFF"/>
<path d="M13.6606 10.6817L13.4509 16.1363M10.5491 16.1363L10.3394 10.6817M16.3806 8.73629C16.5879 8.7678 16.7939 8.80113 17 8.83689M16.3806 8.73629L15.7333 17.1502C15.7069 17.4928 15.5522 17.8127 15.3 18.0461C15.0479 18.2795 14.7169 18.4091 14.3733 18.409H9.62667C9.28309 18.4091 8.95214 18.2795 8.69999 18.0461C8.44784 17.8127 8.29308 17.4928 8.26667 17.1502L7.61939 8.73629M16.3806 8.73629C15.6811 8.63054 14.978 8.55028 14.2727 8.49568M7.61939 8.73629C7.41212 8.76719 7.20606 8.80053 7 8.83629M7.61939 8.73629C8.31887 8.63054 9.02196 8.55028 9.72727 8.49568M14.2727 8.49568V7.94053C14.2727 7.22538 13.7212 6.62901 13.0061 6.60659C12.3355 6.58516 11.6645 6.58516 10.9939 6.60659C10.2788 6.62901 9.72727 7.22598 9.72727 7.94053V8.49568M14.2727 8.49568C12.7598 8.37876 11.2402 8.37876 9.72727 8.49568" stroke="white" stroke-linecap="round" stroke-linejoin="round"/>
</svg>
