<svg width="153" height="29" viewBox="0 0 153 29" fill="none" xmlns="http://www.w3.org/2000/svg">
<path d="M4.32 17.12V11.56H15.52V17.12H4.32ZM4.2 6.32L6.24 3.96V24.8L4 22.44H17.72V28H0.4V0.759998H17.72V6.32H4.2ZM33.0463 19.28H20.5263V13.96H33.0463V19.28ZM45.9719 28.68C44.3985 28.68 42.9185 28.4533 41.5319 28C40.1719 27.52 38.9452 26.8133 37.8519 25.88C36.7852 24.92 35.8785 23.6933 35.1319 22.2L39.6919 19.36C40.4652 20.64 41.4119 21.6133 42.5319 22.28C43.6519 22.9467 44.9052 23.28 46.2919 23.28C47.4919 23.28 48.3985 23.0267 49.0119 22.52C49.6252 22.0133 49.9319 21.3467 49.9319 20.52C49.9319 19.9867 49.7852 19.5333 49.4919 19.16C49.2252 18.76 48.7319 18.3867 48.0119 18.04C47.2919 17.6933 46.2519 17.36 44.8919 17.04C42.6785 16.5067 40.9185 15.84 39.6119 15.04C38.3319 14.24 37.4252 13.2933 36.8919 12.2C36.3585 11.08 36.0919 9.84 36.0919 8.48C36.0919 6.88 36.4785 5.46667 37.2519 4.24C38.0519 2.98667 39.1852 2 40.6519 1.28C42.1185 0.559998 43.8652 0.199998 45.8919 0.199998C48.1852 0.199998 50.1185 0.653332 51.6919 1.56C53.2919 2.46667 54.5719 3.65333 55.5319 5.12L50.9719 8.28C50.2785 7.37333 49.4385 6.72 48.4519 6.32C47.4919 5.92 46.5319 5.72 45.5719 5.72C44.4252 5.72 43.5319 5.94667 42.8919 6.4C42.2785 6.82667 41.9719 7.44 41.9719 8.24C41.9719 8.98667 42.2919 9.61333 42.9319 10.12C43.5719 10.6 44.8252 11.0533 46.6919 11.48C48.9319 12.0133 50.7319 12.6667 52.0919 13.44C53.4519 14.2133 54.4385 15.16 55.0519 16.28C55.6652 17.4 55.9719 18.7467 55.9719 20.32C55.9719 21.92 55.5585 23.3467 54.7319 24.6C53.9319 25.8533 52.7852 26.8533 51.2919 27.6C49.7985 28.32 48.0252 28.68 45.9719 28.68ZM65.1509 28V3.52H71.0309V28H65.1509ZM57.0709 6.4V0.759998H79.2709V6.4H57.0709ZM79.5431 14.4C79.5431 12.3467 79.8765 10.4667 80.5431 8.76C81.2365 7.02667 82.2098 5.53333 83.4631 4.28C84.7165 3 86.1965 2.01333 87.9031 1.32C89.6098 0.626665 91.5031 0.279999 93.5831 0.279999C95.6098 0.279999 97.4765 0.626665 99.1831 1.32C100.916 2.01333 102.41 3 103.663 4.28C104.916 5.53333 105.876 7.02667 106.543 8.76C107.236 10.4667 107.583 12.3467 107.583 14.4C107.583 16.4533 107.236 18.3467 106.543 20.08C105.876 21.7867 104.916 23.28 103.663 24.56C102.41 25.8133 100.916 26.7867 99.1831 27.48C97.4765 28.1467 95.6098 28.48 93.5831 28.48C91.5031 28.48 89.6098 28.1467 87.9031 27.48C86.1965 26.7867 84.7165 25.8133 83.4631 24.56C82.2098 23.28 81.2365 21.7867 80.5431 20.08C79.8765 18.3467 79.5431 16.4533 79.5431 14.4ZM85.5031 14.4C85.5031 16.08 85.8498 17.5467 86.5431 18.8C87.2365 20.0533 88.1831 21.0267 89.3831 21.72C90.6098 22.4133 92.0098 22.76 93.5831 22.76C95.1298 22.76 96.5031 22.4133 97.7031 21.72C98.9298 21.0267 99.8898 20.0533 100.583 18.8C101.276 17.5467 101.623 16.0667 101.623 14.36C101.623 12.68 101.276 11.2133 100.583 9.96C99.8898 8.70667 98.9298 7.74667 97.7031 7.08C96.5031 6.38667 95.1298 6.04 93.5831 6.04C92.0098 6.04 90.6098 6.38667 89.3831 7.08C88.1831 7.77333 87.2365 8.74667 86.5431 10C85.8498 11.2267 85.5031 12.6933 85.5031 14.4ZM110.791 28V0.759998H120.831C122.777 0.759998 124.511 1.14667 126.031 1.92C127.577 2.69333 128.791 3.78667 129.671 5.2C130.577 6.61333 131.031 8.29333 131.031 10.24C131.031 12.2133 130.577 13.9067 129.671 15.32C128.791 16.7333 127.577 17.8267 126.031 18.6C124.511 19.3467 122.777 19.72 120.831 19.72H115.351V14.08H120.391C121.857 14.08 122.991 13.76 123.791 13.12C124.617 12.4533 125.031 11.4933 125.031 10.24C125.031 8.98667 124.617 8.04 123.791 7.4C122.991 6.73333 121.857 6.4 120.391 6.4H115.311L116.631 5.08V28H110.791ZM124.911 28L119.111 16.92H125.511L131.311 28H124.911ZM138.695 17.12V11.56H149.895V17.12H138.695ZM138.575 6.32L140.615 3.96V24.8L138.375 22.44H152.095V28H134.775V0.759998H152.095V6.32H138.575Z" fill="url(#paint0_linear_6_3650)"/>
<defs>
<linearGradient id="paint0_linear_6_3650" x1="76.5379" y1="-11.5" x2="76.5379" y2="82.5" gradientUnits="userSpaceOnUse">
<stop stop-color="#FF00E6"/>
<stop offset="1" stop-color="#5A32A4"/>
</linearGradient>
</defs>
</svg>
