<svg width="57" height="25" viewBox="0 0 57 25" fill="none" xmlns="http://www.w3.org/2000/svg">
<rect width="57" height="25" rx="12.5" fill="white"/>
<path d="M10.75 16V9H15.01V9.69H11.59V12.15H14.5V12.83H11.59V16H10.75ZM16.1316 16V10.96H16.9716V16H16.1316ZM16.5516 9.89C16.3849 9.89 16.2449 9.83667 16.1316 9.73C16.0249 9.61667 15.9716 9.47667 15.9716 9.31C15.9716 9.14333 16.0249 9.01 16.1316 8.91C16.2449 8.80333 16.3849 8.75 16.5516 8.75C16.7116 8.75 16.8482 8.80333 16.9616 8.91C17.0749 9.01 17.1316 9.14333 17.1316 9.31C17.1316 9.47667 17.0749 9.61667 16.9616 9.73C16.8482 9.83667 16.7116 9.89 16.5516 9.89ZM18.4539 16V8.8H19.2939V16H18.4539ZM22.6605 16C22.3605 16 22.1005 15.9533 21.8805 15.86C21.6605 15.7667 21.4905 15.61 21.3705 15.39C21.2571 15.1633 21.2005 14.86 21.2005 14.48V11.67H20.3205V10.96H21.2005L21.3105 9.74H22.0405V10.96H23.5005V11.67H22.0405V14.48C22.0405 14.7933 22.1038 15.0067 22.2305 15.12C22.3571 15.2267 22.5805 15.28 22.9005 15.28H23.4405V16H22.6605ZM26.6698 16.12C26.1964 16.12 25.7764 16.01 25.4098 15.79C25.0498 15.57 24.7664 15.2633 24.5598 14.87C24.3531 14.47 24.2498 14.0067 24.2498 13.48C24.2498 12.9467 24.3498 12.4833 24.5498 12.09C24.7564 11.6967 25.0431 11.39 25.4098 11.17C25.7831 10.95 26.2098 10.84 26.6898 10.84C27.1831 10.84 27.5998 10.95 27.9398 11.17C28.2864 11.39 28.5498 11.68 28.7298 12.04C28.9164 12.3933 29.0098 12.7833 29.0098 13.21C29.0098 13.2767 29.0098 13.3467 29.0098 13.42C29.0098 13.4933 29.0064 13.5767 28.9998 13.67H24.8798V13.02H28.1898C28.1698 12.56 28.0164 12.2 27.7298 11.94C27.4498 11.68 27.0964 11.55 26.6698 11.55C26.3831 11.55 26.1164 11.6167 25.8698 11.75C25.6298 11.8767 25.4364 12.0667 25.2898 12.32C25.1431 12.5667 25.0698 12.8767 25.0698 13.25V13.53C25.0698 13.9433 25.1431 14.29 25.2898 14.57C25.4431 14.85 25.6398 15.06 25.8798 15.2C26.1264 15.34 26.3898 15.41 26.6698 15.41C27.0231 15.41 27.3131 15.3333 27.5398 15.18C27.7731 15.02 27.9398 14.8067 28.0398 14.54H28.8698C28.7898 14.84 28.6498 15.11 28.4498 15.35C28.2498 15.59 27.9998 15.78 27.6998 15.92C27.4064 16.0533 27.0631 16.12 26.6698 16.12ZM30.1434 16V10.96H30.9034L30.9634 11.92C31.0767 11.6933 31.22 11.5 31.3934 11.34C31.5734 11.18 31.7867 11.0567 32.0334 10.97C32.2867 10.8833 32.5734 10.84 32.8934 10.84V11.72H32.5834C32.37 11.72 32.1667 11.75 31.9734 11.81C31.78 11.8633 31.6067 11.9533 31.4534 12.08C31.3067 12.2067 31.19 12.38 31.1034 12.6C31.0234 12.8133 30.9834 13.08 30.9834 13.4V16H30.1434Z" fill="black"/>
<path d="M41.8203 9.0612L44.9074 12.1483C45.272 12.5129 45.272 13.1095 44.9074 13.4741L41.8203 16.5612" stroke="#5C3FFF" stroke-miterlimit="10" stroke-linecap="round" stroke-linejoin="round"/>
</svg>
