<svg width="125" height="50" viewBox="0 0 125 50" fill="none" xmlns="http://www.w3.org/2000/svg">
<path d="M0 25C0 11.1929 11.1929 0 25 0H100C113.807 0 125 11.1929 125 25C125 38.8071 113.807 50 100 50H25C11.1929 50 0 38.8071 0 25Z" fill="#F8FAFC"/>
<path d="M31.5078 30C31.5078 31.1046 30.6124 32 29.5078 32C28.4032 32 27.5078 31.1046 27.5078 30C27.5078 28.8954 28.4032 28 29.5078 28C30.6124 28 31.5078 28.8954 31.5078 30Z" stroke="black" stroke-width="1.5"/>
<path d="M41.5078 30C41.5078 31.1046 40.6124 32 39.5078 32C38.4032 32 37.5078 31.1046 37.5078 30C37.5078 28.8954 38.4032 28 39.5078 28C40.6124 28 41.5078 28.8954 41.5078 30Z" stroke="black" stroke-width="1.5"/>
<path d="M24.5078 23H40.5079M24.5078 23C24.5078 23.78 24.4878 26.04 24.5118 28.26C24.5478 28.98 24.6677 29.58 27.5095 30M24.5078 23C24.7236 21.26 25.6629 19.2 26.1426 18.42M31.5078 23V18M37.498 30H31.5025M24.5238 18H34.7401C34.7401 18 35.2796 18 35.7593 18.048C36.6586 18.132 37.414 18.54 38.1694 19.56C38.9693 20.64 39.5844 22.008 40.3997 22.74C41.7547 23.9564 44.3327 23.58 44.4765 26.16C44.5125 27.48 44.5126 28.92 44.4527 29.16C44.3564 29.8667 43.8114 29.9821 43.1336 30C42.5453 30.0156 41.8363 29.9721 41.4909 30" stroke="#1E293B" stroke-width="1.5" stroke-linecap="round"/>
<path d="M62.802 24.37V27.324C62.802 27.5573 62.7507 27.7393 62.648 27.87C62.5453 27.9913 62.3913 28.108 62.186 28.22C61.934 28.36 61.5793 28.4767 61.122 28.57C60.6647 28.6727 60.2073 28.724 59.75 28.724C58.8727 28.724 58.0793 28.57 57.37 28.262C56.67 27.9447 56.1193 27.4593 55.718 26.806C55.3167 26.1433 55.116 25.2987 55.116 24.272C55.116 23.2827 55.3213 22.4567 55.732 21.794C56.1427 21.122 56.6933 20.618 57.384 20.282C58.0747 19.946 58.84 19.778 59.68 19.778C60.24 19.778 60.73 19.8387 61.15 19.96C61.57 20.072 61.892 20.2307 62.116 20.436C62.3493 20.632 62.466 20.8513 62.466 21.094C62.466 21.2807 62.4147 21.444 62.312 21.584C62.2187 21.724 62.102 21.8313 61.962 21.906C61.7193 21.7567 61.4207 21.612 61.066 21.472C60.7207 21.332 60.3007 21.262 59.806 21.262C59.2647 21.262 58.7793 21.3787 58.35 21.612C57.93 21.8453 57.5987 22.186 57.356 22.634C57.1133 23.082 56.992 23.6233 56.992 24.258C56.992 24.9393 57.1133 25.4993 57.356 25.938C57.5987 26.3767 57.93 26.7033 58.35 26.918C58.77 27.1327 59.246 27.24 59.778 27.24C60.0487 27.24 60.296 27.2167 60.52 27.17C60.744 27.114 60.9167 27.058 61.038 27.002V25.07H59.246C59.1993 24.986 59.1573 24.8833 59.12 24.762C59.0827 24.6407 59.064 24.5053 59.064 24.356C59.064 24.1133 59.12 23.9313 59.232 23.81C59.3533 23.6887 59.5073 23.628 59.694 23.628H62.046C62.2793 23.628 62.4613 23.6933 62.592 23.824C62.732 23.9547 62.802 24.1367 62.802 24.37ZM71.0802 25.182C71.0802 25.9007 70.9402 26.526 70.6602 27.058C70.3802 27.5807 69.9835 27.9867 69.4702 28.276C68.9568 28.5653 68.3502 28.71 67.6502 28.71C66.9595 28.71 66.3528 28.57 65.8302 28.29C65.3168 28.0007 64.9202 27.59 64.6402 27.058C64.3602 26.526 64.2202 25.9007 64.2202 25.182C64.2202 24.454 64.3602 23.8287 64.6402 23.306C64.9295 22.7833 65.3308 22.382 65.8442 22.102C66.3668 21.8127 66.9688 21.668 67.6502 21.668C68.3408 21.668 68.9428 21.8127 69.4562 22.102C69.9695 22.3913 70.3662 22.7973 70.6462 23.32C70.9355 23.8427 71.0802 24.4633 71.0802 25.182ZM67.6502 23.068C67.1555 23.068 66.7588 23.2547 66.4602 23.628C66.1708 24.0013 66.0262 24.5193 66.0262 25.182C66.0262 25.854 66.1662 26.3767 66.4462 26.75C66.7355 27.114 67.1368 27.296 67.6502 27.296C68.1635 27.296 68.5602 27.1093 68.8402 26.736C69.1295 26.3627 69.2742 25.8447 69.2742 25.182C69.2742 24.5193 69.1295 24.0013 68.8402 23.628C68.5508 23.2547 68.1542 23.068 67.6502 23.068ZM75.5253 21.962L77.1493 21.92C77.1866 22.284 77.2146 22.662 77.2333 23.054C77.2519 23.446 77.2659 23.8333 77.2753 24.216C77.2846 24.5987 77.2893 24.9627 77.2893 25.308V28.486C77.2146 28.5047 77.0979 28.528 76.9393 28.556C76.7899 28.584 76.6313 28.598 76.4633 28.598C76.1273 28.598 75.8846 28.5373 75.7353 28.416C75.5953 28.2853 75.5253 28.0707 75.5253 27.772V21.962ZM82.7493 26.512L81.1253 26.554C81.0506 25.8353 81.0086 25.14 80.9993 24.468C80.9899 23.7867 80.9853 23.1333 80.9853 22.508V19.988C81.0599 19.9693 81.1719 19.9507 81.3213 19.932C81.4799 19.904 81.6386 19.89 81.7973 19.89C82.1426 19.89 82.3853 19.9507 82.5253 20.072C82.6746 20.1933 82.7493 20.408 82.7493 20.716V26.512ZM82.7493 25.924V24.972V28.276C82.6466 28.3693 82.4973 28.444 82.3013 28.5C82.1146 28.5653 81.8906 28.598 81.6293 28.598C81.3493 28.598 81.0879 28.5513 80.8453 28.458C80.6119 28.3553 80.4113 28.15 80.2433 27.842L78.2553 24.216C78.1339 23.992 78.0126 23.7633 77.8913 23.53C77.7699 23.2873 77.6533 23.054 77.5413 22.83C77.4293 22.5967 77.3313 22.382 77.2473 22.186L75.5253 22.578V20.31C75.6279 20.1793 75.7819 20.0767 75.9873 20.002C76.1926 19.9273 76.4119 19.89 76.6453 19.89C76.9346 19.89 77.1959 19.9413 77.4293 20.044C77.6719 20.1467 77.8726 20.352 78.0313 20.66L80.0473 24.286C80.1686 24.5007 80.2853 24.7293 80.3973 24.972C80.5186 25.2053 80.6353 25.4387 80.7473 25.672C80.8593 25.896 80.9573 26.1107 81.0413 26.316L82.7493 25.924ZM91.2462 25.182C91.2462 25.9007 91.1062 26.526 90.8262 27.058C90.5462 27.5807 90.1495 27.9867 89.6362 28.276C89.1228 28.5653 88.5162 28.71 87.8162 28.71C87.1255 28.71 86.5188 28.57 85.9962 28.29C85.4828 28.0007 85.0862 27.59 84.8062 27.058C84.5262 26.526 84.3862 25.9007 84.3862 25.182C84.3862 24.454 84.5262 23.8287 84.8062 23.306C85.0955 22.7833 85.4968 22.382 86.0102 22.102C86.5328 21.8127 87.1348 21.668 87.8162 21.668C88.5068 21.668 89.1088 21.8127 89.6222 22.102C90.1355 22.3913 90.5322 22.7973 90.8122 23.32C91.1015 23.8427 91.2462 24.4633 91.2462 25.182ZM87.8162 23.068C87.3215 23.068 86.9248 23.2547 86.6262 23.628C86.3368 24.0013 86.1922 24.5193 86.1922 25.182C86.1922 25.854 86.3322 26.3767 86.6122 26.75C86.9015 27.114 87.3028 27.296 87.8162 27.296C88.3295 27.296 88.7262 27.1093 89.0062 26.736C89.2955 26.3627 89.4402 25.8447 89.4402 25.182C89.4402 24.5193 89.2955 24.0013 89.0062 23.628C88.7168 23.2547 88.3202 23.068 87.8162 23.068ZM97.1045 24.202C96.9738 24.706 96.8245 25.2193 96.6565 25.742C96.4978 26.2647 96.3438 26.7547 96.1945 27.212C96.0545 27.6693 95.9285 28.0473 95.8165 28.346C95.7232 28.4207 95.5925 28.4813 95.4245 28.528C95.2658 28.584 95.0652 28.612 94.8225 28.612C94.5612 28.612 94.3232 28.5747 94.1085 28.5C93.9032 28.416 93.7678 28.2947 93.7025 28.136C93.6092 27.9493 93.5065 27.6833 93.3945 27.338C93.2918 26.9927 93.1798 26.596 93.0585 26.148C92.9465 25.6907 92.8298 25.2193 92.7085 24.734C92.5965 24.2487 92.4938 23.782 92.4005 23.334C92.3072 22.8767 92.2278 22.466 92.1625 22.102C92.2558 22.0087 92.3818 21.9247 92.5405 21.85C92.7085 21.766 92.8952 21.724 93.1005 21.724C93.3525 21.724 93.5532 21.7847 93.7025 21.906C93.8518 22.0273 93.9498 22.2327 93.9965 22.522C94.0805 23.082 94.1645 23.6 94.2485 24.076C94.3418 24.552 94.4258 24.9813 94.5005 25.364C94.5752 25.7467 94.6405 26.0733 94.6965 26.344C94.7618 26.6147 94.8132 26.82 94.8505 26.96H94.9065C94.9625 26.7453 95.0558 26.4047 95.1865 25.938C95.3172 25.4713 95.4712 24.9393 95.6485 24.342C95.8258 23.7353 96.0032 23.1287 96.1805 22.522C96.3112 22.4473 96.4465 22.3913 96.5865 22.354C96.7358 22.3073 96.9085 22.284 97.1045 22.284C97.3565 22.284 97.5665 22.326 97.7345 22.41C97.9118 22.494 98.0285 22.62 98.0845 22.788C98.2712 23.376 98.4438 23.95 98.6025 24.51C98.7612 25.07 98.9012 25.5647 99.0225 25.994C99.1532 26.4233 99.2418 26.7453 99.2885 26.96H99.3585C99.5172 26.1853 99.6805 25.3687 99.8485 24.51C100.026 23.6513 100.175 22.7927 100.297 21.934C100.53 21.794 100.796 21.724 101.095 21.724C101.337 21.724 101.533 21.78 101.683 21.892C101.841 21.9947 101.921 22.1767 101.921 22.438C101.921 22.5593 101.893 22.7693 101.837 23.068C101.79 23.3573 101.72 23.6933 101.627 24.076C101.543 24.4587 101.445 24.8647 101.333 25.294C101.221 25.714 101.109 26.1247 100.997 26.526C100.885 26.918 100.777 27.2773 100.675 27.604C100.572 27.9213 100.483 28.1687 100.409 28.346C100.325 28.4207 100.185 28.4813 99.9885 28.528C99.7925 28.584 99.5825 28.612 99.3585 28.612C98.7705 28.612 98.4205 28.4673 98.3085 28.178C98.2152 27.898 98.0938 27.5433 97.9445 27.114C97.8045 26.6847 97.6598 26.218 97.5105 25.714C97.3612 25.2007 97.2258 24.6967 97.1045 24.202Z" fill="#475569"/>
</svg>
