<svg width="30" height="30" viewBox="0 0 30 30" fill="none" xmlns="http://www.w3.org/2000/svg">
<path d="M18 14.625V10.5C18 8.8425 16.6575 7.5 15 7.5C13.3425 7.5 12 8.8425 12 10.5V14.625C12 16.2825 13.3425 17.625 15 17.625C16.6575 17.625 18 16.2825 18 14.625Z" stroke="#666666" stroke-linecap="round" stroke-linejoin="round"/>
<path d="M13.957 10.8223C14.632 10.5748 15.367 10.5748 16.042 10.8223" stroke="#666666" stroke-linecap="round" stroke-linejoin="round"/>
<path d="M14.3994 12.4124C14.7969 12.3074 15.2094 12.3074 15.6069 12.4124" stroke="#666666" stroke-linecap="round" stroke-linejoin="round"/>
<path d="M9.26172 13.2378V14.5128C9.26172 17.6778 11.8342 20.2503 14.9992 20.2503C18.1642 20.2503 20.7367 17.6778 20.7367 14.5128V13.2378" stroke="#666666" stroke-linecap="round" stroke-linejoin="round"/>
<path d="M15 20.25V22.5" stroke="#666666" stroke-linecap="round" stroke-linejoin="round"/>
</svg>
