<svg width="36" height="36" viewBox="0 0 36 36" fill="none" xmlns="http://www.w3.org/2000/svg">
<rect x="0.5" y="0.5" width="35" height="35" rx="17.5" fill="white"/>
<rect x="0.5" y="0.5" width="35" height="35" rx="17.5" stroke="#5C3FFF"/>
<path d="M24.675 20.8167C23.65 20.8167 22.6583 20.65 21.7333 20.35C21.4417 20.25 21.1167 20.325 20.8917 20.55L19.5833 22.1917C17.225 21.0667 15.0167 18.9417 13.8417 16.5L15.4667 15.1167C15.6917 14.8833 15.7583 14.5583 15.6667 14.2667C15.3583 13.3417 15.2 12.35 15.2 11.325C15.2 10.875 14.825 10.5 14.375 10.5H11.4917C11.0417 10.5 10.5 10.7 10.5 11.325C10.5 19.0667 16.9417 25.5 24.675 25.5C25.2667 25.5 25.5 24.975 25.5 24.5167V21.6417C25.5 21.1917 25.125 20.8167 24.675 20.8167Z" fill="#3B65DB"/>
</svg>
