<svg width="24" height="24" viewBox="0 0 24 24" fill="none" xmlns="http://www.w3.org/2000/svg">
<path d="M15.9879 7.31271C17.596 8.4303 18.7055 10.2072 18.9307 12.2574M5.15779 12.2976C5.25887 11.3145 5.56953 10.3644 6.06883 9.5114C6.56813 8.65844 7.24447 7.9224 8.05226 7.35291M8.93668 19.1881C9.86935 19.6625 10.9307 19.9278 12.0482 19.9278C13.1256 19.9278 14.1387 19.6866 15.0472 19.2444M12.0482 8.54286C12.641 8.54286 13.2096 8.30737 13.6287 7.88819C14.0479 7.46902 14.2834 6.90049 14.2834 6.30769C14.2834 5.71488 14.0479 5.14635 13.6287 4.72718C13.2096 4.308 12.641 4.07251 12.0482 4.07251C11.4554 4.07251 10.8869 4.308 10.4677 4.72718C10.0486 5.14635 9.81306 5.71488 9.81306 6.30769C9.81306 6.90049 10.0486 7.46902 10.4677 7.88819C10.8869 8.30737 11.4554 8.54286 12.0482 8.54286ZM6.23518 18.368C6.82798 18.368 7.39651 18.1325 7.81568 17.7133C8.23486 17.2941 8.47035 16.7256 8.47035 16.1328C8.47035 15.54 8.23486 14.9715 7.81568 14.5523C7.39651 14.1331 6.82798 13.8976 6.23518 13.8976C5.64237 13.8976 5.07384 14.1331 4.65467 14.5523C4.23549 14.9715 4 15.54 4 16.1328C4 16.7256 4.23549 17.2941 4.65467 17.7133C5.07384 18.1325 5.64237 18.368 6.23518 18.368ZM17.7648 18.368C18.3576 18.368 18.9262 18.1325 19.3453 17.7133C19.7645 17.2941 20 16.7256 20 16.1328C20 15.54 19.7645 14.9715 19.3453 14.5523C18.9262 14.1331 18.3576 13.8976 17.7648 13.8976C17.172 13.8976 16.6035 14.1331 16.1843 14.5523C15.7651 14.9715 15.5296 15.54 15.5296 16.1328C15.5296 16.7256 15.7651 17.2941 16.1843 17.7133C16.6035 18.1325 17.172 18.368 17.7648 18.368Z" stroke="#5C3FFF" stroke-linecap="round" stroke-linejoin="round"/>
</svg>
