<svg width="294" height="61" viewBox="0 0 294 61" fill="none" xmlns="http://www.w3.org/2000/svg">
<rect x="6" width="30" height="30" rx="15" fill="#5C3FFF"/>
<path d="M19.8754 9.64471L15.8329 12.8822C15.3779 13.2439 15.0862 14.0081 15.1854 14.5797L15.9612 19.223C16.1012 20.0514 16.8945 20.7222 17.7345 20.7222H24.2679C25.1021 20.7222 25.9012 20.0455 26.0412 19.223L26.817 14.5797C26.9104 14.0081 26.6187 13.2439 26.1695 12.8822L22.127 9.65054C21.5029 9.14888 20.4937 9.14887 19.8754 9.64471Z" stroke="white" stroke-linecap="round" stroke-linejoin="round"/>
<path d="M20.9993 17.0414C21.8048 17.0414 22.4577 16.3885 22.4577 15.5831C22.4577 14.7777 21.8048 14.1248 20.9993 14.1248C20.1939 14.1248 19.541 14.7777 19.541 15.5831C19.541 16.3885 20.1939 17.0414 20.9993 17.0414Z" stroke="white" stroke-linecap="round" stroke-linejoin="round"/>
<path d="M1.82688 45L4.39688 38H5.48688L8.05688 45H6.98688L4.93688 39.2L2.87688 45H1.82688ZM2.98688 43.27L3.26688 42.47H6.55688L6.83688 43.27H2.98688ZM10.9805 45.12C10.5005 45.12 10.0772 45.0067 9.71055 44.78C9.34388 44.5467 9.05721 44.2333 8.85055 43.84C8.65055 43.44 8.55055 42.9867 8.55055 42.48C8.55055 41.9667 8.65055 41.5133 8.85055 41.12C9.05721 40.7267 9.34388 40.4167 9.71055 40.19C10.0839 39.9567 10.5105 39.84 10.9905 39.84C11.3839 39.84 11.7305 39.92 12.0305 40.08C12.3305 40.2333 12.5639 40.4533 12.7305 40.74V37.8H13.7305V45H12.8305L12.7305 44.22C12.6305 44.3733 12.5005 44.52 12.3405 44.66C12.1805 44.7933 11.9872 44.9033 11.7605 44.99C11.5339 45.0767 11.2739 45.12 10.9805 45.12ZM11.1405 44.25C11.4539 44.25 11.7305 44.1767 11.9705 44.03C12.2105 43.8833 12.3939 43.6767 12.5205 43.41C12.6539 43.1433 12.7205 42.8333 12.7205 42.48C12.7205 42.1267 12.6539 41.82 12.5205 41.56C12.3939 41.2933 12.2105 41.0867 11.9705 40.94C11.7305 40.7867 11.4539 40.71 11.1405 40.71C10.8405 40.71 10.5705 40.7867 10.3305 40.94C10.0905 41.0867 9.90388 41.2933 9.77055 41.56C9.63721 41.82 9.57055 42.1267 9.57055 42.48C9.57055 42.8333 9.63721 43.1433 9.77055 43.41C9.90388 43.6767 10.0905 43.8833 10.3305 44.03C10.5705 44.1767 10.8405 44.25 11.1405 44.25ZM17.338 45.12C16.858 45.12 16.4346 45.0067 16.068 44.78C15.7013 44.5467 15.4146 44.2333 15.208 43.84C15.008 43.44 14.908 42.9867 14.908 42.48C14.908 41.9667 15.008 41.5133 15.208 41.12C15.4146 40.7267 15.7013 40.4167 16.068 40.19C16.4413 39.9567 16.868 39.84 17.348 39.84C17.7413 39.84 18.088 39.92 18.388 40.08C18.688 40.2333 18.9213 40.4533 19.088 40.74V37.8H20.088V45H19.188L19.088 44.22C18.988 44.3733 18.858 44.52 18.698 44.66C18.538 44.7933 18.3446 44.9033 18.118 44.99C17.8913 45.0767 17.6313 45.12 17.338 45.12ZM17.498 44.25C17.8113 44.25 18.088 44.1767 18.328 44.03C18.568 43.8833 18.7513 43.6767 18.878 43.41C19.0113 43.1433 19.078 42.8333 19.078 42.48C19.078 42.1267 19.0113 41.82 18.878 41.56C18.7513 41.2933 18.568 41.0867 18.328 40.94C18.088 40.7867 17.8113 40.71 17.498 40.71C17.198 40.71 16.928 40.7867 16.688 40.94C16.448 41.0867 16.2613 41.2933 16.128 41.56C15.9946 41.82 15.928 42.1267 15.928 42.48C15.928 42.8333 15.9946 43.1433 16.128 43.41C16.2613 43.6767 16.448 43.8833 16.688 44.03C16.928 44.1767 17.198 44.25 17.498 44.25ZM21.4554 45V39.96H22.3554L22.4454 40.91C22.5587 40.6833 22.7054 40.4933 22.8854 40.34C23.0654 40.18 23.2754 40.0567 23.5154 39.97C23.7621 39.8833 24.0421 39.84 24.3554 39.84V40.9H23.9954C23.7887 40.9 23.5921 40.9267 23.4054 40.98C23.2187 41.0267 23.0521 41.11 22.9054 41.23C22.7654 41.35 22.6554 41.5133 22.5754 41.72C22.4954 41.9267 22.4554 42.1833 22.4554 42.49V45H21.4554ZM27.4073 45.12C26.9273 45.12 26.5006 45.01 26.1273 44.79C25.7539 44.57 25.4606 44.2633 25.2473 43.87C25.0406 43.4767 24.9373 43.02 24.9373 42.5C24.9373 41.9667 25.0406 41.5033 25.2473 41.11C25.4606 40.71 25.7539 40.4 26.1273 40.18C26.5006 39.9533 26.9339 39.84 27.4273 39.84C27.9206 39.84 28.3439 39.95 28.6973 40.17C29.0506 40.39 29.3239 40.6833 29.5173 41.05C29.7106 41.41 29.8073 41.81 29.8073 42.25C29.8073 42.3167 29.8039 42.39 29.7973 42.47C29.7973 42.5433 29.7939 42.6267 29.7873 42.72H25.6673V42.01H28.8073C28.7873 41.59 28.6473 41.2633 28.3873 41.03C28.1273 40.79 27.8039 40.67 27.4173 40.67C27.1439 40.67 26.8939 40.7333 26.6673 40.86C26.4406 40.98 26.2573 41.16 26.1173 41.4C25.9839 41.6333 25.9173 41.93 25.9173 42.29V42.57C25.9173 42.9433 25.9839 43.26 26.1173 43.52C26.2573 43.7733 26.4406 43.9667 26.6673 44.1C26.8939 44.2267 27.1406 44.29 27.4073 44.29C27.7273 44.29 27.9906 44.22 28.1973 44.08C28.4039 43.94 28.5573 43.75 28.6573 43.51H29.6573C29.5706 43.8167 29.4239 44.0933 29.2173 44.34C29.0106 44.58 28.7539 44.77 28.4473 44.91C28.1473 45.05 27.8006 45.12 27.4073 45.12ZM32.8683 45.12C32.4416 45.12 32.0683 45.05 31.7483 44.91C31.4283 44.77 31.1749 44.5733 30.9883 44.32C30.8016 44.0667 30.6883 43.77 30.6483 43.43H31.6683C31.7016 43.59 31.7649 43.7367 31.8583 43.87C31.9583 44.0033 32.0916 44.11 32.2583 44.19C32.4316 44.27 32.6349 44.31 32.8683 44.31C33.0883 44.31 33.2683 44.28 33.4083 44.22C33.5549 44.1533 33.6616 44.0667 33.7283 43.96C33.7949 43.8467 33.8283 43.7267 33.8283 43.6C33.8283 43.4133 33.7816 43.2733 33.6883 43.18C33.6016 43.08 33.4683 43.0033 33.2883 42.95C33.1149 42.89 32.9049 42.8367 32.6583 42.79C32.4249 42.75 32.1983 42.6967 31.9783 42.63C31.7649 42.5567 31.5716 42.4667 31.3983 42.36C31.2316 42.2533 31.0983 42.12 30.9983 41.96C30.8983 41.7933 30.8483 41.59 30.8483 41.35C30.8483 41.0633 30.9249 40.8067 31.0783 40.58C31.2316 40.3467 31.4483 40.1667 31.7283 40.04C32.0149 39.9067 32.3516 39.84 32.7383 39.84C33.2983 39.84 33.7483 39.9733 34.0883 40.24C34.4283 40.5067 34.6283 40.8833 34.6883 41.37H33.7183C33.6916 41.1433 33.5916 40.97 33.4183 40.85C33.2449 40.7233 33.0149 40.66 32.7283 40.66C32.4416 40.66 32.2216 40.7167 32.0683 40.83C31.9149 40.9433 31.8383 41.0933 31.8383 41.28C31.8383 41.4 31.8816 41.5067 31.9683 41.6C32.0549 41.6933 32.1816 41.7733 32.3483 41.84C32.5216 41.9 32.7316 41.9567 32.9783 42.01C33.3316 42.0767 33.6483 42.16 33.9283 42.26C34.2083 42.36 34.4316 42.5067 34.5983 42.7C34.7649 42.8933 34.8483 43.17 34.8483 43.53C34.8549 43.8433 34.7749 44.12 34.6083 44.36C34.4483 44.6 34.2183 44.7867 33.9183 44.92C33.6249 45.0533 33.2749 45.12 32.8683 45.12ZM37.9757 45.12C37.549 45.12 37.1757 45.05 36.8557 44.91C36.5357 44.77 36.2824 44.5733 36.0957 44.32C35.909 44.0667 35.7957 43.77 35.7557 43.43H36.7757C36.809 43.59 36.8724 43.7367 36.9657 43.87C37.0657 44.0033 37.199 44.11 37.3657 44.19C37.539 44.27 37.7424 44.31 37.9757 44.31C38.1957 44.31 38.3757 44.28 38.5157 44.22C38.6624 44.1533 38.769 44.0667 38.8357 43.96C38.9024 43.8467 38.9357 43.7267 38.9357 43.6C38.9357 43.4133 38.889 43.2733 38.7957 43.18C38.709 43.08 38.5757 43.0033 38.3957 42.95C38.2224 42.89 38.0124 42.8367 37.7657 42.79C37.5324 42.75 37.3057 42.6967 37.0857 42.63C36.8724 42.5567 36.679 42.4667 36.5057 42.36C36.339 42.2533 36.2057 42.12 36.1057 41.96C36.0057 41.7933 35.9557 41.59 35.9557 41.35C35.9557 41.0633 36.0324 40.8067 36.1857 40.58C36.339 40.3467 36.5557 40.1667 36.8357 40.04C37.1224 39.9067 37.459 39.84 37.8457 39.84C38.4057 39.84 38.8557 39.9733 39.1957 40.24C39.5357 40.5067 39.7357 40.8833 39.7957 41.37H38.8257C38.799 41.1433 38.699 40.97 38.5257 40.85C38.3524 40.7233 38.1224 40.66 37.8357 40.66C37.549 40.66 37.329 40.7167 37.1757 40.83C37.0224 40.9433 36.9457 41.0933 36.9457 41.28C36.9457 41.4 36.989 41.5067 37.0757 41.6C37.1624 41.6933 37.289 41.7733 37.4557 41.84C37.629 41.9 37.839 41.9567 38.0857 42.01C38.439 42.0767 38.7557 42.16 39.0357 42.26C39.3157 42.36 39.539 42.5067 39.7057 42.7C39.8724 42.8933 39.9557 43.17 39.9557 43.53C39.9624 43.8433 39.8824 44.12 39.7157 44.36C39.5557 44.6 39.3257 44.7867 39.0257 44.92C38.7324 45.0533 38.3824 45.12 37.9757 45.12Z" fill="#666666"/>
<path d="M47 17.25H121" stroke="#CCCCCC" stroke-width="1.5" stroke-linecap="round"/>
<rect x="132" width="30" height="30" rx="15" fill="#5C3FFF"/>
<path d="M144.666 15.1167H148.749" stroke="white" stroke-width="0.875" stroke-miterlimit="10" stroke-linecap="round" stroke-linejoin="round"/>
<path d="M144.666 17.45H147.221" stroke="white" stroke-width="0.875" stroke-miterlimit="10" stroke-linecap="round" stroke-linejoin="round"/>
<path d="M145.833 11.5H148.166C149.333 11.5 149.333 10.9166 149.333 10.3333C149.333 9.16663 148.749 9.16663 148.166 9.16663H145.833C145.249 9.16663 144.666 9.16663 144.666 10.3333C144.666 11.5 145.249 11.5 145.833 11.5Z" stroke="white" stroke-width="0.875" stroke-miterlimit="10" stroke-linecap="round" stroke-linejoin="round"/>
<path d="M149.333 10.345C151.276 10.45 152.25 11.1675 152.25 13.8333V17.3333C152.25 19.6666 151.667 20.8333 148.75 20.8333H145.25C142.333 20.8333 141.75 19.6666 141.75 17.3333V13.8333C141.75 11.1733 142.724 10.45 144.667 10.345" stroke="white" stroke-width="0.875" stroke-miterlimit="10" stroke-linecap="round" stroke-linejoin="round"/>
<path d="M137.174 45.12C136.501 45.12 135.907 44.97 135.394 44.67C134.887 44.3633 134.487 43.94 134.194 43.4C133.907 42.8533 133.764 42.22 133.764 41.5C133.764 40.7867 133.907 40.16 134.194 39.62C134.487 39.0733 134.887 38.6467 135.394 38.34C135.907 38.0333 136.501 37.88 137.174 37.88C137.861 37.88 138.461 38.0333 138.974 38.34C139.487 38.6467 139.884 39.0733 140.164 39.62C140.451 40.16 140.594 40.7867 140.594 41.5C140.594 42.22 140.451 42.8533 140.164 43.4C139.884 43.94 139.487 44.3633 138.974 44.67C138.461 44.97 137.861 45.12 137.174 45.12ZM137.184 44.23C137.664 44.23 138.084 44.12 138.444 43.9C138.804 43.68 139.081 43.3667 139.274 42.96C139.474 42.5533 139.574 42.0667 139.574 41.5C139.574 40.9333 139.474 40.4467 139.274 40.04C139.081 39.6333 138.804 39.3233 138.444 39.11C138.084 38.89 137.664 38.78 137.184 38.78C136.704 38.78 136.284 38.89 135.924 39.11C135.564 39.3233 135.284 39.6333 135.084 40.04C134.884 40.4467 134.784 40.9333 134.784 41.5C134.784 42.0667 134.884 42.5533 135.084 42.96C135.284 43.3667 135.564 43.68 135.924 43.9C136.284 44.12 136.704 44.23 137.184 44.23ZM141.747 45V39.96H142.647L142.737 40.91C142.851 40.6833 142.997 40.4933 143.177 40.34C143.357 40.18 143.567 40.0567 143.807 39.97C144.054 39.8833 144.334 39.84 144.647 39.84V40.9H144.287C144.081 40.9 143.884 40.9267 143.697 40.98C143.511 41.0267 143.344 41.11 143.197 41.23C143.057 41.35 142.947 41.5133 142.867 41.72C142.787 41.9267 142.747 42.1833 142.747 42.49V45H141.747ZM147.659 45.12C147.179 45.12 146.756 45.0067 146.389 44.78C146.023 44.5467 145.736 44.2333 145.529 43.84C145.329 43.44 145.229 42.9867 145.229 42.48C145.229 41.9667 145.329 41.5133 145.529 41.12C145.736 40.7267 146.023 40.4167 146.389 40.19C146.763 39.9567 147.189 39.84 147.669 39.84C148.063 39.84 148.409 39.92 148.709 40.08C149.009 40.2333 149.243 40.4533 149.409 40.74V37.8H150.409V45H149.509L149.409 44.22C149.309 44.3733 149.179 44.52 149.019 44.66C148.859 44.7933 148.666 44.9033 148.439 44.99C148.213 45.0767 147.953 45.12 147.659 45.12ZM147.819 44.25C148.133 44.25 148.409 44.1767 148.649 44.03C148.889 43.8833 149.073 43.6767 149.199 43.41C149.333 43.1433 149.399 42.8333 149.399 42.48C149.399 42.1267 149.333 41.82 149.199 41.56C149.073 41.2933 148.889 41.0867 148.649 40.94C148.409 40.7867 148.133 40.71 147.819 40.71C147.519 40.71 147.249 40.7867 147.009 40.94C146.769 41.0867 146.583 41.2933 146.449 41.56C146.316 41.82 146.249 42.1267 146.249 42.48C146.249 42.8333 146.316 43.1433 146.449 43.41C146.583 43.6767 146.769 43.8833 147.009 44.03C147.249 44.1767 147.519 44.25 147.819 44.25ZM154.057 45.12C153.577 45.12 153.15 45.01 152.777 44.79C152.403 44.57 152.11 44.2633 151.897 43.87C151.69 43.4767 151.587 43.02 151.587 42.5C151.587 41.9667 151.69 41.5033 151.897 41.11C152.11 40.71 152.403 40.4 152.777 40.18C153.15 39.9533 153.583 39.84 154.077 39.84C154.57 39.84 154.993 39.95 155.347 40.17C155.7 40.39 155.973 40.6833 156.167 41.05C156.36 41.41 156.457 41.81 156.457 42.25C156.457 42.3167 156.453 42.39 156.447 42.47C156.447 42.5433 156.443 42.6267 156.437 42.72H152.317V42.01H155.457C155.437 41.59 155.297 41.2633 155.037 41.03C154.777 40.79 154.453 40.67 154.067 40.67C153.793 40.67 153.543 40.7333 153.317 40.86C153.09 40.98 152.907 41.16 152.767 41.4C152.633 41.6333 152.567 41.93 152.567 42.29V42.57C152.567 42.9433 152.633 43.26 152.767 43.52C152.907 43.7733 153.09 43.9667 153.317 44.1C153.543 44.2267 153.79 44.29 154.057 44.29C154.377 44.29 154.64 44.22 154.847 44.08C155.053 43.94 155.207 43.75 155.307 43.51H156.307C156.22 43.8167 156.073 44.0933 155.867 44.34C155.66 44.58 155.403 44.77 155.097 44.91C154.797 45.05 154.45 45.12 154.057 45.12ZM157.568 45V39.96H158.468L158.558 40.91C158.671 40.6833 158.818 40.4933 158.998 40.34C159.178 40.18 159.388 40.0567 159.628 39.97C159.874 39.8833 160.154 39.84 160.468 39.84V40.9H160.108C159.901 40.9 159.704 40.9267 159.518 40.98C159.331 41.0267 159.164 41.11 159.018 41.23C158.878 41.35 158.768 41.5133 158.688 41.72C158.608 41.9267 158.568 42.1833 158.568 42.49V45H157.568ZM129.029 58V51H131.419C131.979 51 132.439 51.0933 132.799 51.28C133.159 51.4667 133.425 51.7167 133.599 52.03C133.772 52.3433 133.859 52.7 133.859 53.1C133.859 53.48 133.772 53.83 133.599 54.15C133.432 54.4633 133.169 54.7167 132.809 54.91C132.449 55.0967 131.985 55.19 131.419 55.19H130.029V58H129.029ZM130.029 54.36H131.379C131.905 54.36 132.279 54.2467 132.499 54.02C132.725 53.7867 132.839 53.48 132.839 53.1C132.839 52.6933 132.725 52.38 132.499 52.16C132.279 51.94 131.905 51.83 131.379 51.83H130.029V54.36ZM134.887 58V52.96H135.787L135.877 53.91C135.99 53.6833 136.137 53.4933 136.317 53.34C136.497 53.18 136.707 53.0567 136.947 52.97C137.194 52.8833 137.474 52.84 137.787 52.84V53.9H137.427C137.22 53.9 137.024 53.9267 136.837 53.98C136.65 54.0267 136.484 54.11 136.337 54.23C136.197 54.35 136.087 54.5133 136.007 54.72C135.927 54.9267 135.887 55.1833 135.887 55.49V58H134.887ZM140.859 58.12C140.386 58.12 139.959 58.01 139.579 57.79C139.206 57.57 138.909 57.2633 138.689 56.87C138.476 56.47 138.369 56.01 138.369 55.49C138.369 54.9567 138.479 54.4933 138.699 54.1C138.919 53.7 139.219 53.39 139.599 53.17C139.979 52.95 140.406 52.84 140.879 52.84C141.359 52.84 141.786 52.95 142.159 53.17C142.532 53.39 142.826 53.6967 143.039 54.09C143.259 54.4833 143.369 54.9467 143.369 55.48C143.369 56.0133 143.259 56.4767 143.039 56.87C142.826 57.2633 142.529 57.57 142.149 57.79C141.769 58.01 141.339 58.12 140.859 58.12ZM140.859 57.26C141.132 57.26 141.379 57.1933 141.599 57.06C141.826 56.9267 142.006 56.73 142.139 56.47C142.279 56.2033 142.349 55.8733 142.349 55.48C142.349 55.0867 142.282 54.76 142.149 54.5C142.016 54.2333 141.836 54.0333 141.609 53.9C141.389 53.7667 141.146 53.7 140.879 53.7C140.612 53.7 140.366 53.7667 140.139 53.9C139.912 54.0333 139.729 54.2333 139.589 54.5C139.456 54.76 139.389 55.0867 139.389 55.48C139.389 55.8733 139.456 56.2033 139.589 56.47C139.729 56.73 139.909 56.9267 140.129 57.06C140.356 57.1933 140.599 57.26 140.859 57.26ZM146.875 58.12C146.389 58.12 145.955 58.01 145.575 57.79C145.195 57.5633 144.895 57.2533 144.675 56.86C144.462 56.4667 144.355 56.01 144.355 55.49C144.355 54.9633 144.462 54.5033 144.675 54.11C144.895 53.71 145.195 53.4 145.575 53.18C145.955 52.9533 146.389 52.84 146.875 52.84C147.489 52.84 148.002 53 148.415 53.32C148.829 53.64 149.092 54.0733 149.205 54.62H148.165C148.099 54.3267 147.945 54.1 147.705 53.94C147.472 53.78 147.192 53.7 146.865 53.7C146.599 53.7 146.352 53.77 146.125 53.91C145.899 54.0433 145.715 54.2433 145.575 54.51C145.442 54.77 145.375 55.0933 145.375 55.48C145.375 55.7667 145.415 56.0233 145.495 56.25C145.575 56.47 145.682 56.6567 145.815 56.81C145.955 56.9633 146.115 57.08 146.295 57.16C146.475 57.2333 146.665 57.27 146.865 57.27C147.085 57.27 147.282 57.2367 147.455 57.17C147.635 57.0967 147.785 56.99 147.905 56.85C148.032 56.71 148.119 56.5433 148.165 56.35H149.205C149.092 56.8833 148.829 57.3133 148.415 57.64C148.002 57.96 147.489 58.12 146.875 58.12ZM152.655 58.12C152.175 58.12 151.749 58.01 151.375 57.79C151.002 57.57 150.709 57.2633 150.495 56.87C150.289 56.4767 150.185 56.02 150.185 55.5C150.185 54.9667 150.289 54.5033 150.495 54.11C150.709 53.71 151.002 53.4 151.375 53.18C151.749 52.9533 152.182 52.84 152.675 52.84C153.169 52.84 153.592 52.95 153.945 53.17C154.299 53.39 154.572 53.6833 154.765 54.05C154.959 54.41 155.055 54.81 155.055 55.25C155.055 55.3167 155.052 55.39 155.045 55.47C155.045 55.5433 155.042 55.6267 155.035 55.72H150.915V55.01H154.055C154.035 54.59 153.895 54.2633 153.635 54.03C153.375 53.79 153.052 53.67 152.665 53.67C152.392 53.67 152.142 53.7333 151.915 53.86C151.689 53.98 151.505 54.16 151.365 54.4C151.232 54.6333 151.165 54.93 151.165 55.29V55.57C151.165 55.9433 151.232 56.26 151.365 56.52C151.505 56.7733 151.689 56.9667 151.915 57.1C152.142 57.2267 152.389 57.29 152.655 57.29C152.975 57.29 153.239 57.22 153.445 57.08C153.652 56.94 153.805 56.75 153.905 56.51H154.905C154.819 56.8167 154.672 57.0933 154.465 57.34C154.259 57.58 154.002 57.77 153.695 57.91C153.395 58.05 153.049 58.12 152.655 58.12ZM158.116 58.12C157.69 58.12 157.316 58.05 156.996 57.91C156.676 57.77 156.423 57.5733 156.236 57.32C156.05 57.0667 155.936 56.77 155.896 56.43H156.916C156.95 56.59 157.013 56.7367 157.106 56.87C157.206 57.0033 157.34 57.11 157.506 57.19C157.68 57.27 157.883 57.31 158.116 57.31C158.336 57.31 158.516 57.28 158.656 57.22C158.803 57.1533 158.91 57.0667 158.976 56.96C159.043 56.8467 159.076 56.7267 159.076 56.6C159.076 56.4133 159.03 56.2733 158.936 56.18C158.85 56.08 158.716 56.0033 158.536 55.95C158.363 55.89 158.153 55.8367 157.906 55.79C157.673 55.75 157.446 55.6967 157.226 55.63C157.013 55.5567 156.82 55.4667 156.646 55.36C156.48 55.2533 156.346 55.12 156.246 54.96C156.146 54.7933 156.096 54.59 156.096 54.35C156.096 54.0633 156.173 53.8067 156.326 53.58C156.48 53.3467 156.696 53.1667 156.976 53.04C157.263 52.9067 157.6 52.84 157.986 52.84C158.546 52.84 158.996 52.9733 159.336 53.24C159.676 53.5067 159.876 53.8833 159.936 54.37H158.966C158.94 54.1433 158.84 53.97 158.666 53.85C158.493 53.7233 158.263 53.66 157.976 53.66C157.69 53.66 157.47 53.7167 157.316 53.83C157.163 53.9433 157.086 54.0933 157.086 54.28C157.086 54.4 157.13 54.5067 157.216 54.6C157.303 54.6933 157.43 54.7733 157.596 54.84C157.77 54.9 157.98 54.9567 158.226 55.01C158.58 55.0767 158.896 55.16 159.176 55.26C159.456 55.36 159.68 55.5067 159.846 55.7C160.013 55.8933 160.096 56.17 160.096 56.53C160.103 56.8433 160.023 57.12 159.856 57.36C159.696 57.6 159.466 57.7867 159.166 57.92C158.873 58.0533 158.523 58.12 158.116 58.12ZM163.224 58.12C162.797 58.12 162.424 58.05 162.104 57.91C161.784 57.77 161.53 57.5733 161.344 57.32C161.157 57.0667 161.044 56.77 161.004 56.43H162.024C162.057 56.59 162.12 56.7367 162.214 56.87C162.314 57.0033 162.447 57.11 162.614 57.19C162.787 57.27 162.99 57.31 163.224 57.31C163.444 57.31 163.624 57.28 163.764 57.22C163.91 57.1533 164.017 57.0667 164.084 56.96C164.15 56.8467 164.184 56.7267 164.184 56.6C164.184 56.4133 164.137 56.2733 164.044 56.18C163.957 56.08 163.824 56.0033 163.644 55.95C163.47 55.89 163.26 55.8367 163.014 55.79C162.78 55.75 162.554 55.6967 162.334 55.63C162.12 55.5567 161.927 55.4667 161.754 55.36C161.587 55.2533 161.454 55.12 161.354 54.96C161.254 54.7933 161.204 54.59 161.204 54.35C161.204 54.0633 161.28 53.8067 161.434 53.58C161.587 53.3467 161.804 53.1667 162.084 53.04C162.37 52.9067 162.707 52.84 163.094 52.84C163.654 52.84 164.104 52.9733 164.444 53.24C164.784 53.5067 164.984 53.8833 165.044 54.37H164.074C164.047 54.1433 163.947 53.97 163.774 53.85C163.6 53.7233 163.37 53.66 163.084 53.66C162.797 53.66 162.577 53.7167 162.424 53.83C162.27 53.9433 162.194 54.0933 162.194 54.28C162.194 54.4 162.237 54.5067 162.324 54.6C162.41 54.6933 162.537 54.7733 162.704 54.84C162.877 54.9 163.087 54.9567 163.334 55.01C163.687 55.0767 164.004 55.16 164.284 55.26C164.564 55.36 164.787 55.5067 164.954 55.7C165.12 55.8933 165.204 56.17 165.204 56.53C165.21 56.8433 165.13 57.12 164.964 57.36C164.804 57.6 164.574 57.7867 164.274 57.92C163.98 58.0533 163.63 58.12 163.224 58.12Z" fill="#666666"/>
<path d="M173 17.25H247" stroke="#CCCCCC" stroke-width="1.5" stroke-linecap="round"/>
<rect x="258" width="30" height="30" rx="15" fill="#5C3FFF"/>
<path d="M276.524 15.904C276.279 16.1431 276.139 16.4873 276.174 16.8548C276.226 17.4848 276.804 17.9456 277.434 17.9456H278.542V18.6398C278.542 19.8473 277.556 20.8331 276.349 20.8331H269.652C268.445 20.8331 267.459 19.8473 267.459 18.6398V14.714C267.459 13.5065 268.445 12.5206 269.652 12.5206H276.349C277.556 12.5206 278.542 13.5065 278.542 14.714V15.554H277.364C277.037 15.554 276.74 15.6823 276.524 15.904Z" stroke="white" stroke-width="0.875" stroke-linecap="round" stroke-linejoin="round"/>
<path d="M267.459 15.239V12.5732C267.459 11.879 267.885 11.2607 268.532 11.0157L273.164 9.26569C273.887 8.99152 274.663 9.5282 274.663 10.304V12.5207" stroke="white" stroke-width="0.875" stroke-linecap="round" stroke-linejoin="round"/>
<path d="M279.16 16.1493V17.351C279.16 17.6718 278.903 17.9343 278.577 17.946H277.433C276.803 17.946 276.226 17.4851 276.173 16.8551C276.138 16.4876 276.278 16.1435 276.523 15.9043C276.739 15.6826 277.037 15.5543 277.363 15.5543H278.577C278.903 15.566 279.16 15.8285 279.16 16.1493Z" stroke="white" stroke-width="0.875" stroke-linecap="round" stroke-linejoin="round"/>
<path d="M270.084 15H274.167" stroke="white" stroke-width="0.875" stroke-linecap="round" stroke-linejoin="round"/>
<path d="M252.954 45V38H255.344C255.904 38 256.364 38.0933 256.724 38.28C257.084 38.4667 257.35 38.7167 257.524 39.03C257.697 39.3433 257.784 39.7 257.784 40.1C257.784 40.48 257.697 40.83 257.524 41.15C257.357 41.4633 257.094 41.7167 256.734 41.91C256.374 42.0967 255.91 42.19 255.344 42.19H253.954V45H252.954ZM253.954 41.36H255.304C255.83 41.36 256.204 41.2467 256.424 41.02C256.65 40.7867 256.764 40.48 256.764 40.1C256.764 39.6933 256.65 39.38 256.424 39.16C256.204 38.94 255.83 38.83 255.304 38.83H253.954V41.36ZM260.218 45.12C259.805 45.12 259.461 45.05 259.188 44.91C258.915 44.77 258.711 44.5833 258.578 44.35C258.445 44.11 258.378 43.8533 258.378 43.58C258.378 43.2467 258.465 42.9633 258.638 42.73C258.811 42.49 259.058 42.3067 259.378 42.18C259.698 42.0533 260.081 41.99 260.528 41.99H261.838C261.838 41.6967 261.795 41.4533 261.708 41.26C261.621 41.0667 261.491 40.9233 261.318 40.83C261.151 40.73 260.938 40.68 260.678 40.68C260.378 40.68 260.121 40.7533 259.908 40.9C259.695 41.04 259.561 41.25 259.508 41.53H258.508C258.548 41.1767 258.668 40.8767 258.868 40.63C259.075 40.3767 259.338 40.1833 259.658 40.05C259.978 39.91 260.318 39.84 260.678 39.84C261.151 39.84 261.548 39.9233 261.868 40.09C262.188 40.2567 262.428 40.4933 262.588 40.8C262.755 41.1 262.838 41.46 262.838 41.88V45H261.968L261.888 44.15C261.815 44.2833 261.728 44.41 261.628 44.53C261.528 44.65 261.408 44.7533 261.268 44.84C261.135 44.9267 260.978 44.9933 260.798 45.04C260.625 45.0933 260.431 45.12 260.218 45.12ZM260.408 44.31C260.621 44.31 260.815 44.2667 260.988 44.18C261.161 44.0933 261.308 43.9767 261.428 43.83C261.555 43.6767 261.648 43.5067 261.708 43.32C261.775 43.1267 261.811 42.93 261.818 42.73V42.7H260.628C260.341 42.7 260.108 42.7367 259.928 42.81C259.755 42.8767 259.628 42.97 259.548 43.09C259.468 43.21 259.428 43.35 259.428 43.51C259.428 43.6767 259.465 43.82 259.538 43.94C259.618 44.0533 259.731 44.1433 259.878 44.21C260.025 44.2767 260.201 44.31 260.408 44.31ZM264.538 47.2L265.768 44.44H265.478L263.488 39.96H264.568L266.148 43.62L267.738 39.96H268.788L265.588 47.2H264.538ZM269.671 45V39.96H270.571L270.641 40.67C270.801 40.41 271.015 40.2067 271.281 40.06C271.548 39.9133 271.848 39.84 272.181 39.84C272.435 39.84 272.665 39.8767 272.871 39.95C273.078 40.0167 273.261 40.12 273.421 40.26C273.581 40.4 273.711 40.5733 273.811 40.78C273.991 40.4867 274.231 40.2567 274.531 40.09C274.838 39.9233 275.161 39.84 275.501 39.84C275.908 39.84 276.258 39.9233 276.551 40.09C276.845 40.25 277.068 40.4933 277.221 40.82C277.375 41.14 277.451 41.54 277.451 42.02V45H276.461V42.12C276.461 41.6533 276.365 41.3 276.171 41.06C275.985 40.82 275.708 40.7 275.341 40.7C275.095 40.7 274.875 40.7633 274.681 40.89C274.488 41.0167 274.335 41.2 274.221 41.44C274.115 41.68 274.061 41.9733 274.061 42.32V45H273.061V42.12C273.061 41.6533 272.965 41.3 272.771 41.06C272.585 40.82 272.308 40.7 271.941 40.7C271.708 40.7 271.495 40.7633 271.301 40.89C271.108 41.0167 270.955 41.2 270.841 41.44C270.728 41.68 270.671 41.9733 270.671 42.32V45H269.671ZM281.023 45.12C280.543 45.12 280.117 45.01 279.743 44.79C279.37 44.57 279.077 44.2633 278.863 43.87C278.657 43.4767 278.553 43.02 278.553 42.5C278.553 41.9667 278.657 41.5033 278.863 41.11C279.077 40.71 279.37 40.4 279.743 40.18C280.117 39.9533 280.55 39.84 281.043 39.84C281.537 39.84 281.96 39.95 282.313 40.17C282.667 40.39 282.94 40.6833 283.133 41.05C283.327 41.41 283.423 41.81 283.423 42.25C283.423 42.3167 283.42 42.39 283.413 42.47C283.413 42.5433 283.41 42.6267 283.403 42.72H279.283V42.01H282.423C282.403 41.59 282.263 41.2633 282.003 41.03C281.743 40.79 281.42 40.67 281.033 40.67C280.76 40.67 280.51 40.7333 280.283 40.86C280.057 40.98 279.873 41.16 279.733 41.4C279.6 41.6333 279.533 41.93 279.533 42.29V42.57C279.533 42.9433 279.6 43.26 279.733 43.52C279.873 43.7733 280.057 43.9667 280.283 44.1C280.51 44.2267 280.757 44.29 281.023 44.29C281.343 44.29 281.607 44.22 281.813 44.08C282.02 43.94 282.173 43.75 282.273 43.51H283.273C283.187 43.8167 283.04 44.0933 282.833 44.34C282.627 44.58 282.37 44.77 282.063 44.91C281.763 45.05 281.417 45.12 281.023 45.12ZM284.534 45V39.96H285.434L285.494 40.82C285.654 40.52 285.881 40.2833 286.174 40.11C286.468 39.93 286.804 39.84 287.184 39.84C287.584 39.84 287.928 39.92 288.214 40.08C288.501 40.24 288.724 40.4833 288.884 40.81C289.044 41.13 289.124 41.5333 289.124 42.02V45H288.124V42.12C288.124 41.6533 288.021 41.3 287.814 41.06C287.608 40.82 287.308 40.7 286.914 40.7C286.654 40.7 286.421 40.7633 286.214 40.89C286.008 41.01 285.841 41.19 285.714 41.43C285.594 41.67 285.534 41.9633 285.534 42.31V45H284.534ZM292.484 45C292.164 45 291.887 44.95 291.654 44.85C291.42 44.75 291.24 44.5833 291.114 44.35C290.987 44.1167 290.924 43.8 290.924 43.4V40.81H290.054V39.96H290.924L291.044 38.7H291.924V39.96H293.354V40.81H291.924V43.41C291.924 43.6967 291.984 43.8933 292.104 44C292.224 44.1 292.43 44.15 292.724 44.15H293.304V45H292.484Z" fill="#666666"/>
</svg>
