<svg width="294" height="67" viewBox="0 0 294 67" fill="none" xmlns="http://www.w3.org/2000/svg">
<g filter="url(#filter0_d_6_4036)">
<rect x="6" y="6" width="30" height="30" rx="15" fill="#18A20C"/>
<path d="M16.625 21.4375L20.125 24.9375L25.375 17.0625" stroke="white" stroke-linecap="round" stroke-linejoin="round"/>
</g>
<path d="M1.82688 51L4.39688 44H5.48688L8.05688 51H6.98688L4.93688 45.2L2.87688 51H1.82688ZM2.98688 49.27L3.26688 48.47H6.55688L6.83688 49.27H2.98688ZM10.9805 51.12C10.5005 51.12 10.0772 51.0067 9.71055 50.78C9.34388 50.5467 9.05721 50.2333 8.85055 49.84C8.65055 49.44 8.55055 48.9867 8.55055 48.48C8.55055 47.9667 8.65055 47.5133 8.85055 47.12C9.05721 46.7267 9.34388 46.4167 9.71055 46.19C10.0839 45.9567 10.5105 45.84 10.9905 45.84C11.3839 45.84 11.7305 45.92 12.0305 46.08C12.3305 46.2333 12.5639 46.4533 12.7305 46.74V43.8H13.7305V51H12.8305L12.7305 50.22C12.6305 50.3733 12.5005 50.52 12.3405 50.66C12.1805 50.7933 11.9872 50.9033 11.7605 50.99C11.5339 51.0767 11.2739 51.12 10.9805 51.12ZM11.1405 50.25C11.4539 50.25 11.7305 50.1767 11.9705 50.03C12.2105 49.8833 12.3939 49.6767 12.5205 49.41C12.6539 49.1433 12.7205 48.8333 12.7205 48.48C12.7205 48.1267 12.6539 47.82 12.5205 47.56C12.3939 47.2933 12.2105 47.0867 11.9705 46.94C11.7305 46.7867 11.4539 46.71 11.1405 46.71C10.8405 46.71 10.5705 46.7867 10.3305 46.94C10.0905 47.0867 9.90388 47.2933 9.77055 47.56C9.63721 47.82 9.57055 48.1267 9.57055 48.48C9.57055 48.8333 9.63721 49.1433 9.77055 49.41C9.90388 49.6767 10.0905 49.8833 10.3305 50.03C10.5705 50.1767 10.8405 50.25 11.1405 50.25ZM17.338 51.12C16.858 51.12 16.4346 51.0067 16.068 50.78C15.7013 50.5467 15.4146 50.2333 15.208 49.84C15.008 49.44 14.908 48.9867 14.908 48.48C14.908 47.9667 15.008 47.5133 15.208 47.12C15.4146 46.7267 15.7013 46.4167 16.068 46.19C16.4413 45.9567 16.868 45.84 17.348 45.84C17.7413 45.84 18.088 45.92 18.388 46.08C18.688 46.2333 18.9213 46.4533 19.088 46.74V43.8H20.088V51H19.188L19.088 50.22C18.988 50.3733 18.858 50.52 18.698 50.66C18.538 50.7933 18.3446 50.9033 18.118 50.99C17.8913 51.0767 17.6313 51.12 17.338 51.12ZM17.498 50.25C17.8113 50.25 18.088 50.1767 18.328 50.03C18.568 49.8833 18.7513 49.6767 18.878 49.41C19.0113 49.1433 19.078 48.8333 19.078 48.48C19.078 48.1267 19.0113 47.82 18.878 47.56C18.7513 47.2933 18.568 47.0867 18.328 46.94C18.088 46.7867 17.8113 46.71 17.498 46.71C17.198 46.71 16.928 46.7867 16.688 46.94C16.448 47.0867 16.2613 47.2933 16.128 47.56C15.9946 47.82 15.928 48.1267 15.928 48.48C15.928 48.8333 15.9946 49.1433 16.128 49.41C16.2613 49.6767 16.448 49.8833 16.688 50.03C16.928 50.1767 17.198 50.25 17.498 50.25ZM21.4554 51V45.96H22.3554L22.4454 46.91C22.5587 46.6833 22.7054 46.4933 22.8854 46.34C23.0654 46.18 23.2754 46.0567 23.5154 45.97C23.7621 45.8833 24.0421 45.84 24.3554 45.84V46.9H23.9954C23.7887 46.9 23.5921 46.9267 23.4054 46.98C23.2187 47.0267 23.0521 47.11 22.9054 47.23C22.7654 47.35 22.6554 47.5133 22.5754 47.72C22.4954 47.9267 22.4554 48.1833 22.4554 48.49V51H21.4554ZM27.4073 51.12C26.9273 51.12 26.5006 51.01 26.1273 50.79C25.7539 50.57 25.4606 50.2633 25.2473 49.87C25.0406 49.4767 24.9373 49.02 24.9373 48.5C24.9373 47.9667 25.0406 47.5033 25.2473 47.11C25.4606 46.71 25.7539 46.4 26.1273 46.18C26.5006 45.9533 26.9339 45.84 27.4273 45.84C27.9206 45.84 28.3439 45.95 28.6973 46.17C29.0506 46.39 29.3239 46.6833 29.5173 47.05C29.7106 47.41 29.8073 47.81 29.8073 48.25C29.8073 48.3167 29.8039 48.39 29.7973 48.47C29.7973 48.5433 29.7939 48.6267 29.7873 48.72H25.6673V48.01H28.8073C28.7873 47.59 28.6473 47.2633 28.3873 47.03C28.1273 46.79 27.8039 46.67 27.4173 46.67C27.1439 46.67 26.8939 46.7333 26.6673 46.86C26.4406 46.98 26.2573 47.16 26.1173 47.4C25.9839 47.6333 25.9173 47.93 25.9173 48.29V48.57C25.9173 48.9433 25.9839 49.26 26.1173 49.52C26.2573 49.7733 26.4406 49.9667 26.6673 50.1C26.8939 50.2267 27.1406 50.29 27.4073 50.29C27.7273 50.29 27.9906 50.22 28.1973 50.08C28.4039 49.94 28.5573 49.75 28.6573 49.51H29.6573C29.5706 49.8167 29.4239 50.0933 29.2173 50.34C29.0106 50.58 28.7539 50.77 28.4473 50.91C28.1473 51.05 27.8006 51.12 27.4073 51.12ZM32.8683 51.12C32.4416 51.12 32.0683 51.05 31.7483 50.91C31.4283 50.77 31.1749 50.5733 30.9883 50.32C30.8016 50.0667 30.6883 49.77 30.6483 49.43H31.6683C31.7016 49.59 31.7649 49.7367 31.8583 49.87C31.9583 50.0033 32.0916 50.11 32.2583 50.19C32.4316 50.27 32.6349 50.31 32.8683 50.31C33.0883 50.31 33.2683 50.28 33.4083 50.22C33.5549 50.1533 33.6616 50.0667 33.7283 49.96C33.7949 49.8467 33.8283 49.7267 33.8283 49.6C33.8283 49.4133 33.7816 49.2733 33.6883 49.18C33.6016 49.08 33.4683 49.0033 33.2883 48.95C33.1149 48.89 32.9049 48.8367 32.6583 48.79C32.4249 48.75 32.1983 48.6967 31.9783 48.63C31.7649 48.5567 31.5716 48.4667 31.3983 48.36C31.2316 48.2533 31.0983 48.12 30.9983 47.96C30.8983 47.7933 30.8483 47.59 30.8483 47.35C30.8483 47.0633 30.9249 46.8067 31.0783 46.58C31.2316 46.3467 31.4483 46.1667 31.7283 46.04C32.0149 45.9067 32.3516 45.84 32.7383 45.84C33.2983 45.84 33.7483 45.9733 34.0883 46.24C34.4283 46.5067 34.6283 46.8833 34.6883 47.37H33.7183C33.6916 47.1433 33.5916 46.97 33.4183 46.85C33.2449 46.7233 33.0149 46.66 32.7283 46.66C32.4416 46.66 32.2216 46.7167 32.0683 46.83C31.9149 46.9433 31.8383 47.0933 31.8383 47.28C31.8383 47.4 31.8816 47.5067 31.9683 47.6C32.0549 47.6933 32.1816 47.7733 32.3483 47.84C32.5216 47.9 32.7316 47.9567 32.9783 48.01C33.3316 48.0767 33.6483 48.16 33.9283 48.26C34.2083 48.36 34.4316 48.5067 34.5983 48.7C34.7649 48.8933 34.8483 49.17 34.8483 49.53C34.8549 49.8433 34.7749 50.12 34.6083 50.36C34.4483 50.6 34.2183 50.7867 33.9183 50.92C33.6249 51.0533 33.2749 51.12 32.8683 51.12ZM37.9757 51.12C37.549 51.12 37.1757 51.05 36.8557 50.91C36.5357 50.77 36.2824 50.5733 36.0957 50.32C35.909 50.0667 35.7957 49.77 35.7557 49.43H36.7757C36.809 49.59 36.8724 49.7367 36.9657 49.87C37.0657 50.0033 37.199 50.11 37.3657 50.19C37.539 50.27 37.7424 50.31 37.9757 50.31C38.1957 50.31 38.3757 50.28 38.5157 50.22C38.6624 50.1533 38.769 50.0667 38.8357 49.96C38.9024 49.8467 38.9357 49.7267 38.9357 49.6C38.9357 49.4133 38.889 49.2733 38.7957 49.18C38.709 49.08 38.5757 49.0033 38.3957 48.95C38.2224 48.89 38.0124 48.8367 37.7657 48.79C37.5324 48.75 37.3057 48.6967 37.0857 48.63C36.8724 48.5567 36.679 48.4667 36.5057 48.36C36.339 48.2533 36.2057 48.12 36.1057 47.96C36.0057 47.7933 35.9557 47.59 35.9557 47.35C35.9557 47.0633 36.0324 46.8067 36.1857 46.58C36.339 46.3467 36.5557 46.1667 36.8357 46.04C37.1224 45.9067 37.459 45.84 37.8457 45.84C38.4057 45.84 38.8557 45.9733 39.1957 46.24C39.5357 46.5067 39.7357 46.8833 39.7957 47.37H38.8257C38.799 47.1433 38.699 46.97 38.5257 46.85C38.3524 46.7233 38.1224 46.66 37.8357 46.66C37.549 46.66 37.329 46.7167 37.1757 46.83C37.0224 46.9433 36.9457 47.0933 36.9457 47.28C36.9457 47.4 36.989 47.5067 37.0757 47.6C37.1624 47.6933 37.289 47.7733 37.4557 47.84C37.629 47.9 37.839 47.9567 38.0857 48.01C38.439 48.0767 38.7557 48.16 39.0357 48.26C39.3157 48.36 39.539 48.5067 39.7057 48.7C39.8724 48.8933 39.9557 49.17 39.9557 49.53C39.9624 49.8433 39.8824 50.12 39.7157 50.36C39.5557 50.6 39.3257 50.7867 39.0257 50.92C38.7324 51.0533 38.3824 51.12 37.9757 51.12Z" fill="#666666"/>
<path d="M47 23.25H121" stroke="#5C3FFF" stroke-width="1.5" stroke-linecap="round"/>
<g filter="url(#filter1_d_6_4036)">
<rect x="132" y="6" width="30" height="30" rx="15" fill="#18A20C"/>
<path d="M142.625 21.4375L146.125 24.9375L151.375 17.0625" stroke="white" stroke-linecap="round" stroke-linejoin="round"/>
</g>
<path d="M137.174 51.12C136.501 51.12 135.907 50.97 135.394 50.67C134.887 50.3633 134.487 49.94 134.194 49.4C133.907 48.8533 133.764 48.22 133.764 47.5C133.764 46.7867 133.907 46.16 134.194 45.62C134.487 45.0733 134.887 44.6467 135.394 44.34C135.907 44.0333 136.501 43.88 137.174 43.88C137.861 43.88 138.461 44.0333 138.974 44.34C139.487 44.6467 139.884 45.0733 140.164 45.62C140.451 46.16 140.594 46.7867 140.594 47.5C140.594 48.22 140.451 48.8533 140.164 49.4C139.884 49.94 139.487 50.3633 138.974 50.67C138.461 50.97 137.861 51.12 137.174 51.12ZM137.184 50.23C137.664 50.23 138.084 50.12 138.444 49.9C138.804 49.68 139.081 49.3667 139.274 48.96C139.474 48.5533 139.574 48.0667 139.574 47.5C139.574 46.9333 139.474 46.4467 139.274 46.04C139.081 45.6333 138.804 45.3233 138.444 45.11C138.084 44.89 137.664 44.78 137.184 44.78C136.704 44.78 136.284 44.89 135.924 45.11C135.564 45.3233 135.284 45.6333 135.084 46.04C134.884 46.4467 134.784 46.9333 134.784 47.5C134.784 48.0667 134.884 48.5533 135.084 48.96C135.284 49.3667 135.564 49.68 135.924 49.9C136.284 50.12 136.704 50.23 137.184 50.23ZM141.747 51V45.96H142.647L142.737 46.91C142.851 46.6833 142.997 46.4933 143.177 46.34C143.357 46.18 143.567 46.0567 143.807 45.97C144.054 45.8833 144.334 45.84 144.647 45.84V46.9H144.287C144.081 46.9 143.884 46.9267 143.697 46.98C143.511 47.0267 143.344 47.11 143.197 47.23C143.057 47.35 142.947 47.5133 142.867 47.72C142.787 47.9267 142.747 48.1833 142.747 48.49V51H141.747ZM147.659 51.12C147.179 51.12 146.756 51.0067 146.389 50.78C146.023 50.5467 145.736 50.2333 145.529 49.84C145.329 49.44 145.229 48.9867 145.229 48.48C145.229 47.9667 145.329 47.5133 145.529 47.12C145.736 46.7267 146.023 46.4167 146.389 46.19C146.763 45.9567 147.189 45.84 147.669 45.84C148.063 45.84 148.409 45.92 148.709 46.08C149.009 46.2333 149.243 46.4533 149.409 46.74V43.8H150.409V51H149.509L149.409 50.22C149.309 50.3733 149.179 50.52 149.019 50.66C148.859 50.7933 148.666 50.9033 148.439 50.99C148.213 51.0767 147.953 51.12 147.659 51.12ZM147.819 50.25C148.133 50.25 148.409 50.1767 148.649 50.03C148.889 49.8833 149.073 49.6767 149.199 49.41C149.333 49.1433 149.399 48.8333 149.399 48.48C149.399 48.1267 149.333 47.82 149.199 47.56C149.073 47.2933 148.889 47.0867 148.649 46.94C148.409 46.7867 148.133 46.71 147.819 46.71C147.519 46.71 147.249 46.7867 147.009 46.94C146.769 47.0867 146.583 47.2933 146.449 47.56C146.316 47.82 146.249 48.1267 146.249 48.48C146.249 48.8333 146.316 49.1433 146.449 49.41C146.583 49.6767 146.769 49.8833 147.009 50.03C147.249 50.1767 147.519 50.25 147.819 50.25ZM154.057 51.12C153.577 51.12 153.15 51.01 152.777 50.79C152.403 50.57 152.11 50.2633 151.897 49.87C151.69 49.4767 151.587 49.02 151.587 48.5C151.587 47.9667 151.69 47.5033 151.897 47.11C152.11 46.71 152.403 46.4 152.777 46.18C153.15 45.9533 153.583 45.84 154.077 45.84C154.57 45.84 154.993 45.95 155.347 46.17C155.7 46.39 155.973 46.6833 156.167 47.05C156.36 47.41 156.457 47.81 156.457 48.25C156.457 48.3167 156.453 48.39 156.447 48.47C156.447 48.5433 156.443 48.6267 156.437 48.72H152.317V48.01H155.457C155.437 47.59 155.297 47.2633 155.037 47.03C154.777 46.79 154.453 46.67 154.067 46.67C153.793 46.67 153.543 46.7333 153.317 46.86C153.09 46.98 152.907 47.16 152.767 47.4C152.633 47.6333 152.567 47.93 152.567 48.29V48.57C152.567 48.9433 152.633 49.26 152.767 49.52C152.907 49.7733 153.09 49.9667 153.317 50.1C153.543 50.2267 153.79 50.29 154.057 50.29C154.377 50.29 154.64 50.22 154.847 50.08C155.053 49.94 155.207 49.75 155.307 49.51H156.307C156.22 49.8167 156.073 50.0933 155.867 50.34C155.66 50.58 155.403 50.77 155.097 50.91C154.797 51.05 154.45 51.12 154.057 51.12ZM157.568 51V45.96H158.468L158.558 46.91C158.671 46.6833 158.818 46.4933 158.998 46.34C159.178 46.18 159.388 46.0567 159.628 45.97C159.874 45.8833 160.154 45.84 160.468 45.84V46.9H160.108C159.901 46.9 159.704 46.9267 159.518 46.98C159.331 47.0267 159.164 47.11 159.018 47.23C158.878 47.35 158.768 47.5133 158.688 47.72C158.608 47.9267 158.568 48.1833 158.568 48.49V51H157.568ZM129.029 64V57H131.419C131.979 57 132.439 57.0933 132.799 57.28C133.159 57.4667 133.425 57.7167 133.599 58.03C133.772 58.3433 133.859 58.7 133.859 59.1C133.859 59.48 133.772 59.83 133.599 60.15C133.432 60.4633 133.169 60.7167 132.809 60.91C132.449 61.0967 131.985 61.19 131.419 61.19H130.029V64H129.029ZM130.029 60.36H131.379C131.905 60.36 132.279 60.2467 132.499 60.02C132.725 59.7867 132.839 59.48 132.839 59.1C132.839 58.6933 132.725 58.38 132.499 58.16C132.279 57.94 131.905 57.83 131.379 57.83H130.029V60.36ZM134.887 64V58.96H135.787L135.877 59.91C135.99 59.6833 136.137 59.4933 136.317 59.34C136.497 59.18 136.707 59.0567 136.947 58.97C137.194 58.8833 137.474 58.84 137.787 58.84V59.9H137.427C137.22 59.9 137.024 59.9267 136.837 59.98C136.65 60.0267 136.484 60.11 136.337 60.23C136.197 60.35 136.087 60.5133 136.007 60.72C135.927 60.9267 135.887 61.1833 135.887 61.49V64H134.887ZM140.859 64.12C140.386 64.12 139.959 64.01 139.579 63.79C139.206 63.57 138.909 63.2633 138.689 62.87C138.476 62.47 138.369 62.01 138.369 61.49C138.369 60.9567 138.479 60.4933 138.699 60.1C138.919 59.7 139.219 59.39 139.599 59.17C139.979 58.95 140.406 58.84 140.879 58.84C141.359 58.84 141.786 58.95 142.159 59.17C142.532 59.39 142.826 59.6967 143.039 60.09C143.259 60.4833 143.369 60.9467 143.369 61.48C143.369 62.0133 143.259 62.4767 143.039 62.87C142.826 63.2633 142.529 63.57 142.149 63.79C141.769 64.01 141.339 64.12 140.859 64.12ZM140.859 63.26C141.132 63.26 141.379 63.1933 141.599 63.06C141.826 62.9267 142.006 62.73 142.139 62.47C142.279 62.2033 142.349 61.8733 142.349 61.48C142.349 61.0867 142.282 60.76 142.149 60.5C142.016 60.2333 141.836 60.0333 141.609 59.9C141.389 59.7667 141.146 59.7 140.879 59.7C140.612 59.7 140.366 59.7667 140.139 59.9C139.912 60.0333 139.729 60.2333 139.589 60.5C139.456 60.76 139.389 61.0867 139.389 61.48C139.389 61.8733 139.456 62.2033 139.589 62.47C139.729 62.73 139.909 62.9267 140.129 63.06C140.356 63.1933 140.599 63.26 140.859 63.26ZM146.875 64.12C146.389 64.12 145.955 64.01 145.575 63.79C145.195 63.5633 144.895 63.2533 144.675 62.86C144.462 62.4667 144.355 62.01 144.355 61.49C144.355 60.9633 144.462 60.5033 144.675 60.11C144.895 59.71 145.195 59.4 145.575 59.18C145.955 58.9533 146.389 58.84 146.875 58.84C147.489 58.84 148.002 59 148.415 59.32C148.829 59.64 149.092 60.0733 149.205 60.62H148.165C148.099 60.3267 147.945 60.1 147.705 59.94C147.472 59.78 147.192 59.7 146.865 59.7C146.599 59.7 146.352 59.77 146.125 59.91C145.899 60.0433 145.715 60.2433 145.575 60.51C145.442 60.77 145.375 61.0933 145.375 61.48C145.375 61.7667 145.415 62.0233 145.495 62.25C145.575 62.47 145.682 62.6567 145.815 62.81C145.955 62.9633 146.115 63.08 146.295 63.16C146.475 63.2333 146.665 63.27 146.865 63.27C147.085 63.27 147.282 63.2367 147.455 63.17C147.635 63.0967 147.785 62.99 147.905 62.85C148.032 62.71 148.119 62.5433 148.165 62.35H149.205C149.092 62.8833 148.829 63.3133 148.415 63.64C148.002 63.96 147.489 64.12 146.875 64.12ZM152.655 64.12C152.175 64.12 151.749 64.01 151.375 63.79C151.002 63.57 150.709 63.2633 150.495 62.87C150.289 62.4767 150.185 62.02 150.185 61.5C150.185 60.9667 150.289 60.5033 150.495 60.11C150.709 59.71 151.002 59.4 151.375 59.18C151.749 58.9533 152.182 58.84 152.675 58.84C153.169 58.84 153.592 58.95 153.945 59.17C154.299 59.39 154.572 59.6833 154.765 60.05C154.959 60.41 155.055 60.81 155.055 61.25C155.055 61.3167 155.052 61.39 155.045 61.47C155.045 61.5433 155.042 61.6267 155.035 61.72H150.915V61.01H154.055C154.035 60.59 153.895 60.2633 153.635 60.03C153.375 59.79 153.052 59.67 152.665 59.67C152.392 59.67 152.142 59.7333 151.915 59.86C151.689 59.98 151.505 60.16 151.365 60.4C151.232 60.6333 151.165 60.93 151.165 61.29V61.57C151.165 61.9433 151.232 62.26 151.365 62.52C151.505 62.7733 151.689 62.9667 151.915 63.1C152.142 63.2267 152.389 63.29 152.655 63.29C152.975 63.29 153.239 63.22 153.445 63.08C153.652 62.94 153.805 62.75 153.905 62.51H154.905C154.819 62.8167 154.672 63.0933 154.465 63.34C154.259 63.58 154.002 63.77 153.695 63.91C153.395 64.05 153.049 64.12 152.655 64.12ZM158.116 64.12C157.69 64.12 157.316 64.05 156.996 63.91C156.676 63.77 156.423 63.5733 156.236 63.32C156.05 63.0667 155.936 62.77 155.896 62.43H156.916C156.95 62.59 157.013 62.7367 157.106 62.87C157.206 63.0033 157.34 63.11 157.506 63.19C157.68 63.27 157.883 63.31 158.116 63.31C158.336 63.31 158.516 63.28 158.656 63.22C158.803 63.1533 158.91 63.0667 158.976 62.96C159.043 62.8467 159.076 62.7267 159.076 62.6C159.076 62.4133 159.03 62.2733 158.936 62.18C158.85 62.08 158.716 62.0033 158.536 61.95C158.363 61.89 158.153 61.8367 157.906 61.79C157.673 61.75 157.446 61.6967 157.226 61.63C157.013 61.5567 156.82 61.4667 156.646 61.36C156.48 61.2533 156.346 61.12 156.246 60.96C156.146 60.7933 156.096 60.59 156.096 60.35C156.096 60.0633 156.173 59.8067 156.326 59.58C156.48 59.3467 156.696 59.1667 156.976 59.04C157.263 58.9067 157.6 58.84 157.986 58.84C158.546 58.84 158.996 58.9733 159.336 59.24C159.676 59.5067 159.876 59.8833 159.936 60.37H158.966C158.94 60.1433 158.84 59.97 158.666 59.85C158.493 59.7233 158.263 59.66 157.976 59.66C157.69 59.66 157.47 59.7167 157.316 59.83C157.163 59.9433 157.086 60.0933 157.086 60.28C157.086 60.4 157.13 60.5067 157.216 60.6C157.303 60.6933 157.43 60.7733 157.596 60.84C157.77 60.9 157.98 60.9567 158.226 61.01C158.58 61.0767 158.896 61.16 159.176 61.26C159.456 61.36 159.68 61.5067 159.846 61.7C160.013 61.8933 160.096 62.17 160.096 62.53C160.103 62.8433 160.023 63.12 159.856 63.36C159.696 63.6 159.466 63.7867 159.166 63.92C158.873 64.0533 158.523 64.12 158.116 64.12ZM163.224 64.12C162.797 64.12 162.424 64.05 162.104 63.91C161.784 63.77 161.53 63.5733 161.344 63.32C161.157 63.0667 161.044 62.77 161.004 62.43H162.024C162.057 62.59 162.12 62.7367 162.214 62.87C162.314 63.0033 162.447 63.11 162.614 63.19C162.787 63.27 162.99 63.31 163.224 63.31C163.444 63.31 163.624 63.28 163.764 63.22C163.91 63.1533 164.017 63.0667 164.084 62.96C164.15 62.8467 164.184 62.7267 164.184 62.6C164.184 62.4133 164.137 62.2733 164.044 62.18C163.957 62.08 163.824 62.0033 163.644 61.95C163.47 61.89 163.26 61.8367 163.014 61.79C162.78 61.75 162.554 61.6967 162.334 61.63C162.12 61.5567 161.927 61.4667 161.754 61.36C161.587 61.2533 161.454 61.12 161.354 60.96C161.254 60.7933 161.204 60.59 161.204 60.35C161.204 60.0633 161.28 59.8067 161.434 59.58C161.587 59.3467 161.804 59.1667 162.084 59.04C162.37 58.9067 162.707 58.84 163.094 58.84C163.654 58.84 164.104 58.9733 164.444 59.24C164.784 59.5067 164.984 59.8833 165.044 60.37H164.074C164.047 60.1433 163.947 59.97 163.774 59.85C163.6 59.7233 163.37 59.66 163.084 59.66C162.797 59.66 162.577 59.7167 162.424 59.83C162.27 59.9433 162.194 60.0933 162.194 60.28C162.194 60.4 162.237 60.5067 162.324 60.6C162.41 60.6933 162.537 60.7733 162.704 60.84C162.877 60.9 163.087 60.9567 163.334 61.01C163.687 61.0767 164.004 61.16 164.284 61.26C164.564 61.36 164.787 61.5067 164.954 61.7C165.12 61.8933 165.204 62.17 165.204 62.53C165.21 62.8433 165.13 63.12 164.964 63.36C164.804 63.6 164.574 63.7867 164.274 63.92C163.98 64.0533 163.63 64.12 163.224 64.12Z" fill="#666666"/>
<path d="M173 23.25H247" stroke="#5C3FFF" stroke-width="1.5" stroke-linecap="round"/>
<g filter="url(#filter2_d_6_4036)">
<rect x="258" y="6" width="30" height="30" rx="15" fill="#18A20C"/>
<path d="M268.625 21.4375L272.125 24.9375L277.375 17.0625" stroke="white" stroke-linecap="round" stroke-linejoin="round"/>
</g>
<path d="M252.954 51V44H255.344C255.904 44 256.364 44.0933 256.724 44.28C257.084 44.4667 257.35 44.7167 257.524 45.03C257.697 45.3433 257.784 45.7 257.784 46.1C257.784 46.48 257.697 46.83 257.524 47.15C257.357 47.4633 257.094 47.7167 256.734 47.91C256.374 48.0967 255.91 48.19 255.344 48.19H253.954V51H252.954ZM253.954 47.36H255.304C255.83 47.36 256.204 47.2467 256.424 47.02C256.65 46.7867 256.764 46.48 256.764 46.1C256.764 45.6933 256.65 45.38 256.424 45.16C256.204 44.94 255.83 44.83 255.304 44.83H253.954V47.36ZM260.218 51.12C259.805 51.12 259.461 51.05 259.188 50.91C258.915 50.77 258.711 50.5833 258.578 50.35C258.445 50.11 258.378 49.8533 258.378 49.58C258.378 49.2467 258.465 48.9633 258.638 48.73C258.811 48.49 259.058 48.3067 259.378 48.18C259.698 48.0533 260.081 47.99 260.528 47.99H261.838C261.838 47.6967 261.795 47.4533 261.708 47.26C261.621 47.0667 261.491 46.9233 261.318 46.83C261.151 46.73 260.938 46.68 260.678 46.68C260.378 46.68 260.121 46.7533 259.908 46.9C259.695 47.04 259.561 47.25 259.508 47.53H258.508C258.548 47.1767 258.668 46.8767 258.868 46.63C259.075 46.3767 259.338 46.1833 259.658 46.05C259.978 45.91 260.318 45.84 260.678 45.84C261.151 45.84 261.548 45.9233 261.868 46.09C262.188 46.2567 262.428 46.4933 262.588 46.8C262.755 47.1 262.838 47.46 262.838 47.88V51H261.968L261.888 50.15C261.815 50.2833 261.728 50.41 261.628 50.53C261.528 50.65 261.408 50.7533 261.268 50.84C261.135 50.9267 260.978 50.9933 260.798 51.04C260.625 51.0933 260.431 51.12 260.218 51.12ZM260.408 50.31C260.621 50.31 260.815 50.2667 260.988 50.18C261.161 50.0933 261.308 49.9767 261.428 49.83C261.555 49.6767 261.648 49.5067 261.708 49.32C261.775 49.1267 261.811 48.93 261.818 48.73V48.7H260.628C260.341 48.7 260.108 48.7367 259.928 48.81C259.755 48.8767 259.628 48.97 259.548 49.09C259.468 49.21 259.428 49.35 259.428 49.51C259.428 49.6767 259.465 49.82 259.538 49.94C259.618 50.0533 259.731 50.1433 259.878 50.21C260.025 50.2767 260.201 50.31 260.408 50.31ZM264.538 53.2L265.768 50.44H265.478L263.488 45.96H264.568L266.148 49.62L267.738 45.96H268.788L265.588 53.2H264.538ZM269.671 51V45.96H270.571L270.641 46.67C270.801 46.41 271.015 46.2067 271.281 46.06C271.548 45.9133 271.848 45.84 272.181 45.84C272.435 45.84 272.665 45.8767 272.871 45.95C273.078 46.0167 273.261 46.12 273.421 46.26C273.581 46.4 273.711 46.5733 273.811 46.78C273.991 46.4867 274.231 46.2567 274.531 46.09C274.838 45.9233 275.161 45.84 275.501 45.84C275.908 45.84 276.258 45.9233 276.551 46.09C276.845 46.25 277.068 46.4933 277.221 46.82C277.375 47.14 277.451 47.54 277.451 48.02V51H276.461V48.12C276.461 47.6533 276.365 47.3 276.171 47.06C275.985 46.82 275.708 46.7 275.341 46.7C275.095 46.7 274.875 46.7633 274.681 46.89C274.488 47.0167 274.335 47.2 274.221 47.44C274.115 47.68 274.061 47.9733 274.061 48.32V51H273.061V48.12C273.061 47.6533 272.965 47.3 272.771 47.06C272.585 46.82 272.308 46.7 271.941 46.7C271.708 46.7 271.495 46.7633 271.301 46.89C271.108 47.0167 270.955 47.2 270.841 47.44C270.728 47.68 270.671 47.9733 270.671 48.32V51H269.671ZM281.023 51.12C280.543 51.12 280.117 51.01 279.743 50.79C279.37 50.57 279.077 50.2633 278.863 49.87C278.657 49.4767 278.553 49.02 278.553 48.5C278.553 47.9667 278.657 47.5033 278.863 47.11C279.077 46.71 279.37 46.4 279.743 46.18C280.117 45.9533 280.55 45.84 281.043 45.84C281.537 45.84 281.96 45.95 282.313 46.17C282.667 46.39 282.94 46.6833 283.133 47.05C283.327 47.41 283.423 47.81 283.423 48.25C283.423 48.3167 283.42 48.39 283.413 48.47C283.413 48.5433 283.41 48.6267 283.403 48.72H279.283V48.01H282.423C282.403 47.59 282.263 47.2633 282.003 47.03C281.743 46.79 281.42 46.67 281.033 46.67C280.76 46.67 280.51 46.7333 280.283 46.86C280.057 46.98 279.873 47.16 279.733 47.4C279.6 47.6333 279.533 47.93 279.533 48.29V48.57C279.533 48.9433 279.6 49.26 279.733 49.52C279.873 49.7733 280.057 49.9667 280.283 50.1C280.51 50.2267 280.757 50.29 281.023 50.29C281.343 50.29 281.607 50.22 281.813 50.08C282.02 49.94 282.173 49.75 282.273 49.51H283.273C283.187 49.8167 283.04 50.0933 282.833 50.34C282.627 50.58 282.37 50.77 282.063 50.91C281.763 51.05 281.417 51.12 281.023 51.12ZM284.534 51V45.96H285.434L285.494 46.82C285.654 46.52 285.881 46.2833 286.174 46.11C286.468 45.93 286.804 45.84 287.184 45.84C287.584 45.84 287.928 45.92 288.214 46.08C288.501 46.24 288.724 46.4833 288.884 46.81C289.044 47.13 289.124 47.5333 289.124 48.02V51H288.124V48.12C288.124 47.6533 288.021 47.3 287.814 47.06C287.608 46.82 287.308 46.7 286.914 46.7C286.654 46.7 286.421 46.7633 286.214 46.89C286.008 47.01 285.841 47.19 285.714 47.43C285.594 47.67 285.534 47.9633 285.534 48.31V51H284.534ZM292.484 51C292.164 51 291.887 50.95 291.654 50.85C291.42 50.75 291.24 50.5833 291.114 50.35C290.987 50.1167 290.924 49.8 290.924 49.4V46.81H290.054V45.96H290.924L291.044 44.7H291.924V45.96H293.354V46.81H291.924V49.41C291.924 49.6967 291.984 49.8933 292.104 50C292.224 50.1 292.43 50.15 292.724 50.15H293.304V51H292.484Z" fill="#666666"/>
<defs>
<filter id="filter0_d_6_4036" x="0" y="0" width="42" height="42" filterUnits="userSpaceOnUse" color-interpolation-filters="sRGB">
<feFlood flood-opacity="0" result="BackgroundImageFix"/>
<feColorMatrix in="SourceAlpha" type="matrix" values="0 0 0 0 0 0 0 0 0 0 0 0 0 0 0 0 0 0 127 0" result="hardAlpha"/>
<feOffset/>
<feGaussianBlur stdDeviation="3"/>
<feComposite in2="hardAlpha" operator="out"/>
<feColorMatrix type="matrix" values="0 0 0 0 0.138505 0 0 0 0 0.7075 0 0 0 0 0.0890271 0 0 0 0.5 0"/>
<feBlend mode="normal" in2="BackgroundImageFix" result="effect1_dropShadow_6_4036"/>
<feBlend mode="normal" in="SourceGraphic" in2="effect1_dropShadow_6_4036" result="shape"/>
</filter>
<filter id="filter1_d_6_4036" x="126" y="0" width="42" height="42" filterUnits="userSpaceOnUse" color-interpolation-filters="sRGB">
<feFlood flood-opacity="0" result="BackgroundImageFix"/>
<feColorMatrix in="SourceAlpha" type="matrix" values="0 0 0 0 0 0 0 0 0 0 0 0 0 0 0 0 0 0 127 0" result="hardAlpha"/>
<feOffset/>
<feGaussianBlur stdDeviation="3"/>
<feComposite in2="hardAlpha" operator="out"/>
<feColorMatrix type="matrix" values="0 0 0 0 0.138505 0 0 0 0 0.7075 0 0 0 0 0.0890271 0 0 0 0.5 0"/>
<feBlend mode="normal" in2="BackgroundImageFix" result="effect1_dropShadow_6_4036"/>
<feBlend mode="normal" in="SourceGraphic" in2="effect1_dropShadow_6_4036" result="shape"/>
</filter>
<filter id="filter2_d_6_4036" x="252" y="0" width="42" height="42" filterUnits="userSpaceOnUse" color-interpolation-filters="sRGB">
<feFlood flood-opacity="0" result="BackgroundImageFix"/>
<feColorMatrix in="SourceAlpha" type="matrix" values="0 0 0 0 0 0 0 0 0 0 0 0 0 0 0 0 0 0 127 0" result="hardAlpha"/>
<feOffset/>
<feGaussianBlur stdDeviation="3"/>
<feComposite in2="hardAlpha" operator="out"/>
<feColorMatrix type="matrix" values="0 0 0 0 0.138505 0 0 0 0 0.7075 0 0 0 0 0.0890271 0 0 0 0.5 0"/>
<feBlend mode="normal" in2="BackgroundImageFix" result="effect1_dropShadow_6_4036"/>
<feBlend mode="normal" in="SourceGraphic" in2="effect1_dropShadow_6_4036" result="shape"/>
</filter>
</defs>
</svg>
