<svg width="13" height="12" viewBox="0 0 13 12" fill="none" xmlns="http://www.w3.org/2000/svg">
<path d="M5.13977 1.47773C5.729 0.40442 7.271 0.40442 7.86023 1.47773L8.49333 2.63096C8.7162 3.03692 9.10874 3.32212 9.5637 3.40863L10.8561 3.65438C12.059 3.8831 12.5355 5.34963 11.6968 6.24169L10.7956 7.20017C10.4784 7.53758 10.3285 7.99904 10.3868 8.45847L10.5525 9.76358C10.7066 10.9782 9.45914 11.8846 8.35157 11.3626L7.16152 10.8018C6.7426 10.6043 6.2574 10.6043 5.83847 10.8018L4.64843 11.3626C3.54086 11.8846 2.29335 10.9782 2.44754 9.76358L2.6132 8.45847C2.67151 7.99904 2.52157 7.53758 2.20435 7.20017L1.3032 6.24169C0.464506 5.34963 0.941012 3.8831 2.14387 3.65438L3.4363 3.40863C3.89126 3.32212 4.2838 3.03692 4.50667 2.63096L5.13977 1.47773Z" fill="#FF9A42"/>
</svg>
