<svg width="290" height="45" viewBox="0 0 290 45" fill="none" xmlns="http://www.w3.org/2000/svg">
<g filter="url(#filter0_d_6_3968)">
<path d="M20.5 22.5H26.5M23.5 25.5V19.5M23.5 30C27.625 30 31 26.625 31 22.5C31 18.375 27.625 15 23.5 15C19.375 15 16 18.375 16 22.5C16 26.625 19.375 30 23.5 30Z" stroke="#5C3FFF" stroke-linecap="round" stroke-linejoin="round"/>
<path d="M42.6758 26.5L45.7598 18.1H47.0678L50.1518 26.5H48.8678L46.4078 19.54L43.9358 26.5H42.6758ZM44.0678 24.424L44.4038 23.464H48.3518L48.6878 24.424H44.0678ZM53.6243 26.644C53.0643 26.644 52.5643 26.504 52.1243 26.224C51.6923 25.944 51.3563 25.564 51.1163 25.084C50.8763 24.596 50.7563 24.044 50.7563 23.428C50.7563 22.804 50.8763 22.252 51.1163 21.772C51.3643 21.284 51.7043 20.9 52.1363 20.62C52.5763 20.34 53.0843 20.2 53.6603 20.2C54.1323 20.2 54.5443 20.296 54.8963 20.488C55.2483 20.672 55.5243 20.932 55.7243 21.268V17.86H56.9243V26.5H55.8563L55.7363 25.552C55.6083 25.744 55.4483 25.924 55.2563 26.092C55.0723 26.252 54.8443 26.384 54.5723 26.488C54.3003 26.592 53.9843 26.644 53.6243 26.644ZM53.8403 25.6C54.2163 25.6 54.5443 25.512 54.8243 25.336C55.1123 25.152 55.3323 24.9 55.4843 24.58C55.6363 24.252 55.7123 23.868 55.7123 23.428C55.7123 22.988 55.6363 22.604 55.4843 22.276C55.3323 21.948 55.1123 21.696 54.8243 21.52C54.5443 21.336 54.2163 21.244 53.8403 21.244C53.4803 21.244 53.1603 21.336 52.8803 21.52C52.6003 21.696 52.3803 21.948 52.2203 22.276C52.0603 22.604 51.9803 22.988 51.9803 23.428C51.9803 23.86 52.0603 24.24 52.2203 24.568C52.3803 24.896 52.6003 25.152 52.8803 25.336C53.1603 25.512 53.4803 25.6 53.8403 25.6ZM61.2532 26.644C60.6932 26.644 60.1932 26.504 59.7532 26.224C59.3212 25.944 58.9852 25.564 58.7452 25.084C58.5052 24.596 58.3852 24.044 58.3852 23.428C58.3852 22.804 58.5052 22.252 58.7452 21.772C58.9932 21.284 59.3332 20.9 59.7652 20.62C60.2052 20.34 60.7132 20.2 61.2892 20.2C61.7612 20.2 62.1732 20.296 62.5252 20.488C62.8772 20.672 63.1532 20.932 63.3532 21.268V17.86H64.5532V26.5H63.4852L63.3652 25.552C63.2372 25.744 63.0772 25.924 62.8852 26.092C62.7012 26.252 62.4732 26.384 62.2012 26.488C61.9292 26.592 61.6132 26.644 61.2532 26.644ZM61.4692 25.6C61.8452 25.6 62.1732 25.512 62.4532 25.336C62.7412 25.152 62.9612 24.9 63.1132 24.58C63.2652 24.252 63.3412 23.868 63.3412 23.428C63.3412 22.988 63.2652 22.604 63.1132 22.276C62.9612 21.948 62.7412 21.696 62.4532 21.52C62.1732 21.336 61.8452 21.244 61.4692 21.244C61.1092 21.244 60.7892 21.336 60.5092 21.52C60.2292 21.696 60.0092 21.948 59.8492 22.276C59.6892 22.604 59.6092 22.988 59.6092 23.428C59.6092 23.86 59.6892 24.24 59.8492 24.568C60.0092 24.896 60.2292 25.152 60.5092 25.336C60.7892 25.512 61.1092 25.6 61.4692 25.6ZM69.3604 26.5V18.1H70.5604L74.8444 24.544V18.1H76.0444V26.5H74.8444L70.5604 20.068V26.5H69.3604ZM80.4739 26.644C79.8979 26.644 79.3859 26.512 78.9379 26.248C78.4899 25.984 78.1379 25.616 77.8819 25.144C77.6339 24.672 77.5099 24.124 77.5099 23.5C77.5099 22.86 77.6339 22.304 77.8819 21.832C78.1379 21.352 78.4899 20.98 78.9379 20.716C79.3859 20.444 79.9059 20.308 80.4979 20.308C81.0899 20.308 81.5979 20.44 82.0219 20.704C82.4459 20.968 82.7739 21.32 83.0059 21.76C83.2379 22.192 83.3539 22.672 83.3539 23.2C83.3539 23.28 83.3499 23.368 83.3419 23.464C83.3419 23.552 83.3379 23.652 83.3299 23.764H78.3859V22.912H82.1539C82.1299 22.408 81.9619 22.016 81.6499 21.736C81.3379 21.448 80.9499 21.304 80.4859 21.304C80.1579 21.304 79.8579 21.38 79.5859 21.532C79.3139 21.676 79.0939 21.892 78.9259 22.18C78.7659 22.46 78.6859 22.816 78.6859 23.248V23.584C78.6859 24.032 78.7659 24.412 78.9259 24.724C79.0939 25.028 79.3139 25.26 79.5859 25.42C79.8579 25.572 80.1539 25.648 80.4739 25.648C80.8579 25.648 81.1739 25.564 81.4219 25.396C81.6699 25.228 81.8539 25 81.9739 24.712H83.1739C83.0699 25.08 82.8939 25.412 82.6459 25.708C82.3979 25.996 82.0899 26.224 81.7219 26.392C81.3619 26.56 80.9459 26.644 80.4739 26.644ZM85.6767 26.5L83.9007 20.452H85.0887L86.4087 25.492L86.1807 25.48L87.6447 20.452H88.9887L90.4527 25.48L90.2247 25.492L91.5327 20.452H92.7447L90.9687 26.5H89.7327L88.1967 21.256H88.4367L86.9007 26.5H85.6767ZM100.618 26.644C99.802 26.644 99.098 26.464 98.506 26.104C97.914 25.736 97.458 25.228 97.138 24.58C96.818 23.924 96.658 23.164 96.658 22.3C96.658 21.444 96.818 20.688 97.138 20.032C97.458 19.376 97.914 18.868 98.506 18.508C99.098 18.14 99.802 17.956 100.618 17.956C101.594 17.956 102.386 18.192 102.994 18.664C103.602 19.136 103.99 19.8 104.158 20.656H102.85C102.722 20.16 102.474 19.764 102.106 19.468C101.738 19.172 101.238 19.024 100.606 19.024C100.054 19.024 99.57 19.156 99.154 19.42C98.746 19.684 98.43 20.06 98.206 20.548C97.99 21.036 97.882 21.62 97.882 22.3C97.882 22.98 97.99 23.568 98.206 24.064C98.43 24.552 98.746 24.928 99.154 25.192C99.57 25.448 100.054 25.576 100.606 25.576C101.238 25.576 101.738 25.436 102.106 25.156C102.474 24.868 102.722 24.48 102.85 23.992H104.158C103.99 24.824 103.602 25.476 102.994 25.948C102.386 26.412 101.594 26.644 100.618 26.644ZM105.582 26.5V20.452H106.662L106.77 21.592C106.906 21.32 107.082 21.092 107.298 20.908C107.514 20.716 107.766 20.568 108.054 20.464C108.35 20.36 108.686 20.308 109.062 20.308V21.58H108.63C108.382 21.58 108.146 21.612 107.922 21.676C107.698 21.732 107.498 21.832 107.322 21.976C107.154 22.12 107.022 22.316 106.926 22.564C106.83 22.812 106.782 23.12 106.782 23.488V26.5H105.582ZM112.724 26.644C112.148 26.644 111.636 26.512 111.188 26.248C110.74 25.984 110.388 25.616 110.132 25.144C109.884 24.672 109.76 24.124 109.76 23.5C109.76 22.86 109.884 22.304 110.132 21.832C110.388 21.352 110.74 20.98 111.188 20.716C111.636 20.444 112.156 20.308 112.748 20.308C113.34 20.308 113.848 20.44 114.272 20.704C114.696 20.968 115.024 21.32 115.256 21.76C115.488 22.192 115.604 22.672 115.604 23.2C115.604 23.28 115.6 23.368 115.592 23.464C115.592 23.552 115.588 23.652 115.58 23.764H110.636V22.912H114.404C114.38 22.408 114.212 22.016 113.9 21.736C113.588 21.448 113.2 21.304 112.736 21.304C112.408 21.304 112.108 21.38 111.836 21.532C111.564 21.676 111.344 21.892 111.176 22.18C111.016 22.46 110.936 22.816 110.936 23.248V23.584C110.936 24.032 111.016 24.412 111.176 24.724C111.344 25.028 111.564 25.26 111.836 25.42C112.108 25.572 112.404 25.648 112.724 25.648C113.108 25.648 113.424 25.564 113.672 25.396C113.92 25.228 114.104 25 114.224 24.712H115.424C115.32 25.08 115.144 25.412 114.896 25.708C114.648 25.996 114.34 26.224 113.972 26.392C113.612 26.56 113.196 26.644 112.724 26.644ZM119.589 26.644C119.029 26.644 118.529 26.504 118.089 26.224C117.657 25.944 117.321 25.564 117.081 25.084C116.841 24.596 116.721 24.044 116.721 23.428C116.721 22.804 116.841 22.252 117.081 21.772C117.329 21.284 117.669 20.9 118.101 20.62C118.541 20.34 119.049 20.2 119.625 20.2C120.097 20.2 120.509 20.296 120.861 20.488C121.213 20.672 121.489 20.932 121.689 21.268V17.86H122.889V26.5H121.821L121.701 25.552C121.573 25.744 121.413 25.924 121.221 26.092C121.037 26.252 120.809 26.384 120.537 26.488C120.265 26.592 119.949 26.644 119.589 26.644ZM119.805 25.6C120.181 25.6 120.509 25.512 120.789 25.336C121.077 25.152 121.297 24.9 121.449 24.58C121.601 24.252 121.677 23.868 121.677 23.428C121.677 22.988 121.601 22.604 121.449 22.276C121.297 21.948 121.077 21.696 120.789 21.52C120.509 21.336 120.181 21.244 119.805 21.244C119.445 21.244 119.125 21.336 118.845 21.52C118.565 21.696 118.345 21.948 118.185 22.276C118.025 22.604 117.945 22.988 117.945 23.428C117.945 23.86 118.025 24.24 118.185 24.568C118.345 24.896 118.565 25.152 118.845 25.336C119.125 25.512 119.445 25.6 119.805 25.6ZM124.65 26.5V20.452H125.85V26.5H124.65ZM125.262 19.312C125.03 19.312 124.838 19.24 124.686 19.096C124.542 18.952 124.47 18.768 124.47 18.544C124.47 18.328 124.542 18.152 124.686 18.016C124.838 17.872 125.03 17.8 125.262 17.8C125.486 17.8 125.674 17.872 125.826 18.016C125.978 18.152 126.054 18.328 126.054 18.544C126.054 18.768 125.978 18.952 125.826 19.096C125.674 19.24 125.486 19.312 125.262 19.312ZM130.098 26.5C129.714 26.5 129.382 26.44 129.102 26.32C128.822 26.2 128.606 26 128.454 25.72C128.302 25.44 128.226 25.06 128.226 24.58V21.364H127.17V20.344H128.226L128.382 18.784H129.426V20.344H131.154V21.364H129.426V24.592C129.426 24.936 129.498 25.172 129.642 25.3C129.786 25.42 130.034 25.48 130.386 25.48H131.118V26.5H130.098ZM138.26 26.644C137.692 26.644 137.18 26.512 136.724 26.248C136.276 25.984 135.92 25.616 135.656 25.144C135.4 24.664 135.272 24.112 135.272 23.488C135.272 22.848 135.404 22.292 135.668 21.82C135.932 21.34 136.292 20.968 136.748 20.704C137.204 20.44 137.716 20.308 138.284 20.308C138.86 20.308 139.372 20.44 139.82 20.704C140.268 20.968 140.62 21.336 140.876 21.808C141.14 22.28 141.272 22.836 141.272 23.476C141.272 24.116 141.14 24.672 140.876 25.144C140.62 25.616 140.264 25.984 139.808 26.248C139.352 26.512 138.836 26.644 138.26 26.644ZM138.26 25.612C138.588 25.612 138.884 25.532 139.148 25.372C139.42 25.212 139.636 24.976 139.796 24.664C139.964 24.344 140.048 23.948 140.048 23.476C140.048 23.004 139.968 22.612 139.808 22.3C139.648 21.98 139.432 21.74 139.16 21.58C138.896 21.42 138.604 21.34 138.284 21.34C137.964 21.34 137.668 21.42 137.396 21.58C137.124 21.74 136.904 21.98 136.736 22.3C136.576 22.612 136.496 23.004 136.496 23.476C136.496 23.948 136.576 24.344 136.736 24.664C136.904 24.976 137.12 25.212 137.384 25.372C137.656 25.532 137.948 25.612 138.26 25.612ZM142.683 26.5V20.452H143.763L143.871 21.592C144.007 21.32 144.183 21.092 144.399 20.908C144.615 20.716 144.867 20.568 145.155 20.464C145.451 20.36 145.787 20.308 146.163 20.308V21.58H145.731C145.483 21.58 145.247 21.612 145.023 21.676C144.799 21.732 144.599 21.832 144.423 21.976C144.255 22.12 144.123 22.316 144.027 22.564C143.931 22.812 143.883 23.12 143.883 23.488V26.5H142.683ZM150.396 26.5V18.1H152.976C153.952 18.1 154.76 18.272 155.4 18.616C156.04 18.96 156.512 19.448 156.816 20.08C157.128 20.704 157.284 21.448 157.284 22.312C157.284 23.176 157.128 23.92 156.816 24.544C156.512 25.168 156.04 25.652 155.4 25.996C154.768 26.332 153.96 26.5 152.976 26.5H150.396ZM151.596 25.492H152.928C153.704 25.492 154.32 25.364 154.776 25.108C155.232 24.852 155.556 24.488 155.748 24.016C155.948 23.536 156.048 22.968 156.048 22.312C156.048 21.648 155.948 21.076 155.748 20.596C155.556 20.116 155.232 19.748 154.776 19.492C154.32 19.236 153.704 19.108 152.928 19.108H151.596V25.492ZM161.404 26.644C160.828 26.644 160.316 26.512 159.868 26.248C159.42 25.984 159.068 25.616 158.812 25.144C158.564 24.672 158.44 24.124 158.44 23.5C158.44 22.86 158.564 22.304 158.812 21.832C159.068 21.352 159.42 20.98 159.868 20.716C160.316 20.444 160.836 20.308 161.428 20.308C162.02 20.308 162.528 20.44 162.952 20.704C163.376 20.968 163.704 21.32 163.936 21.76C164.168 22.192 164.284 22.672 164.284 23.2C164.284 23.28 164.28 23.368 164.272 23.464C164.272 23.552 164.268 23.652 164.26 23.764H159.316V22.912H163.084C163.06 22.408 162.892 22.016 162.58 21.736C162.268 21.448 161.88 21.304 161.416 21.304C161.088 21.304 160.788 21.38 160.516 21.532C160.244 21.676 160.024 21.892 159.856 22.18C159.696 22.46 159.616 22.816 159.616 23.248V23.584C159.616 24.032 159.696 24.412 159.856 24.724C160.024 25.028 160.244 25.26 160.516 25.42C160.788 25.572 161.084 25.648 161.404 25.648C161.788 25.648 162.104 25.564 162.352 25.396C162.6 25.228 162.784 25 162.904 24.712H164.104C164 25.08 163.824 25.412 163.576 25.708C163.328 25.996 163.02 26.224 162.652 26.392C162.292 26.56 161.876 26.644 161.404 26.644ZM168.917 26.644C168.573 26.644 168.265 26.596 167.993 26.5C167.729 26.396 167.497 26.264 167.297 26.104C167.105 25.944 166.949 25.768 166.829 25.576L166.709 26.5H165.629V17.86H166.829V21.292C167.021 20.964 167.293 20.7 167.645 20.5C168.005 20.3 168.425 20.2 168.905 20.2C169.481 20.2 169.985 20.34 170.417 20.62C170.857 20.9 171.197 21.28 171.437 21.76C171.685 22.24 171.809 22.792 171.809 23.416C171.809 24.032 171.685 24.584 171.437 25.072C171.197 25.56 170.861 25.944 170.429 26.224C169.997 26.504 169.493 26.644 168.917 26.644ZM168.713 25.6C169.073 25.6 169.393 25.512 169.673 25.336C169.953 25.152 170.173 24.9 170.333 24.58C170.501 24.252 170.585 23.868 170.585 23.428C170.585 22.988 170.501 22.604 170.333 22.276C170.173 21.948 169.953 21.696 169.673 21.52C169.393 21.336 169.073 21.244 168.713 21.244C168.337 21.244 168.009 21.336 167.729 21.52C167.449 21.696 167.229 21.948 167.069 22.276C166.917 22.604 166.841 22.988 166.841 23.428C166.841 23.868 166.917 24.252 167.069 24.58C167.229 24.9 167.449 25.152 167.729 25.336C168.009 25.512 168.337 25.6 168.713 25.6ZM173.318 26.5V20.452H174.518V26.5H173.318ZM173.93 19.312C173.698 19.312 173.506 19.24 173.354 19.096C173.21 18.952 173.138 18.768 173.138 18.544C173.138 18.328 173.21 18.152 173.354 18.016C173.506 17.872 173.698 17.8 173.93 17.8C174.154 17.8 174.342 17.872 174.494 18.016C174.646 18.152 174.722 18.328 174.722 18.544C174.722 18.768 174.646 18.952 174.494 19.096C174.342 19.24 174.154 19.312 173.93 19.312ZM178.766 26.5C178.382 26.5 178.05 26.44 177.77 26.32C177.49 26.2 177.274 26 177.122 25.72C176.97 25.44 176.894 25.06 176.894 24.58V21.364H175.838V20.344H176.894L177.05 18.784H178.094V20.344H179.822V21.364H178.094V24.592C178.094 24.936 178.166 25.172 178.31 25.3C178.454 25.42 178.702 25.48 179.054 25.48H179.786V26.5H178.766ZM186.976 26.644C186.392 26.644 185.872 26.508 185.416 26.236C184.96 25.964 184.6 25.588 184.336 25.108C184.08 24.628 183.952 24.072 183.952 23.44C183.952 22.792 184.08 22.228 184.336 21.748C184.6 21.26 184.96 20.88 185.416 20.608C185.872 20.336 186.392 20.2 186.976 20.2C187.712 20.2 188.328 20.396 188.824 20.788C189.32 21.172 189.636 21.696 189.772 22.36H188.524C188.444 22.008 188.26 21.732 187.972 21.532C187.684 21.332 187.348 21.232 186.964 21.232C186.628 21.232 186.324 21.316 186.052 21.484C185.78 21.652 185.564 21.9 185.404 22.228C185.252 22.548 185.176 22.948 185.176 23.428C185.176 23.78 185.22 24.096 185.308 24.376C185.404 24.648 185.532 24.876 185.692 25.06C185.852 25.244 186.04 25.384 186.256 25.48C186.472 25.576 186.708 25.624 186.964 25.624C187.22 25.624 187.456 25.58 187.672 25.492C187.888 25.404 188.068 25.276 188.212 25.108C188.364 24.932 188.468 24.728 188.524 24.496H189.772C189.636 25.136 189.316 25.656 188.812 26.056C188.316 26.448 187.704 26.644 186.976 26.644ZM193.168 26.644C192.672 26.644 192.26 26.56 191.932 26.392C191.604 26.224 191.36 26 191.2 25.72C191.04 25.432 190.96 25.124 190.96 24.796C190.96 24.396 191.064 24.056 191.272 23.776C191.48 23.488 191.776 23.268 192.16 23.116C192.544 22.964 193.004 22.888 193.54 22.888H195.112C195.112 22.536 195.06 22.244 194.956 22.012C194.852 21.78 194.696 21.608 194.488 21.496C194.288 21.376 194.032 21.316 193.72 21.316C193.36 21.316 193.052 21.404 192.796 21.58C192.54 21.748 192.38 22 192.316 22.336H191.116C191.164 21.912 191.308 21.552 191.548 21.256C191.796 20.952 192.112 20.72 192.496 20.56C192.88 20.392 193.288 20.308 193.72 20.308C194.288 20.308 194.764 20.408 195.148 20.608C195.532 20.808 195.82 21.092 196.012 21.46C196.212 21.82 196.312 22.252 196.312 22.756V26.5H195.268L195.172 25.48C195.084 25.64 194.98 25.792 194.86 25.936C194.74 26.08 194.596 26.204 194.428 26.308C194.268 26.412 194.08 26.492 193.864 26.548C193.656 26.612 193.424 26.644 193.168 26.644ZM193.396 25.672C193.652 25.672 193.884 25.62 194.092 25.516C194.3 25.412 194.476 25.272 194.62 25.096C194.772 24.912 194.884 24.708 194.956 24.484C195.036 24.252 195.08 24.016 195.088 23.776V23.74H193.66C193.316 23.74 193.036 23.784 192.82 23.872C192.612 23.952 192.46 24.064 192.364 24.208C192.268 24.352 192.22 24.52 192.22 24.712C192.22 24.912 192.264 25.084 192.352 25.228C192.448 25.364 192.584 25.472 192.76 25.552C192.936 25.632 193.148 25.672 193.396 25.672ZM197.843 26.5V20.452H198.923L199.031 21.592C199.167 21.32 199.343 21.092 199.559 20.908C199.775 20.716 200.027 20.568 200.315 20.464C200.611 20.36 200.947 20.308 201.323 20.308V21.58H200.891C200.643 21.58 200.407 21.612 200.183 21.676C199.959 21.732 199.759 21.832 199.583 21.976C199.415 22.12 199.283 22.316 199.187 22.564C199.091 22.812 199.043 23.12 199.043 23.488V26.5H197.843ZM204.902 26.644C204.342 26.644 203.842 26.504 203.402 26.224C202.97 25.944 202.634 25.564 202.394 25.084C202.154 24.596 202.034 24.044 202.034 23.428C202.034 22.804 202.154 22.252 202.394 21.772C202.642 21.284 202.982 20.9 203.414 20.62C203.854 20.34 204.362 20.2 204.938 20.2C205.41 20.2 205.822 20.296 206.174 20.488C206.526 20.672 206.802 20.932 207.002 21.268V17.86H208.202V26.5H207.134L207.014 25.552C206.886 25.744 206.726 25.924 206.534 26.092C206.35 26.252 206.122 26.384 205.85 26.488C205.578 26.592 205.262 26.644 204.902 26.644ZM205.118 25.6C205.494 25.6 205.822 25.512 206.102 25.336C206.39 25.152 206.61 24.9 206.762 24.58C206.914 24.252 206.99 23.868 206.99 23.428C206.99 22.988 206.914 22.604 206.762 22.276C206.61 21.948 206.39 21.696 206.102 21.52C205.822 21.336 205.494 21.244 205.118 21.244C204.758 21.244 204.438 21.336 204.158 21.52C203.878 21.696 203.658 21.948 203.498 22.276C203.338 22.604 203.258 22.988 203.258 23.428C203.258 23.86 203.338 24.24 203.498 24.568C203.658 24.896 203.878 25.152 204.158 25.336C204.438 25.512 204.758 25.6 205.118 25.6ZM212.23 26.644C211.687 26.644 211.223 26.56 210.839 26.392C210.455 26.216 210.155 25.976 209.939 25.672C209.731 25.36 209.607 25.004 209.567 24.604H210.779C210.819 24.796 210.895 24.972 211.007 25.132C211.119 25.292 211.275 25.424 211.475 25.528C211.683 25.624 211.935 25.672 212.23 25.672C212.487 25.672 212.703 25.636 212.879 25.564C213.055 25.484 213.183 25.376 213.263 25.24C213.351 25.104 213.395 24.956 213.395 24.796C213.395 24.564 213.339 24.388 213.227 24.268C213.123 24.14 212.963 24.044 212.747 23.98C212.539 23.908 212.283 23.848 211.979 23.8C211.675 23.744 211.387 23.676 211.115 23.596C210.851 23.508 210.619 23.396 210.419 23.26C210.219 23.124 210.063 22.956 209.951 22.756C209.839 22.548 209.783 22.3 209.783 22.012C209.783 21.66 209.875 21.348 210.059 21.076C210.243 20.804 210.507 20.592 210.851 20.44C211.195 20.28 211.607 20.2 212.087 20.2C212.767 20.2 213.311 20.36 213.719 20.68C214.127 21 214.367 21.448 214.439 22.024H213.275C213.235 21.76 213.111 21.556 212.903 21.412C212.695 21.26 212.419 21.184 212.075 21.184C211.715 21.184 211.439 21.252 211.247 21.388C211.063 21.524 210.971 21.704 210.971 21.928C210.971 22.08 211.019 22.22 211.115 22.348C211.211 22.468 211.363 22.568 211.571 22.648C211.779 22.728 212.043 22.796 212.363 22.852C212.819 22.932 213.215 23.032 213.551 23.152C213.887 23.272 214.147 23.452 214.331 23.692C214.523 23.932 214.619 24.272 214.619 24.712C214.619 25.104 214.519 25.448 214.319 25.744C214.127 26.032 213.851 26.256 213.491 26.416C213.139 26.568 212.719 26.644 212.23 26.644Z" fill="#5C3FFF"/>
</g>
<defs>
<filter id="filter0_d_6_3968" x="0" y="0" width="300" height="45" filterUnits="userSpaceOnUse" color-interpolation-filters="sRGB">
<feFlood flood-opacity="0" result="BackgroundImageFix"/>
<feColorMatrix in="SourceAlpha" type="matrix" values="0 0 0 0 0 0 0 0 0 0 0 0 0 0 0 0 0 0 127 0" result="hardAlpha"/>
<feOffset/>
<feGaussianBlur stdDeviation="5"/>
<feComposite in2="hardAlpha" operator="out"/>
<feColorMatrix type="matrix" values="0 0 0 0 0 0 0 0 0 0 0 0 0 0 0 0 0 0 0.05 0"/>
<feBlend mode="normal" in2="BackgroundImageFix" result="effect1_dropShadow_6_3968"/>
<feBlend mode="normal" in="SourceGraphic" in2="effect1_dropShadow_6_3968" result="shape"/>
</filter>
</defs>
</svg>
