<svg width="170" height="50" viewBox="0 0 170 50" fill="none" xmlns="http://www.w3.org/2000/svg">
<path d="M0 25C0 11.1929 11.1929 0 25 0H145C158.807 0 170 11.1929 170 25C170 38.8071 158.807 50 145 50H25C11.1929 50 0 38.8071 0 25Z" fill="#F8FAFC"/>
<path d="M25 21V29M29 25H21" stroke="#1E293B" stroke-width="1.5" stroke-linecap="round" stroke-linejoin="round"/>
<path d="M35 25C35 19.4771 30.5228 15 25 15C19.4771 15 15 19.4771 15 25C15 30.5228 19.4771 35 25 35C30.5228 35 35 30.5228 35 25Z" stroke="#1E293B" stroke-width="1.5"/>
<path d="M49.326 21.5H49.256C49.144 21.8173 49.0133 22.186 48.864 22.606C48.724 23.026 48.5747 23.4647 48.416 23.922C48.2667 24.3793 48.122 24.818 47.982 25.238L47.786 26.162C47.73 26.3393 47.6693 26.5353 47.604 26.75C47.548 26.9647 47.4873 27.1793 47.422 27.394C47.3567 27.6087 47.2913 27.814 47.226 28.01C47.17 28.1967 47.1233 28.36 47.086 28.5C46.9833 28.5373 46.876 28.57 46.764 28.598C46.6613 28.626 46.5307 28.64 46.372 28.64C46.0547 28.64 45.8073 28.5793 45.63 28.458C45.4527 28.3273 45.364 28.1453 45.364 27.912C45.364 27.8 45.378 27.6927 45.406 27.59C45.4433 27.478 45.4853 27.352 45.532 27.212C45.6253 26.904 45.7467 26.5167 45.896 26.05C46.0547 25.5833 46.2273 25.0793 46.414 24.538C46.61 23.9967 46.806 23.4553 47.002 22.914C47.198 22.3633 47.3847 21.85 47.562 21.374C47.7393 20.898 47.8887 20.5013 48.01 20.184C48.1313 20.1187 48.3133 20.0533 48.556 19.988C48.7987 19.9227 49.0367 19.89 49.27 19.89C49.606 19.89 49.9093 19.9413 50.18 20.044C50.4507 20.1373 50.6233 20.296 50.698 20.52C50.894 21.024 51.0993 21.6073 51.314 22.27C51.538 22.9327 51.7667 23.6233 52 24.342C52.2333 25.0607 52.4527 25.7607 52.658 26.442C52.8727 27.114 53.0593 27.7207 53.218 28.262C53.134 28.3647 53.008 28.4487 52.84 28.514C52.672 28.5887 52.476 28.626 52.252 28.626C51.9253 28.626 51.692 28.57 51.552 28.458C51.4213 28.3367 51.3187 28.15 51.244 27.898L50.698 26.092L50.488 25.154C50.3573 24.6967 50.2173 24.244 50.068 23.796C49.9187 23.3387 49.7787 22.914 49.648 22.522C49.5267 22.1207 49.4193 21.78 49.326 21.5ZM46.988 26.498L47.66 25.056H51.146L51.398 26.498H46.988ZM57.5769 28.696C57.2129 28.696 56.8769 28.6493 56.5689 28.556C56.2703 28.4627 56.0229 28.3553 55.8269 28.234V26.708C56.0043 26.848 56.2143 26.9787 56.4569 27.1C56.6996 27.2213 56.9843 27.282 57.3109 27.282C57.8709 27.282 58.3096 27.1093 58.6269 26.764C58.9443 26.4093 59.1029 25.8727 59.1029 25.154C59.1029 24.65 59.0283 24.2487 58.8789 23.95C58.7296 23.642 58.5243 23.418 58.2629 23.278C58.0016 23.138 57.6983 23.068 57.3529 23.068C57.1009 23.068 56.8769 23.1007 56.6809 23.166C56.4943 23.2313 56.3309 23.3013 56.1909 23.376V27.772H54.4269V23.194C54.4269 22.97 54.4689 22.788 54.5529 22.648C54.6463 22.508 54.7909 22.3773 54.9869 22.256C55.2576 22.0973 55.5936 21.962 55.9949 21.85C56.4056 21.7287 56.8583 21.668 57.3529 21.668C58.0436 21.668 58.6549 21.7893 59.1869 22.032C59.7283 22.2747 60.1483 22.6527 60.4469 23.166C60.7549 23.6793 60.9089 24.342 60.9089 25.154C60.9089 25.9287 60.7643 26.582 60.4749 27.114C60.1949 27.6367 59.8029 28.0333 59.2989 28.304C58.7949 28.5653 58.2209 28.696 57.5769 28.696ZM55.3929 31.118C55.0663 31.118 54.8236 31.0573 54.6649 30.936C54.5063 30.8147 54.4269 30.6 54.4269 30.292V27.282L56.2049 27.296V31.006C56.1303 31.0247 56.0183 31.048 55.8689 31.076C55.7289 31.104 55.5703 31.118 55.3929 31.118ZM65.5066 28.696C65.1426 28.696 64.8066 28.6493 64.4986 28.556C64.1999 28.4627 63.9526 28.3553 63.7566 28.234V26.708C63.9339 26.848 64.1439 26.9787 64.3866 27.1C64.6293 27.2213 64.9139 27.282 65.2406 27.282C65.8006 27.282 66.2393 27.1093 66.5566 26.764C66.8739 26.4093 67.0326 25.8727 67.0326 25.154C67.0326 24.65 66.9579 24.2487 66.8086 23.95C66.6593 23.642 66.4539 23.418 66.1926 23.278C65.9313 23.138 65.6279 23.068 65.2826 23.068C65.0306 23.068 64.8066 23.1007 64.6106 23.166C64.4239 23.2313 64.2606 23.3013 64.1206 23.376V27.772H62.3566V23.194C62.3566 22.97 62.3986 22.788 62.4826 22.648C62.5759 22.508 62.7206 22.3773 62.9166 22.256C63.1873 22.0973 63.5233 21.962 63.9246 21.85C64.3353 21.7287 64.7879 21.668 65.2826 21.668C65.9733 21.668 66.5846 21.7893 67.1166 22.032C67.6579 22.2747 68.0779 22.6527 68.3766 23.166C68.6846 23.6793 68.8386 24.342 68.8386 25.154C68.8386 25.9287 68.6939 26.582 68.4046 27.114C68.1246 27.6367 67.7326 28.0333 67.2286 28.304C66.7246 28.5653 66.1506 28.696 65.5066 28.696ZM63.3226 31.118C62.9959 31.118 62.7533 31.0573 62.5946 30.936C62.4359 30.8147 62.3566 30.6 62.3566 30.292V27.282L64.1346 27.296V31.006C64.0599 31.0247 63.9479 31.048 63.7986 31.076C63.6586 31.104 63.4999 31.118 63.3226 31.118ZM70.3843 24.804L72.1483 24.888V28.486C72.0736 28.5047 71.9616 28.528 71.8123 28.556C71.6723 28.584 71.5183 28.598 71.3503 28.598C71.0143 28.598 70.767 28.5373 70.6083 28.416C70.459 28.2947 70.3843 28.08 70.3843 27.772V24.804ZM72.1483 25.784L70.3843 25.714V19.4C70.459 19.372 70.5663 19.3487 70.7063 19.33C70.8556 19.302 71.0143 19.288 71.1823 19.288C71.5183 19.288 71.761 19.3487 71.9103 19.47C72.069 19.582 72.1483 19.7967 72.1483 20.114V25.784ZM75.195 26.904C75.0457 26.596 74.873 26.2133 74.677 25.756C74.4904 25.2893 74.2944 24.7573 74.089 24.16C73.8837 23.5533 73.6784 22.8767 73.473 22.13C73.5664 22.018 73.697 21.9247 73.865 21.85C74.033 21.766 74.215 21.724 74.411 21.724C74.6537 21.724 74.8544 21.78 75.013 21.892C75.1717 22.004 75.293 22.2047 75.377 22.494C75.6104 23.2033 75.8484 23.9127 76.091 24.622C76.343 25.322 76.6044 26.036 76.875 26.764H76.931C77.099 26.3533 77.2717 25.8773 77.449 25.336C77.6357 24.7853 77.8084 24.216 77.967 23.628C78.1257 23.0307 78.2564 22.4613 78.359 21.92C78.471 21.864 78.5877 21.8173 78.709 21.78C78.8397 21.7427 78.975 21.724 79.115 21.724C79.367 21.724 79.577 21.78 79.745 21.892C79.9224 22.004 80.011 22.186 80.011 22.438C80.011 22.662 79.969 22.9607 79.885 23.334C79.8104 23.7073 79.703 24.118 79.563 24.566C79.4324 25.014 79.2737 25.4807 79.087 25.966C78.9097 26.442 78.7184 26.9087 78.513 27.366C78.317 27.814 78.1164 28.22 77.911 28.584C77.435 29.4333 76.9964 30.0727 76.595 30.502C76.1937 30.9313 75.8017 31.146 75.419 31.146C75.1204 31.146 74.8777 31.0573 74.691 30.88C74.5044 30.712 74.3924 30.4973 74.355 30.236C74.551 30.0587 74.761 29.8487 74.985 29.606C75.2184 29.3633 75.4424 29.102 75.657 28.822C75.8717 28.542 76.0537 28.276 76.203 28.024C76.0444 27.9773 75.881 27.8793 75.713 27.73C75.5544 27.5807 75.3817 27.3053 75.195 26.904ZM87.2586 28.696C86.8946 28.696 86.5586 28.6493 86.2506 28.556C85.9519 28.4627 85.7046 28.3553 85.5086 28.234V26.708C85.6859 26.848 85.8959 26.9787 86.1386 27.1C86.3812 27.2213 86.6659 27.282 86.9926 27.282C87.5526 27.282 87.9912 27.1093 88.3086 26.764C88.6259 26.4093 88.7846 25.8727 88.7846 25.154C88.7846 24.65 88.7099 24.2487 88.5606 23.95C88.4112 23.642 88.2059 23.418 87.9446 23.278C87.6832 23.138 87.3799 23.068 87.0346 23.068C86.7826 23.068 86.5586 23.1007 86.3626 23.166C86.1759 23.2313 86.0126 23.3013 85.8726 23.376V27.772H84.1086V23.194C84.1086 22.97 84.1506 22.788 84.2346 22.648C84.3279 22.508 84.4726 22.3773 84.6686 22.256C84.9392 22.0973 85.2752 21.962 85.6766 21.85C86.0872 21.7287 86.5399 21.668 87.0346 21.668C87.7252 21.668 88.3366 21.7893 88.8686 22.032C89.4099 22.2747 89.8299 22.6527 90.1286 23.166C90.4366 23.6793 90.5906 24.342 90.5906 25.154C90.5906 25.9287 90.4459 26.582 90.1566 27.114C89.8766 27.6367 89.4846 28.0333 88.9806 28.304C88.4766 28.5653 87.9026 28.696 87.2586 28.696ZM85.0746 31.118C84.7479 31.118 84.5052 31.0573 84.3466 30.936C84.1879 30.8147 84.1086 30.6 84.1086 30.292V27.282L85.8866 27.296V31.006C85.8119 31.0247 85.6999 31.048 85.5506 31.076C85.4106 31.104 85.2519 31.118 85.0746 31.118ZM93.8163 23.474V25.364H92.0383V23.334C92.0383 23.082 92.0943 22.8767 92.2063 22.718C92.3183 22.55 92.4816 22.4007 92.6963 22.27C92.9856 22.0927 93.3449 21.948 93.7743 21.836C94.2036 21.724 94.6609 21.668 95.1463 21.668C96.0329 21.668 96.4763 21.9433 96.4763 22.494C96.4763 22.6247 96.4576 22.7507 96.4203 22.872C96.3829 22.984 96.3363 23.0773 96.2803 23.152C96.1869 23.1333 96.0703 23.1193 95.9303 23.11C95.7903 23.0913 95.6456 23.082 95.4963 23.082C95.1603 23.082 94.8476 23.1193 94.5583 23.194C94.2689 23.2687 94.0216 23.362 93.8163 23.474ZM92.0383 24.804L93.8163 24.888V28.486C93.7416 28.5047 93.6296 28.528 93.4803 28.556C93.3403 28.584 93.1816 28.598 93.0042 28.598C92.6776 28.598 92.4349 28.5373 92.2763 28.416C92.1176 28.2947 92.0383 28.08 92.0383 27.772V24.804ZM103.936 25.182C103.936 25.9007 103.796 26.526 103.516 27.058C103.236 27.5807 102.839 27.9867 102.326 28.276C101.812 28.5653 101.206 28.71 100.506 28.71C99.815 28.71 99.2083 28.57 98.6856 28.29C98.1723 28.0007 97.7756 27.59 97.4956 27.058C97.2156 26.526 97.0756 25.9007 97.0756 25.182C97.0756 24.454 97.2156 23.8287 97.4956 23.306C97.785 22.7833 98.1863 22.382 98.6996 22.102C99.2223 21.8127 99.8243 21.668 100.506 21.668C101.196 21.668 101.798 21.8127 102.312 22.102C102.825 22.3913 103.222 22.7973 103.502 23.32C103.791 23.8427 103.936 24.4633 103.936 25.182ZM100.506 23.068C100.011 23.068 99.6143 23.2547 99.3156 23.628C99.0263 24.0013 98.8816 24.5193 98.8816 25.182C98.8816 25.854 99.0216 26.3767 99.3016 26.75C99.591 27.114 99.9923 27.296 100.506 27.296C101.019 27.296 101.416 27.1093 101.696 26.736C101.985 26.3627 102.13 25.8447 102.13 25.182C102.13 24.5193 101.985 24.0013 101.696 23.628C101.406 23.2547 101.01 23.068 100.506 23.068ZM111.206 23.922V25.518H109.428V24.132C109.428 23.7587 109.321 23.488 109.106 23.32C108.901 23.152 108.63 23.068 108.294 23.068C108.061 23.068 107.846 23.1053 107.65 23.18C107.454 23.2547 107.291 23.3293 107.16 23.404V25.518H105.382V23.278C105.382 23.0633 105.429 22.886 105.522 22.746C105.615 22.5967 105.76 22.4567 105.956 22.326C106.236 22.1393 106.591 21.9853 107.02 21.864C107.459 21.7333 107.902 21.668 108.35 21.668C108.807 21.668 109.227 21.738 109.61 21.878C109.993 22.018 110.315 22.2233 110.576 22.494C110.641 22.5593 110.702 22.62 110.758 22.676C110.814 22.732 110.861 22.7973 110.898 22.872C110.982 23.0027 111.052 23.1613 111.108 23.348C111.173 23.5253 111.206 23.7167 111.206 23.922ZM115.252 24.062V25.518H113.488V24.132C113.488 23.7587 113.385 23.488 113.18 23.32C112.975 23.152 112.704 23.068 112.368 23.068C112.116 23.068 111.873 23.1193 111.64 23.222C111.416 23.3247 111.22 23.46 111.052 23.628L110.17 22.55C110.45 22.3073 110.786 22.102 111.178 21.934C111.579 21.7567 112.051 21.668 112.592 21.668C113.087 21.668 113.535 21.752 113.936 21.92C114.337 22.0787 114.655 22.3353 114.888 22.69C115.131 23.0353 115.252 23.4927 115.252 24.062ZM105.382 24.846H107.16V28.486C107.085 28.5047 106.973 28.528 106.824 28.556C106.684 28.584 106.525 28.598 106.348 28.598C106.021 28.598 105.779 28.5373 105.62 28.416C105.461 28.2947 105.382 28.08 105.382 27.772V24.846ZM109.428 24.846H111.206V28.486C111.131 28.5047 111.019 28.528 110.87 28.556C110.73 28.584 110.576 28.598 110.408 28.598C110.072 28.598 109.825 28.5373 109.666 28.416C109.507 28.2947 109.428 28.08 109.428 27.772V24.846ZM113.488 24.846H115.252V28.486C115.177 28.5047 115.065 28.528 114.916 28.556C114.776 28.584 114.622 28.598 114.454 28.598C114.118 28.598 113.871 28.5373 113.712 28.416C113.563 28.2947 113.488 28.08 113.488 27.772V24.846ZM123.568 25.182C123.568 25.9007 123.428 26.526 123.148 27.058C122.868 27.5807 122.472 27.9867 121.958 28.276C121.445 28.5653 120.838 28.71 120.138 28.71C119.448 28.71 118.841 28.57 118.318 28.29C117.805 28.0007 117.408 27.59 117.128 27.058C116.848 26.526 116.708 25.9007 116.708 25.182C116.708 24.454 116.848 23.8287 117.128 23.306C117.418 22.7833 117.819 22.382 118.332 22.102C118.855 21.8127 119.457 21.668 120.138 21.668C120.829 21.668 121.431 21.8127 121.944 22.102C122.458 22.3913 122.854 22.7973 123.134 23.32C123.424 23.8427 123.568 24.4633 123.568 25.182ZM120.138 23.068C119.644 23.068 119.247 23.2547 118.948 23.628C118.659 24.0013 118.514 24.5193 118.514 25.182C118.514 25.854 118.654 26.3767 118.934 26.75C119.224 27.114 119.625 27.296 120.138 27.296C120.652 27.296 121.048 27.1093 121.328 26.736C121.618 26.3627 121.762 25.8447 121.762 25.182C121.762 24.5193 121.618 24.0013 121.328 23.628C121.039 23.2547 120.642 23.068 120.138 23.068ZM131.248 23.082C130.697 23.082 130.23 23.264 129.848 23.628C129.474 23.992 129.288 24.5147 129.288 25.196C129.288 25.8773 129.47 26.3953 129.834 26.75C130.198 27.1047 130.669 27.282 131.248 27.282C131.574 27.282 131.859 27.24 132.102 27.156C132.344 27.0627 132.554 26.9647 132.732 26.862C132.872 26.9553 132.979 27.0627 133.054 27.184C133.128 27.296 133.166 27.436 133.166 27.604C133.166 27.9213 132.974 28.1827 132.592 28.388C132.218 28.5933 131.719 28.696 131.094 28.696C130.384 28.696 129.754 28.5653 129.204 28.304C128.662 28.0427 128.242 27.6553 127.944 27.142C127.645 26.6193 127.496 25.9707 127.496 25.196C127.496 24.412 127.654 23.7587 127.972 23.236C128.298 22.7133 128.732 22.3213 129.274 22.06C129.815 21.7987 130.403 21.668 131.038 21.668C131.663 21.668 132.162 21.78 132.536 22.004C132.909 22.2187 133.096 22.4847 133.096 22.802C133.096 22.9513 133.058 23.0867 132.984 23.208C132.909 23.32 132.816 23.418 132.704 23.502C132.526 23.3993 132.316 23.306 132.074 23.222C131.84 23.1287 131.565 23.082 131.248 23.082ZM140.945 25.182C140.945 25.9007 140.805 26.526 140.525 27.058C140.245 27.5807 139.849 27.9867 139.335 28.276C138.822 28.5653 138.215 28.71 137.515 28.71C136.825 28.71 136.218 28.57 135.695 28.29C135.182 28.0007 134.785 27.59 134.505 27.058C134.225 26.526 134.085 25.9007 134.085 25.182C134.085 24.454 134.225 23.8287 134.505 23.306C134.795 22.7833 135.196 22.382 135.709 22.102C136.232 21.8127 136.834 21.668 137.515 21.668C138.206 21.668 138.808 21.8127 139.321 22.102C139.835 22.3913 140.231 22.7973 140.511 23.32C140.801 23.8427 140.945 24.4633 140.945 25.182ZM137.515 23.068C137.021 23.068 136.624 23.2547 136.325 23.628C136.036 24.0013 135.891 24.5193 135.891 25.182C135.891 25.854 136.031 26.3767 136.311 26.75C136.601 27.114 137.002 27.296 137.515 27.296C138.029 27.296 138.425 27.1093 138.705 26.736C138.995 26.3627 139.139 25.8447 139.139 25.182C139.139 24.5193 138.995 24.0013 138.705 23.628C138.416 23.2547 138.019 23.068 137.515 23.068ZM146.774 27.016V22.648L148.538 22.634V27.212C148.538 27.4173 148.491 27.59 148.398 27.73C148.314 27.87 148.174 27.996 147.978 28.108C147.754 28.2573 147.446 28.3927 147.054 28.514C146.662 28.6447 146.218 28.71 145.724 28.71C144.977 28.71 144.328 28.584 143.778 28.332C143.236 28.0707 142.816 27.6833 142.518 27.17C142.219 26.6473 142.07 25.994 142.07 25.21C142.07 24.3887 142.219 23.7213 142.518 23.208C142.816 22.6853 143.222 22.298 143.736 22.046C144.258 21.794 144.832 21.668 145.458 21.668C145.803 21.668 146.116 21.71 146.396 21.794C146.685 21.8687 146.914 21.9667 147.082 22.088V23.586C146.932 23.4553 146.741 23.3387 146.508 23.236C146.274 23.124 145.999 23.068 145.682 23.068C145.336 23.068 145.024 23.1427 144.744 23.292C144.473 23.4413 144.258 23.6747 144.1 23.992C143.941 24.3 143.862 24.7107 143.862 25.224C143.862 25.9333 144.025 26.456 144.352 26.792C144.688 27.1187 145.14 27.282 145.71 27.282C145.952 27.282 146.158 27.254 146.326 27.198C146.503 27.142 146.652 27.0813 146.774 27.016ZM148.538 23.012H146.774V19.4C146.848 19.372 146.956 19.3487 147.096 19.33C147.245 19.302 147.404 19.288 147.572 19.288C147.908 19.288 148.15 19.3487 148.3 19.47C148.458 19.582 148.538 19.7967 148.538 20.114V23.012ZM151.133 26.078L151.049 24.832L154.773 24.286C154.745 23.9407 154.61 23.642 154.367 23.39C154.124 23.1287 153.779 22.998 153.331 22.998C152.855 22.998 152.463 23.1613 152.155 23.488C151.847 23.8147 151.688 24.2813 151.679 24.888L151.721 25.644C151.796 26.2227 152.02 26.652 152.393 26.932C152.776 27.2027 153.252 27.338 153.821 27.338C154.213 27.338 154.577 27.282 154.913 27.17C155.249 27.0487 155.515 26.9227 155.711 26.792C155.842 26.8667 155.949 26.9693 156.033 27.1C156.117 27.2307 156.159 27.3707 156.159 27.52C156.159 27.7627 156.052 27.9773 155.837 28.164C155.622 28.3413 155.328 28.4767 154.955 28.57C154.591 28.6633 154.176 28.71 153.709 28.71C152.981 28.71 152.337 28.5747 151.777 28.304C151.226 28.0333 150.792 27.632 150.475 27.1C150.167 26.5587 150.013 25.896 150.013 25.112C150.013 24.5333 150.102 24.0293 150.279 23.6C150.456 23.1613 150.699 22.802 151.007 22.522C151.315 22.2327 151.665 22.018 152.057 21.878C152.458 21.738 152.883 21.668 153.331 21.668C153.947 21.668 154.488 21.794 154.955 22.046C155.422 22.2887 155.786 22.6293 156.047 23.068C156.308 23.5067 156.439 24.0107 156.439 24.58C156.439 24.8413 156.369 25.0373 156.229 25.168C156.098 25.2987 155.912 25.3827 155.669 25.42L151.133 26.078Z" fill="#475569"/>
</svg>
