<svg width="42" height="48" viewBox="0 0 42 48" fill="none" xmlns="http://www.w3.org/2000/svg">
<rect x="6" width="30" height="30" rx="15" fill="#5C3FFF"/>
<path d="M24.522 15.9041C24.277 16.1432 24.137 16.4874 24.172 16.8549C24.2245 17.4849 24.802 17.9457 25.432 17.9457H26.5404V18.6399C26.5404 19.8474 25.5545 20.8333 24.347 20.8333H17.6504C16.4429 20.8333 15.457 19.8474 15.457 18.6399V14.7141C15.457 13.5066 16.4429 12.5208 17.6504 12.5208H24.347C25.5545 12.5208 26.5404 13.5066 26.5404 14.7141V15.5541H25.362C25.0354 15.5541 24.7379 15.6824 24.522 15.9041Z" stroke="white" stroke-width="0.875" stroke-linecap="round" stroke-linejoin="round"/>
<path d="M15.457 15.239V12.5732C15.457 11.879 15.8829 11.2607 16.5304 11.0157L21.162 9.26569C21.8854 8.99152 22.6612 9.5282 22.6612 10.304V12.5207" stroke="white" stroke-width="0.875" stroke-linecap="round" stroke-linejoin="round"/>
<path d="M27.16 16.1492V17.3509C27.16 17.6717 26.9033 17.9342 26.5766 17.9459H25.4333C24.8033 17.9459 24.2258 17.485 24.1733 16.855C24.1383 16.4875 24.2783 16.1434 24.5233 15.9042C24.7391 15.6825 25.0366 15.5542 25.3633 15.5542H26.5766C26.9033 15.5659 27.16 15.8283 27.16 16.1492Z" stroke="white" stroke-width="0.875" stroke-linecap="round" stroke-linejoin="round"/>
<path d="M18.082 15H22.1654" stroke="white" stroke-width="0.875" stroke-linecap="round" stroke-linejoin="round"/>
<path d="M0.953633 45V38H3.34363C3.90363 38 4.36363 38.0933 4.72363 38.28C5.08363 38.4667 5.3503 38.7167 5.52363 39.03C5.69697 39.3433 5.78363 39.7 5.78363 40.1C5.78363 40.48 5.69697 40.83 5.52363 41.15C5.35697 41.4633 5.09363 41.7167 4.73363 41.91C4.37363 42.0967 3.9103 42.19 3.34363 42.19H1.95363V45H0.953633ZM1.95363 41.36H3.30363C3.8303 41.36 4.20363 41.2467 4.42363 41.02C4.6503 40.7867 4.76363 40.48 4.76363 40.1C4.76363 39.6933 4.6503 39.38 4.42363 39.16C4.20363 38.94 3.8303 38.83 3.30363 38.83H1.95363V41.36ZM8.21816 45.12C7.80483 45.12 7.4615 45.05 7.18816 44.91C6.91483 44.77 6.7115 44.5833 6.57816 44.35C6.44483 44.11 6.37816 43.8533 6.37816 43.58C6.37816 43.2467 6.46483 42.9633 6.63816 42.73C6.8115 42.49 7.05816 42.3067 7.37816 42.18C7.69816 42.0533 8.0815 41.99 8.52816 41.99H9.83816C9.83816 41.6967 9.79483 41.4533 9.70816 41.26C9.6215 41.0667 9.4915 40.9233 9.31816 40.83C9.1515 40.73 8.93816 40.68 8.67816 40.68C8.37816 40.68 8.1215 40.7533 7.90816 40.9C7.69483 41.04 7.5615 41.25 7.50816 41.53H6.50816C6.54816 41.1767 6.66816 40.8767 6.86816 40.63C7.07483 40.3767 7.33816 40.1833 7.65816 40.05C7.97816 39.91 8.31816 39.84 8.67816 39.84C9.1515 39.84 9.54816 39.9233 9.86816 40.09C10.1882 40.2567 10.4282 40.4933 10.5882 40.8C10.7548 41.1 10.8382 41.46 10.8382 41.88V45H9.96816L9.88816 44.15C9.81483 44.2833 9.72816 44.41 9.62816 44.53C9.52816 44.65 9.40816 44.7533 9.26816 44.84C9.13483 44.9267 8.97816 44.9933 8.79816 45.04C8.62483 45.0933 8.4315 45.12 8.21816 45.12ZM8.40816 44.31C8.6215 44.31 8.81483 44.2667 8.98816 44.18C9.1615 44.0933 9.30816 43.9767 9.42816 43.83C9.55483 43.6767 9.64816 43.5067 9.70816 43.32C9.77483 43.1267 9.8115 42.93 9.81816 42.73V42.7H8.62816C8.3415 42.7 8.10816 42.7367 7.92816 42.81C7.75483 42.8767 7.62816 42.97 7.54816 43.09C7.46816 43.21 7.42816 43.35 7.42816 43.51C7.42816 43.6767 7.46483 43.82 7.53816 43.94C7.61816 44.0533 7.7315 44.1433 7.87816 44.21C8.02483 44.2767 8.2015 44.31 8.40816 44.31ZM12.5383 47.2L13.7683 44.44H13.4783L11.4883 39.96H12.5683L14.1483 43.62L15.7383 39.96H16.7883L13.5883 47.2H12.5383ZM17.6712 45V39.96H18.5712L18.6412 40.67C18.8012 40.41 19.0145 40.2067 19.2812 40.06C19.5479 39.9133 19.8479 39.84 20.1812 39.84C20.4345 39.84 20.6645 39.8767 20.8712 39.95C21.0779 40.0167 21.2612 40.12 21.4212 40.26C21.5812 40.4 21.7112 40.5733 21.8112 40.78C21.9912 40.4867 22.2312 40.2567 22.5312 40.09C22.8379 39.9233 23.1612 39.84 23.5012 39.84C23.9079 39.84 24.2579 39.9233 24.5512 40.09C24.8445 40.25 25.0679 40.4933 25.2212 40.82C25.3745 41.14 25.4512 41.54 25.4512 42.02V45H24.4612V42.12C24.4612 41.6533 24.3645 41.3 24.1712 41.06C23.9845 40.82 23.7079 40.7 23.3412 40.7C23.0945 40.7 22.8745 40.7633 22.6812 40.89C22.4879 41.0167 22.3345 41.2 22.2212 41.44C22.1145 41.68 22.0612 41.9733 22.0612 42.32V45H21.0612V42.12C21.0612 41.6533 20.9645 41.3 20.7712 41.06C20.5845 40.82 20.3079 40.7 19.9412 40.7C19.7079 40.7 19.4945 40.7633 19.3012 40.89C19.1079 41.0167 18.9545 41.2 18.8412 41.44C18.7279 41.68 18.6712 41.9733 18.6712 42.32V45H17.6712ZM29.0235 45.12C28.5435 45.12 28.1168 45.01 27.7435 44.79C27.3701 44.57 27.0768 44.2633 26.8635 43.87C26.6568 43.4767 26.5535 43.02 26.5535 42.5C26.5535 41.9667 26.6568 41.5033 26.8635 41.11C27.0768 40.71 27.3701 40.4 27.7435 40.18C28.1168 39.9533 28.5501 39.84 29.0435 39.84C29.5368 39.84 29.9601 39.95 30.3135 40.17C30.6668 40.39 30.9401 40.6833 31.1335 41.05C31.3268 41.41 31.4235 41.81 31.4235 42.25C31.4235 42.3167 31.4201 42.39 31.4135 42.47C31.4135 42.5433 31.4101 42.6267 31.4035 42.72H27.2835V42.01H30.4235C30.4035 41.59 30.2635 41.2633 30.0035 41.03C29.7435 40.79 29.4201 40.67 29.0335 40.67C28.7601 40.67 28.5101 40.7333 28.2835 40.86C28.0568 40.98 27.8735 41.16 27.7335 41.4C27.6001 41.6333 27.5335 41.93 27.5335 42.29V42.57C27.5335 42.9433 27.6001 43.26 27.7335 43.52C27.8735 43.7733 28.0568 43.9667 28.2835 44.1C28.5101 44.2267 28.7568 44.29 29.0235 44.29C29.3435 44.29 29.6068 44.22 29.8135 44.08C30.0201 43.94 30.1735 43.75 30.2735 43.51H31.2735C31.1868 43.8167 31.0401 44.0933 30.8335 44.34C30.6268 44.58 30.3701 44.77 30.0635 44.91C29.7635 45.05 29.4168 45.12 29.0235 45.12ZM32.5345 45V39.96H33.4345L33.4945 40.82C33.6545 40.52 33.8812 40.2833 34.1745 40.11C34.4678 39.93 34.8045 39.84 35.1845 39.84C35.5845 39.84 35.9278 39.92 36.2145 40.08C36.5012 40.24 36.7245 40.4833 36.8845 40.81C37.0445 41.13 37.1245 41.5333 37.1245 42.02V45H36.1245V42.12C36.1245 41.6533 36.0212 41.3 35.8145 41.06C35.6078 40.82 35.3078 40.7 34.9145 40.7C34.6545 40.7 34.4212 40.7633 34.2145 40.89C34.0078 41.01 33.8412 41.19 33.7145 41.43C33.5945 41.67 33.5345 41.9633 33.5345 42.31V45H32.5345ZM40.4836 45C40.1636 45 39.887 44.95 39.6536 44.85C39.4203 44.75 39.2403 44.5833 39.1136 44.35C38.987 44.1167 38.9236 43.8 38.9236 43.4V40.81H38.0536V39.96H38.9236L39.0436 38.7H39.9236V39.96H41.3536V40.81H39.9236V43.41C39.9236 43.6967 39.9836 43.8933 40.1036 44C40.2236 44.1 40.4303 44.15 40.7236 44.15H41.3036V45H40.4836Z" fill="#666666"/>
</svg>
